<mxfile host="app.diagrams.net" modified="2023-08-17T22:08:43.629Z" agent="Mozilla/5.0 (Windows NT 10.0; Win64; x64) AppleWebKit/537.36 (KHTML, like Gecko) Chrome/116.0.0.0 Safari/537.36" etag="w14s1CpCA1CRowY25fsL" version="21.6.8" type="device">
  <diagram id="prtHgNgQTEPvFCAcTncT" name="Page-1">
    <mxGraphModel dx="1007" dy="496" grid="1" gridSize="10" guides="1" tooltips="1" connect="1" arrows="1" fold="1" page="1" pageScale="1" pageWidth="827" pageHeight="1169" math="0" shadow="0">
      <root>
        <mxCell id="0" />
        <mxCell id="1" parent="0" />
        <mxCell id="ybDbiMb5vyXETm1qi4Vq-18" style="rounded=0;orthogonalLoop=1;jettySize=auto;html=1;exitX=0.5;exitY=0;exitDx=0;exitDy=0;entryX=0.5;entryY=1;entryDx=0;entryDy=0;strokeColor=#66B2FF;dashed=1;" edge="1" parent="1" source="ybDbiMb5vyXETm1qi4Vq-3" target="ybDbiMb5vyXETm1qi4Vq-9">
          <mxGeometry relative="1" as="geometry" />
        </mxCell>
        <mxCell id="ybDbiMb5vyXETm1qi4Vq-25" value="" style="rounded=0;orthogonalLoop=1;jettySize=auto;html=1;strokeColor=#0080F0;dashed=1;entryX=0;entryY=0.5;entryDx=0;entryDy=0;" edge="1" parent="1" source="ybDbiMb5vyXETm1qi4Vq-3" target="ybDbiMb5vyXETm1qi4Vq-37">
          <mxGeometry x="1" y="142" relative="1" as="geometry">
            <mxPoint x="310" y="245.5" as="targetPoint" />
            <mxPoint x="141" y="114" as="offset" />
          </mxGeometry>
        </mxCell>
        <mxCell id="ybDbiMb5vyXETm1qi4Vq-36" style="rounded=0;orthogonalLoop=1;jettySize=auto;html=1;exitX=1;exitY=0.5;exitDx=0;exitDy=0;entryX=0.5;entryY=0;entryDx=0;entryDy=0;dashed=1;strokeColor=#66B2FF;" edge="1" parent="1" source="ybDbiMb5vyXETm1qi4Vq-9" target="ybDbiMb5vyXETm1qi4Vq-37">
          <mxGeometry relative="1" as="geometry">
            <Array as="points">
              <mxPoint x="325" y="100" />
            </Array>
          </mxGeometry>
        </mxCell>
        <mxCell id="ybDbiMb5vyXETm1qi4Vq-27" value="Prompt" style="rounded=0;orthogonalLoop=1;jettySize=auto;html=1;dashed=1;strokeColor=#0080F0;exitX=1;exitY=0.5;exitDx=0;exitDy=0;entryX=-0.001;entryY=0.437;entryDx=0;entryDy=0;entryPerimeter=0;" edge="1" parent="1" source="ybDbiMb5vyXETm1qi4Vq-38" target="ybDbiMb5vyXETm1qi4Vq-24">
          <mxGeometry x="0.0867" y="15" relative="1" as="geometry">
            <mxPoint x="690" y="260.50113903620013" as="sourcePoint" />
            <mxPoint x="800" y="261" as="targetPoint" />
            <Array as="points" />
            <mxPoint as="offset" />
          </mxGeometry>
        </mxCell>
        <mxCell id="ybDbiMb5vyXETm1qi4Vq-39" style="edgeStyle=orthogonalEdgeStyle;rounded=0;orthogonalLoop=1;jettySize=auto;html=1;" edge="1" parent="1" source="ybDbiMb5vyXETm1qi4Vq-37" target="ybDbiMb5vyXETm1qi4Vq-38">
          <mxGeometry relative="1" as="geometry" />
        </mxCell>
        <mxCell id="ybDbiMb5vyXETm1qi4Vq-37" value="Power Virtual Agents" style="shape=image;verticalLabelPosition=bottom;labelBackgroundColor=default;verticalAlign=top;aspect=fixed;imageAspect=0;image=data:image/png,iVBORw0KGgoAAAANSUhEUgAAAPoAAAD6CAYAAACI7Fo9AAAAGXRFWHRTb2Z0d2FyZQBBZG9iZSBJbWFnZVJlYWR5ccllPAAAE5pJREFUeNrsnV2MVNUdwM/MkmpoXLYp6oNAR6tGKoZ5sFhAy9DVsMoDC1YE05RdI0af2NVHkwImJH3BXZ7aVO0uL2qxwmLix0bEoSJUJWWJUIykdhVsBDbpsiakmJj0/mfPbGbXuTP3zv2Ye879/ZLLsOwwu/ec+7v///m8GQVWMHdHX955adNfyms+wMeNO8dI+YuxZ3qLlLDZZCgCo0TOaYHn6NegQvtltOL4ouLvI87NYJxaQnTwLnRZZjkW69ecAb96OQuQ44SWf4QaRXSYFLugZV7hHIWK9NsWJO0/pG8ARSI/oqcpBe+sEDttjJTld6Qf4opAdFvEbqsQu9PCiB1GxN/vHEOO+KMUB6KbKPca/Qr+ov1u2veIjtzpQKL7LiI9oidFcGlnb3KOLkoj0vR+t5aezjxEjzV6i9hblBlDX7YgkksH3i5Se0SPUvC8lpvonZAo7wg/SFEgeliCd2rBC5RGItvyktb3k9YjeqOCS+TeSnpuTFq/C+ERHcERHtEBwREe0W0XXNrefSrelWAQo/CO7NsQPb2C57XgBXywnlHn2J7WXvpMSgVv0yl6D9d/6ig6R2/axuEzKZS8S0dxFpekm34d4ccRnTQd7G+/d6dhuWwmJZJv06k6gFs6323z4pmM5YJLFB9Q9KaDt+guqXw/ohPFwX6GdHQfR/RkC57TUZy2ONB212Qtk1wWnxxHcgiIjMjsc66nPiJ6sgSXipFK6eIahZAZ0dF9BNGbn6rvU3S4Aam8nam7nqN+HMmBVN7SiO4Ueo9O1wHipOgca03rlc8YKvkA7XGg3W6p6LrT7T1SdUhIu32lKbJnDZI8j+SQsHb7cb1IiogesuSsOIMk0p30de4ZJAcIhUFH9m5S98Ykl7ToOJKDAXTpTmIiegOSD3D9AJHdUtGRHJDdctGRHJDdctGRHJDdctGRHJDdctEZQgNkj5YWJAeInPzs9o5Llw8O/z2VEV2vJWecHNJC02bQZZooOQtUII3IQphi3D+0mTPj2BUG0sg+3Vy1X3Q9VbBAnUMKKe9W02a16HpnmC7qG1JMTme0sdESs+QSxV+mngFUbnZ7R9vlg8PDVomue9il8+1q6higxC8c2b9wZI98l5o4U/d9imE0gJn0xdE5F4voeptcetgBvo8Ev4GoO+eyMUguj0nqoT4BXJEgGOnW5S0RS95GuxzAm+xRttejjui0ywH8tddzRomux8sL1B2Av/a6Mam7viu9TMoO4JtcFCvdooroA6TsAA2zNewUPnTRSdkBkpfCt4QsOSk7QAJT+LAjOik7QLgpfFuiRNcTY0jZARKYwmdCkrz0ZEk1ufwOAMIl8K40YUX0HiQHiIzAUT1wZ5zugNtHXQBEl8IH7ZgLI6JvpR4AIidQx1wg0fWOMV3UAUD0UV0FWAUaNKITzQHijeq5WEXX0bxA2QPEK3vcEZ1oDhA/XY1E9YZEJ5oDmBXVs3H9IABoXlT3LTrRHMC8qJ6N+gcAQPOj+qy0R/Pbr5urli2Yp5YuuEHNn9Na+hrs4NSFMXX20kTp9e3P/lV6tYwtztHr5Y0Zn6LLnNsu00un9aqr1MN3LFSP3bm4JDekA5F+z8lP1Z5PTpf+bgHjznHj2DO94/Xe2OJDckkTBk0vmc135tXAg6tVxy03qTlXX8XVnyKkvpc5mZtcAyqTUafOj6kr331n8inJBi/nvcyB99NG32J6FH9t4zq1vf2e0t8h3Ty9fIl6p3uDDU01T176Ed3YlF0qUypV2uEAZaTZ9k73RrXeacYZTE5v+hJcdOeDRPI2UyV/7ZF1tMXBlf4H7jVd9k313pDxKLo8VqlgZLruSO4lPXv7zOfq6JdfqVMXLqqTTttt4soVDDAYqXO5uUsWJ/0x9W70Ut8PvrTX5J556ZQbbVh03Qn3bxPPXNrjpY6XGpX7/LET6vmPRxDbcqQTbnv7L2ve9EXy+wZeNvUUtzuibwuSum8xtWJrSS6VKnfwnYc/RPIUcMTJ1kTinR98VDMLqHXNmJy+exG908SzfsyD5BZOoIA6yI29580DNa6bxaaeWk5PaPMvuu7Ny5l2xtIek3aZW7r+6N43iOIpRibMSJ+M27VjcMfcpkYj+hoTz9ZNckHa5JbMioIA9LxxwPVmX+v6STidjYreaZPopc63j0e4yqF0LfzFieyWid7mNqaerZO2mzl2fn31ntW3P/uclB2mpfBuLDN3ctUavxF9jaln6jbF9cjZr7i6YQrpjHW78d9+3bVWpe9Z29L2WhMjTp2/yNUNM66J6iMvreYueKqavmdd0vaCqWn7/DnX1LyDA1Ry8kL1m//81mtMPq0VXiP6Gi4BSAMTV771nRmamL67iV7gEgAwltzMbaayVdJ2SdnzlBWA0XTWi+idlBGA8ayoJ/oKygjAeAr1RKd9DmA+MsyWryq6bsDnKCMAu6L6zH3d6YQzjPWLFqpVN9+o5qVgT/pzl75RZycm1PCZz0vbNjOd2VM7vb+a6LTPDUGkfrFztSP4Nak5ZzlXOZbOv0E9tXyJ2nbwsCP8aS4Gd/JubXRrI7ptS1PTJvlMZD3Dc/e3l6QHV6bG07NuOb2NaZ9N6XqaJa9EIjvUj+pTolf20EGykTY5TCIRnQdy+BBd0RFnUPv8WgphWnnwYMwarJgpeo4yMQPSdkT3006XP2bNNB/s4ajhG23Mb231dFNr5WGZvkQnolvCqyc/Vb1vHbCmDf7qhrVUagBkfwlSd8uQSSS2SF7OSuTGBcGierZsPGVhBzbuoiOz4SAE0ZWh20ZVTfUWzKNaAaazuCw6Q2sA9tJWFn0OZQFpZOJ/qVgYkyeiQ6o5dSEVW4C3ZalqAPshogOkSPQ2isIOZDYZgJvoYAnMg4dqzGJ5arjIkslF18/1NZ5/9Mtz6siXPAASIhSdtD08wZ9tv0etv2Oh//+8fMnks9uPnVA7D39IYUIkokMIkr/2yLpAyyXlM57Wu6UgO9BGTyCbf54PbU305jsXU6AQieik7gFZv+i2ULODZQvY8BDCF53OuICE/YhdFuYAqXvCYBsjQPQUMCeCbYy4eQCip+HmwfbFgOjJ4qxFD4YARAdX0dnmCBAdYoYnjAKipwAbN4cERAcAj6KPWBXRzl+kVgGqiD5OGxWA1B0AEB2SBM8Kh1Sk7mlHps+GvcgGLBB97JneEYrBLl7ofADZPd8Yr03FebLDjKVR/ejjvy2NqSelc1KeiHLq4pgaPvO577H+KJsjaXm2ell0Sd/ZgMJC4ZPEqltuUk8tW+L7+e2s5gunjS6QvkNsPLToNrV+kbdNNKUJsnQ+O+6EJToYxNGz5m8NvermGz29TzKAejDtl4g+hU0PNpDU13SWetgXTyL5Qx724/snotdjvCz6JdvP1KZe6D0nTxsfxep1sEm7/MW1D3iK5iwVrssIbXRDeeqtA8bL7nbzFclf3bDWU2/7c0c+4mLwENEre93BIETyVbtfKXVqSXobd4dVeeju3KVv1NmJyYgqD3j8mSOp117yea3XfC8aS8983/3tniSXoTo5oC4nSqKPPdNbnLujj+JICLdf7304SdJ4ORL1+zuiP3f/vb6HxeSm9ZwjudcbTe9b73KxeGO0std9lPJITvvV5DnrIuFDr+wrRXvPTZHlS3xJLp/PSkVEN56OW28y+vcXCeu1n8sRXyT3MoyG5I0hGXul6IcokuTw8KKFxp/DqQu1NwGRfgVJ15E82mgufxDRE4qMM3fccpPhotceFZCOt22/uhvJYxadIbaE0b/6XusfuOilLwLJA3FomugsV02mBH/duE71P3CvkdE9jMUoMgtQhhGjkrz1qh9U/feTF6zZe7Dk9cxlqkXnKJh8VifPu6eLEh2PfGnePPH1dywsHeXoJks+o0bGt89OTO81X+a0qWXoT25AIt7v3n1f7fnkdKBoXU9yP6vcGmGRy3r0iSvfWi36iOmi17rzyyYDJooedpT01EegbqibbTzbfk9t0QOs9Y5D8lJ5usxZsGQ34VEnU/9eG30qnzcdt06gpQtY7hh206LWjafRm1JckktzyC3rsGRF3FRzPOv2DaNFd7kbS8WyxVK4hP3Y6LgkL18Prs0WOxbKHKoqug7zo6af3ds15j9vd9JNSCZxSi7ZRrnfw8/1YxhFt4g+7Zsmi+52R5a7uFsFg39qdX4mVXJJ1/tX3+f6/ReOnbChasYrR9KytcK9ydSqLBmuQvbgyM00jGGvOCWXpttrj6xz7T+QzkVL0vZpAdvKiC48f2ykZoWJ7H9et5o2e0RNJMHLMODkKrR4JN98Z169072hZifhzg+sWd9+qKboup1uRadc75u1LyBJ4z98YtPUhBSecuIdieT1Utx6e9vJ92XGW5TI3Anpl/m05/HSa606Fskt2q1mqPKLWTXCft70M5Ux863vvl+3A27mhBSpbHm1KI0LXfKeNw7ULRspQ9kYYlWV3u0o0nWRWFb9ycSe0u6xPoZTjzrXys7DH9pSRVPj52Vaqr1rdnvHeeflCRvO+B//+bpU6bdf7+2JHNf9cLa6+cc/KkUCSfVkdli9MdWOW39a+n9pEHz/6TPqydeHS+Xqhdc/PaNUZlJCKSMpy9//7WjoW0BJHb+/+TdqzcJbS3Xtp0kmv9Mje15XV777zpaqGrx8cHi48h8ybu+cu6Pvv8qihzo8ffdd6unlSxq6uG/r/1PdjEDS/zCRi0/6Gc4lIKO4JE9ZSfgEEsna5MbcSDk/+NJe2xbMrHUiuqfUvZzjd9ly5pKWyUQaWRHmpy3u5b2S4ku6GFZPvlx0Fl58kbKogWeoyY1UmnaWMT5TcqHWAxz221YC0ku85A+7a87PbpSeNw+E9rmnzo8heYRI38KvX95ro+TlAK08i67vCtbtDlvqSHKkvOuPu+sOwZXf3wzZwf9N3Mt7Ht37RqnuTV/c5DdAz/Jwd+iysTREcLmjyyHjqssWzCs9zWVmCig3A7+Rvdxuh/j4i3ODnfls+PJSW2myidgpyJKqpu1eRN9vq+jTUuULY6F2NiF78zK1lDPk9o2aD1nUd4dRLqPmttkBPLK7IdHr3SUA2SExyCSZYhDRd1GGyA7mRnNPots09x3ZwWIGA4lOVEd2SDxDM+e2NyS68yFyt+CJq8gOBqbtfiJ63dQAkB2awqjb2HmjopO+xyS7RQ8PgOjx5KVn0XUbgKgeg+zD9mxOCNEy7tXJrM8P3k3Zhiu77GpSnpopUzbl3yyehw3hMugEYE99Zxm/nzx3R997yvCnuQBYwo31etsbjejCdsoXIBHRfNTrm32LrqfZFSlngKbiK+Bm4/ghANC8aN6w6ER1AHOieZCITlQHMCSaBxKdqA5gRjQPGtGJ6gAxS95INA8suo7qg5Q/QOTIxJj+Rv9zNoRfgKgOEE80b3gFaUvQn3754PD47PYOmWFXoC4AIkFWqG0M8gHZkH4RSSlGqQ+ASOgO+gGhiK5Til7qAyB0hmpt+hh3RC9vDV2kXgBCI7QAmg35F+tWbDkFEBYND6fNpCXM30p3zMni6g7qCCAQRUfyJ8P6sLAjuqTw0jHH9tAAwVL27jA/MBvRL0oKD5CAlD2S1L0ihf+aFB6g+Sl71BG9nMIXqTeA5qXskYuuWUsKD+CZ3rBT9lhE1xNpuqk/gLoM6iciKeNE17LLRJp+6hHAFRmlinRmaSauM5m7o++485KnTgG+1y5f6QTESIekszGeEO11gOrt8sjnncQmuu5kWEu9AsTTLq+kJc6zunxweHR2e8clxfg6gIyXxxb4snGfnR5fH6SeIcXEnt1mmnWmdM5BSoml863pEb2ClYrFL5A+1sYteVNFr5hMQ088pIXuMHaLMS2iK31nW4nskAJ64+phT1QbfUZ7Xdrqx7kWwFJkGK2pU8GzSSgFHdmZEw9IbnNEr4jsXc7LANcGILnFoiM7IHlKREd2QPKUiI7sgOQpER3ZAclTIrqWveC87HOONq4jQHJLRdeyyzj7e8gOCaVXL9ZKLFkTSrFiBh1z4yFpdCddcmMiekVkb9ORnVVv0GyasgotFaJXCC8ddF1ca9AkRnQkNybDbDGxlC8fHN7PTjXQJIrOcX9U+68T0atH9k41OfxGJx3EQb8jeK+Jv3jG9JJ3ZM+pyeE32u0QZXu8Wz+jwEiypteATqGkR36Q6xEiao+vNFlyKyL6jOje5bz0kcpDWKm6mnyEsfEbo2RsqxlSeSBVT4HoFcJvc162cs2CT4pqcgNHq7Y3y9hcY3rq7ADRHTxG8e0mzHJDdKI7NB7Fu00bG0d09+guHXUFrmuwtS2eetErhO/R0Z2e+XRjTY86orvL3qZl7+F6T2Wavr1ZD1JAdNJ5iJZRLfhgGk8+Q/1P7WIjvfM5SsPKdvguNTlPPbVPBEL06cJ36ZQe4REc0REeEBzRER4QHNGNFF7WvW9RdNolkVHn2I3giB6m8CL6JsU2VkmgKIKntRcd0eMRXsbhe7T0pPXxpucyi22XSfu1Ibo9af0aonykjOj29xDpOaInIcqXpe+kREJrew/avNgE0ZE+rXIP6bY3qTmiGyn9Cv3KYprpFJ1jv07LidyIbo34+QrxCyltb4vch+SVNjeip0X8ghZ+sX61LeIXtdyIjehQIX5OTW59lddRP6fMGMIb10LLcUJeaWcjOjQW+dv0DeAnWv7y13Exqo9xLXP56xEidbL5vwADACc3gigjvJ/OAAAAAElFTkSuQmCC;" vertex="1" parent="1">
          <mxGeometry x="290" y="266" width="70" height="70" as="geometry" />
        </mxCell>
        <mxCell id="ybDbiMb5vyXETm1qi4Vq-38" value="Power Automation" style="shape=image;verticalLabelPosition=bottom;labelBackgroundColor=default;verticalAlign=top;aspect=fixed;imageAspect=0;image=data:image/png,iVBORw0KGgoAAAANSUhEUgAAAGAAAABgCAYAAADimHc4AAAMRElEQVR42u2be1SUZRrAX3Urs4UZ1G07XXa7nVMb3oC4MzjAcBkREmzcLmaaRl5Cw9TKbB0NBRFR8IK2a1lYKKLc7wNy09Aob7jV1kkxPYIcmIEZGJgL7z7vzEefznEhBd6Xc/b7nfP73/nN4/O+3/kYJCAgICAgICAgICAgICDw/4fD7AtTHGY35DlENqhBPPxewA4RfZ6/1VnnbvIs7wvEMzf5HRaH9/ktZ73Vmac5T2Fx6EnwBBYR5dVgFRaFVOpDdjRnROxXT0WsEUc0TIUoHSMuOhd8gOh8+LBviH3hwTosnnESi2bUkvAkOmc5lmxq/NknuRP77Og0RX7W5IFY4hDRUEI7OoQefPSwel5L/L6JJ34N8U+Q+NzEH8ei4HIsCirDrqsbLnnv6MRe263Cl9Aza9+VpxArIJRxKIMPPvp3vzs6Hx4MrSNy8Wshfo114oMrLOFFgcX4ucX1v/ru7Oq1xuf13anXhCXWT0QsgHCGoZpycEj2+cDRwZn8uuHDw76X960cfupFsiL811eqWvx3dZpJ8Nsp3d11NUyZNw7RZnxkQyaFfT7Y6HxwXm7Pf815AuLX8PGDVDD1JRC/ED8cWaYJ2K0zeiXpcH8G7NI1uETtuwfR5FHFr/eLIy/eYHyI3kF0bs/zU8/FJ+GrYOpvjl+AJ8qL9UF7tHou8oAGp2qPI6VyNKLJHyPOPTh+9kW9TXQq+3zg6Ke46DbhiXISvhaswWJL/AprfBnED8jHDrI8U/AedbsnhL0TQ/Zp0yHLKESTiYofnvn9h+jZITtEB45ed6sw8UQ+frU1fhDEDyzj4hdge/9sHJzScsNzmw7fjaF72+IRbSa+eEFK+RDltZlyXn7P8+um1iqEFwdX3hS/GIv8Ib5fDg7cfu0aCTkYZ6a2vIloMz7ivKL/1TL4Q3Tg6H3BbcODITWc1Vz8cmv8ABI/H+JnY+mmXy6TgENh6J5r4Yg2DrPOrBmeQ/TUHUYH5cRaIh+eTH7QcQhfDpbC5PPxPd5ruETCeSQOmabwlMtOiDYQO3W4DlFO2+A20U/YHLJk4okkPjlsrfHtA4qwPYkvzcaTl51u9E7SkmhDKtyOuoK2nX4M0QWPEr1wpmDo9/nA0UF+4kGIzllpjR+owvayvvh5lsl/am55kyRZ10uCDYeSHZ0tsvgyEaKKAo8RhdXX3T766SGIfuI20a3ye547aK0rh4tfAvELrfGlWfjR2SWt0hSdyWOrDg+nvjt0jZ4xGfcjmjwuPT4WJvzyIA7RfqfcNjovuVpWErn4KrAMwkN8y00n1xL/wRl5uoAUbQ8JREP/FN13CkXGGEQT8awzYoeZp9v73+eDjy4KruasArnwZOXIVCCJXwzxC3+LLw44ZpTt1Ojct2oxTWW7OwqoP6g5hNX/RTyjzni3+xzkg9tGtw1PDORXDh+/AMJD/OnHsJ30SG9gSmure4IWszBot2Yvoo1D6DeT7nifDxydl0w8MbCCyN3vSyE8xPfLB7n4vhlYltR0nYRgaUiqej2ijTi0Ntwa/E6iV98+ehC/52+JLysHSXxy2BZx8XMs8e0lGVga13iFBGCt4mA3XpJ2UYJoI5LXRHHBBxmd3/PW8ETVTfELrfGlJP5RS3zPj77/hexhtwS2hu3X47XVvXhdTa/5zQNnHRFtHEJqN9tEtw3ef3SQ3/OgjKiyrByRfwl32ObdEn/a26cue5AAW9gavLcLvw/x19ZwVpn0L+0sfRjRBY9yCDnx1f+OXtlP9AoiHz9ABZZx8YtBbvKnZ2N7XxL/MH729cqrXom6Xtbx/Xd24tWVZi4+7/tVxma58qA9oooSj7YPrq7pN3ogH53TZuKJpWCJNb4fuenkcfGPWeI/FlHU4pOkNbOOL9muwytVZvxBde9tXa3S/1senXIfoopL/T3iwMqLXPABo/OSiQf9S7nwRVz8XGt8CUy+z2H8kDxbM3271ugWr8Us9U7U4eUlJhK6X1eVamulUuUfEE3+HFTygH1gZXP/0VWc/Lrh4xeCZOXkwdRnQfxMS/wJARl6v+QOvSsEYCm58SzON5K9/7tcWaw5BFkov9YMKnkQouv54LbR+fDcQQsWWeNLSfxcfud7H8Iin3STf7K6nQRg7cIsA+z43jtyRU5zAqKNXUjFMzaTbiOJDvqB1pXDxc+5ZfLtvA5i/21NN1zjOjBrXz3cg9+DoHfjssyrSxBtxLIyKcS2mXZi3yFLLALzsYisHDL5fHyY/i+x35Yr10ZC/DkHu0nIQRmV/p9QRBt4UaKwROfD8wettBAk8XO5yT+G7XwysR2sHTL53sofLz8PH5614Z924TWV5iFxwafn3BFtRLKS1RCfROfCEwtAbvJ9c7Cd5CjEP/JbfOeYby+5kgCb2RqSCnf94yTeUGkyvPbPU08g2sC0p1oPWWIBd8vJBbO5+BnW+J4H8XOLahrd49nHJw9aKytM5GFrSF1VbtBEbFZNQHTBo+CJtsB+ej4X33LYQniI7w3xvdIt8R9XFDR5JnT0so7vm6TDK8pMZPqHxZWq7kthyn3jEFXg7ZG9NKfOEl9C4mdyk0/ip+FHZma1em/Vmp7f1IFZ6rVVi6OLjSTUsLqypPOso1J5L6KK9LOx9j5Zjda1Q66ZX2E7jzQ8MSBd55PY3uMCAVjqFm990FoFgWi4orijkPrfn9q57Zpg753RYef1pWXyxZI04/QkjY51fLJ6yIPWqgozVZfnqpMQbUSue56E+EZ7zwO90sTWNpfYDszaufCg9S4EYeGSrBYXRJtx03a4SuOvN42E+H8/2E1CsDQB0UaWdH2Oc2w7Zm34/i68stzM1grzFkQT2bZLHi6x7WbW8cmDVgzr+ODCL39xQ7SQxZ1/8vnY9h7nj9sxS/2S4a6vMsMXwNaozOs7ES08lSfHu8d1tLGOL9lG7vomHKMyM3Vp1o1SJJXSeWkjVR4f6xGvbXSCACwlL/OXFBjxOxCApW/nd1x4XDp/LKIB+cWhZ4LmgtPGdsxSV7jrR+Wxjx9d2NXooogSITooR0sSNCrW8eHQxwuOGfA7ZWamLi/uafecF/sIooVvUusBEoC1cw8b8AoIwFaTwS9mlyOihXRby3qnDe2YtYq0bvbxwfANR/0QLfwSm6OmwYdn7Qv79Xh5qZm5s+LL5iBaBCQ2Bo6E+PK9XfDhTcx9ObX+XUQLv/ifHJ02aIzTlBrMUv9kLX67xISjS9k67/MfU6j9iEOqvPiQ80aNjnV8SWIHXlpkxNElJqYuPHQtC7KMQTTwXpNj57pJ0zQVArCUvE9+K99Ipp+pUVmtdU8/Lb8P0eDp6ML7XDe1/zx1vQazFP4NeFGugXn8t3I7fpgS9NoDiAoKxRiPeE0d6/jOcNd//agBLys2MXVxXlezkyL6T4gSo7y2qLNYx5+2QYNfPdTDPP7SQoPeZ0nck4gWPltuJE/9hwYzFb6AF+FBaykEYOmyIpPZP+ZzN0QLSULzmikQgLWz9nfBjcfEXPmGXDmihW/81TkjIb5878iIH5lUuxDRQhr7kwf81zezju+fosOL4cMvYexLn5z/GNHCd925J+BBp3vKRxrMUp9ELdz1IUAhW1/7/PIX1H4B4xlzcjzcNtomf6TGLHWPg7t+nhEvhgAsnX+oSYVcXO6hFD/jfpeNmkbW8V3gleIb2Qbm8RcdVTc87BI2DtGAvE50jVVfmLxOjVnqrNTgeZk9+K0CE1MXZumuTJPOFyM6KEe7x6rLWccn9/2XD7GPH5XXDa8TP3wE0cIzrvUA6/hk9ZAHrSgIwFajwXsZxdeJPnHN6yd9qMasDftXF47KNzE3aF2GPwJoxY8aCfHlqZ34zXwTc0NjSxWIFt6bGgNHQvyAZC18eCNzI1Movk703viT4+QP1cZJa9WYpZKtWrww1wj3fbbO+YTi60S3zd9PgEOv0xECsNR9s+Wuzzz+K19czaT2OpEAV71S1vHhYQ/Pz2Iff156S42jo+O9iCaOH7QZQcxKJ7jrzz1iIKuHqfOOtHOvEykDEQys4k+B+/5L6T3M4y841tnsEvbuRMQCCFHMID4cum14dpoevwEBWLogp6fLbdHWJxArIMSU595vawcxNeELIA9ab+QY2ZptNEjeSXNGrPnb2rZJECYHbKPxBcj3dsLkGVmqn59jrApS5j2LBAQEBAQEBAQEBAQEBAQEKPJf9dzPvXl2+YUAAAAASUVORK5CYII=;" vertex="1" parent="1">
          <mxGeometry x="430" y="266" width="70" height="70" as="geometry" />
        </mxCell>
        <mxCell id="ybDbiMb5vyXETm1qi4Vq-40" value="" style="group" vertex="1" connectable="0" parent="1">
          <mxGeometry x="51" y="220" width="160" height="160" as="geometry" />
        </mxCell>
        <mxCell id="ybDbiMb5vyXETm1qi4Vq-3" value="Input" style="ellipse;whiteSpace=wrap;html=1;aspect=fixed;strokeColor=#66B2FF;fillColor=none;verticalAlign=top;" vertex="1" parent="ybDbiMb5vyXETm1qi4Vq-40">
          <mxGeometry width="160" height="160" as="geometry" />
        </mxCell>
        <mxCell id="ybDbiMb5vyXETm1qi4Vq-7" value="User" style="html=1;verticalLabelPosition=bottom;align=center;labelBackgroundColor=#ffffff;verticalAlign=top;strokeWidth=2;strokeColor=#FFFFFF;shadow=0;dashed=0;shape=mxgraph.ios7.icons.user;fillColor=#0080F0;" vertex="1" parent="ybDbiMb5vyXETm1qi4Vq-40">
          <mxGeometry x="45" y="45" width="70" height="70" as="geometry" />
        </mxCell>
        <mxCell id="ybDbiMb5vyXETm1qi4Vq-17" value="" style="shape=image;verticalLabelPosition=bottom;labelBackgroundColor=default;verticalAlign=top;aspect=fixed;imageAspect=0;image=data:image/png,iVBORw0KGgoAAAANSUhEUgAAAgAAAAIACAYAAAD0eNT6AAAABHNCSVQICAgIfAhkiAAAAAlwSFlzAAAOxAAADsQBlSsOGwAAABl0RVh0U29mdHdhcmUAd3d3Lmlua3NjYXBlLm9yZ5vuPBoAACAASURBVHic7N13fFvV3T/wz7kalmV5D3kmdpztbLJDQgiBsMLeFAizUGgpBcrTwVM6eArPr5u2dDADdIVdZgkkQAYjAUIG2XESW/KIty3ZGvf8/oDwQIg1rCNd2fq8X6+++iL36Hu+tnV1vrr33HMAIiIiIiIiIiIiIiIiIiIiIiIiIiIiIiIiIiIiIiIiIiIiIiIiIiIiIiIiIiIiIiIiIiIiIiIiIiIiIiIiIiIiIiIiIoIwOgFKPXNrls0AxBIJPU9o4uNsb+bfX959X5/ReRERpRIWAJRIYu6EK38DyG/iy++9PVLg9PWbH9luVGJERKlGMzoBSh1zJi47D5DfwlcLz2oh8agRORERpSoWAJQwmsT5IQ7PPLbm8mEJS4aIKMWxAKCEkZAlIY+btNJE5UJElOpYAFACiZDvN10PfZyIiNThBy4REVEKYgFARESUglgAEBERpSAWAERERCmIBQAREVEKYgFARESUglgAEBERpSAWAERERCmIBQAljkQw1GETpDVRqRARpToWAJQwQkNPqONBKUIuFUxEROqwAKDE0dEa6rDQQu8VQERE6piNToBShw6xW0D230BiLoBfhYvjdrsLAe02CX0OIHIgsQXQ7y8tLX1bYbpEREMarwBQwmgC20Idl8DJCyuX2UK1cblcwyS0DyTkdwExH8BECFwMoa12uRquVZowEdEQxgKAEkYL+t8C+r8EIICMvkycEyqGENq9gCw/WngI/MblchXEmicRUSpgAUAJ8/Ynj7sBuTVUGyHlj4855jpLf8clcHqIl9ulpp0w4ASJiFIICwBKKCnEE6FbiJHWPv/NRzvicrnsABwhXw0UDzg5IqIUwgKAEkvTHwPgD9VEQP7PvJrLjz/y381mc/j3q873NBFRJPhhSQm1ftPyegCPhWlmkUJbMXvSldMSkRMRUSpiAUAJpwntbgC9YZrla7p8e87EZecnIiciolTDAoASbs3mh/YCuCeCpnYh8a+5E67496xxy0bFOy8iolTCAoAM0SF7fg7g/chai9NNJmw9b8n3H127ahN6esJdPCAionCE0QlQ6jp24lUjdKm/ByA/2tfm5DqQnZeJ7OyML/17k7t1Z6O75YCqHCk1SAifAHp0Kes0IXbqUv+gfLx344oVK0JuYEU0mLEAIEPNm7RsttTxOgC70bkQHaETwEtC4LHSsT2vshigoYYFABnu2AnLFurAswCyjc6F6OjkbgHcYymoenT16rsCRmdDpAILAEoKx9ZcNTko9GcEUGV0LkQhbILQb1i3efl6oxMhipXJ6ASIAOBA84eNI0unPKrrqAZQY3Q+RP0oBsSycucUWdd01hpgdYjtLYmSG68AUNKZN3HZqVLiVwDGGJ0LUX8ExDOWbnnJ6tpH+FgKDUosAChJ3aXNram9AALfBDAHfK9SUhKrZGb3aevXr/AanQlRtPihSklvTs3VI4UWPAMSixyZ6Sd1d3n73S2QKOEknisb33MunxKgwYYFAA0qLlfDXz0e7zUtzZ3wenrR2/vVfYVWr/zgm6tXfrTdgPRokBIykCmglQNiuIQ8RQDjowzws3WbH70zTukRxQULABpUXK7GyyDk8tCt5J9KS0puSExGNBTNGrdslMkkbwHENQAiueKkC6kvXrt1+ap450akCgsAGlQONDeXmgPBgwi9jLVfD5omlJcX7kxUXjQ0HTv58tF6UPsrgAURNN+R3Zs5+eXd9/XFOy8iFbgXAA0qwwoLXQDeDNPMopkCv5VS8v1NMVmzafnOvjTrYkjxlwiaj+lI77ox7kkRKcIrADTouFyNX4OQj4VrJyDuLSlx/lcicqKhb07NFfcJIW4K08xt7cYIPhpIgwG/IdGgU1JS9E8AteHaScg76t3u78Y/I0oFaYVVt0Di9TDNSnwOnJ+QhIhixAKABh0hhF8K/CyithD3utzuR10uFzcbopisXn1XQJr1KwB4wjS9LBH5EMWKBQANSqVO58MCiHA9dnG5ENoul6vxOimlOb6Z0VC2ftPyekjcF7qVPH7WyEuzEpMR0cCxAKBBSQihA/IaAD2RtJdAKYT8s7uh8aCroeEv9Q0NZ7rd7pr9+/fnxjlVGmJMVvFLACEW/RFmzWaN5KkBIkNxEiANam534+US8lGj86DU8qNb/4ytH+/r9/jiU2duvf475zwupHyjuLh4oxCCqwRS0uEVABrUSkqcyyXkj43Og1LLtFnjQh73eHprIPFzCfGuu6HxoMvt/sXBpqZRCUqPKCIsAGjQKyspuUtA/K/ReVDqKC7LC3m8tbnzi/9ZAohbTUH9E5er4W+NjY3VcU2OKEIsAGhIKClx3gGJWwAEjM6Fhr68/OyQx73eoy4GaILAxUFdbna5Gn7ICalkNBYANGSUlhb/BlJfBOCg0bnQ0JaZGfqp0r5eX6jD6RD4qbuh6fUDzc2lShMjigILABpSSktL37aYTTWA/BWAr24VSKSCkunTcoE5EHzH5XKFnlBAFCcsAGjIKSws7CotKbkVUh8lIf4IoNvonIj6UQGhve12u6PbfphIARYANGSVlpbuLytx3mg2aSWQ4nIJ/AtAs9F5ER0hX0J7ta6urtzoRCi1cBIKDXlFRUXdAB4D8JiUUrjd7gppMo3RdL1UBzIBZBicIg0yzU1t+QBu7++4lFIiqhsFslwzm/8hpVwohOBEVkoIFgCUUoQQEsCBz/5HNCBzJ1xRDYh+C4DmxvZaSPEjCHk7gIkRBZWY52pouBPAjxSlSRQSbwEQESmm67peWup8rKTYOUVAXgmgJZLXCYg76uqaR8c5PSIALACIiOJGCKGXlJQ8YtLELADbInhJmmYK/DzeeREBLACIiOLO6XTusaVZ5wLYEr61OMvtdtfEPSlKeSwAiIgSIC8vr0NALkX4J1E0HdoNiciJUhsLACKiBCkpKamVAjeHaycgL9q6das1ETlR6mIBQESUQKVO5z8AbAjTLD8vL29OIvKh1MUCgIgogYQQUkDeG66dBE5IRD6UulgAEBElmJTyJQCe0K3EtIQkQymLBQARUYKVlpZ6APFmmGZjE5IMpSwWAERERpByV5gWZQnJg1IWCwAioihJKfPDNAlzeR+ABneYFjY+CUDxxAKAiChamlYa6rAAOsPG0EVruCZ2e6k9iqyIosICgIgoWlKMDHkYqEtUKkQDxQKAiChKAvL0ME22JyQRohiwACAiisLMsZfnA3JeqDYSItxCP0SGMxudABHRYGIyi1sBEeKzUwb0Xv9bicuIaGB4BYCIKEJzJl9eJiDCrOUv3nh39xPhJwESGYwFABFRBBYuvMssgtrDAMLNzH88EfkQxYoFABFRBPwttf8PwIlhmrmt3ViRiHyIYsU5AEREISxceJe5r3nfr6XETeHaCin+3+rah3sTkRdRrFgAEBH1Y+6EK6p9h/b/VQhxfATNd2T1Of4Y96SIFGEBQER0hNlTllVqAXELIK8HZCTL8eqQ4hsv776vL+7JESnCAoBoEJgz5/x00WUv1QRyjM5lqJHSJHTIYiH0UilRKSBOQQBTABlFFPHzdVsffiNuSRLFAQsAoiQ0a9I15aZg4Axo8njoYjq6MByA0KMZkyhCOgQASPHp/0dLiOfLxnb/CFvUZkUUbywAiJKHmDvhilMBcTP0wAkQ0CAFBjYqUYK8KR3dF61YsSJodCJE0WIBQJQE5k68YgGk+C2AKUbnQhF7Vmb2XLJ+/Qqv0YkQDQQLACIDTZp0WUaGbvotJK4Cv+sPFkEp8OP1myvvBu7SjU6GaKBYABAZ5NjJl4/Wg6ZnATnO6FwoMgL4WIe4Yf3mh9fFHEyTBeHmGXo8Lk/M/RD1gysBEhng2IlXHKMHtTUc/AeNvUKKay0Flces36Jg8AcgpSgN06S3pqbGp6IvoqPhFQCiBJs76eoJuh58DUCu0blQSF0S4mUAj6UVDH9l9eq7AiqDCylHh7rpI4A6lf0RHYkFAFECzahZVgwZfBUDG/zbIOCCFE0COmedKyQhpADaJYQbUu6Apn9ozR/xvupB/7DW1tbs3j7fcaHa6MD2ePRNdBgLAKKEuUuzaLVPQCLcpd/DgpB4QUA84w8GX3hv+/KWuKZHCdPr850GIMwKg3JjQpKhlMUCgChB5k7YdxOkWBRJWwG5UkjTbWu2PrQp3nlRYkkpTe6Gxu+FayekfD0R+VDq4mNHRAkwo2ZZsUVgB4CsME19Erhh/ZZHHkpEXpR49Q0NVwmJB8M0ayopdpYLIfwJSYpSEq8AECWABbgdYQd/2S00ceq6jx95OyFJUcLV19ePEcAvwzaU+AcHf4o3PgZIFGfHTrwkVwp8PUwzHUL72loO/kOW2+0uFML0b8iwGzoFAf3+hCRFKY0FAFGc6TLtIgFkhGojJO5et/nh5xKVEyVWQ0PDBAnxDgRGhWsrgCdLS0v5BADFHQsAorjTLwl5WMDVa7Pek6BkKIG2bt1qdTU03KxLrAMwIoKXeDVNfD/eeREBnANAFFfzxlyVKRGcHaqNkPjpxo1/4ZKvQ0h9fX0FNO1MAXELZEQD/6ck7nY6nXvjmBrR51gAEMWRbtbnCYhQ55nfYsY/4pmDlNLc0NAwRkptjNRkGaS0a9C4CqFy0i4FKqCjCgKTEP1TVqtKSpy8EkQJwwKAKI6EhvFhNnxZvfqjR9pV97t///5ci8V2IYRc6m5oXAAIB4SEkAAgIMPtQkMDIzHQh6v3mU3aJUIIrvBICcMCgCiOpMSoUOOBlGK9yv7q6ppHm0zBOyRwCSBtKmNT3DTqQdPJRSWFDUYnQqmFBQBRHIkwa/4LTa9X0c++fW05NlvfTyWCN0jApCImJcTeoElbUlFSuNvoRCj1sAAgii9HqINCR8zf+txu90Kg7wmJiPcYoGQg8B8NuKy0qKjJ6FQoNbEAIIojIWCSIW636xAx7ffucjV+R0L+L/itfzDpFhB3FTuLfi2E0I1OhlIX1wEgGqTc7sZ7IOQvwcF/sPBD4kE9GBhXUuL8JQd/MhqvABANQm53439LyDuMzoMiUgvIxyDlg6WlpfuNToboMBYARIOMy9V4qYT8sdF50JFEGyA7ATQAYjuE/FADXnc6nVuFEHzukpIOCwCiQaS+vn4MhPxTVC8SqIeUz0Oang+asccUCNSXlpZy5UGiFMcCgGiQkFIKd0Pj/QjzZMHnBOqhi5+UFBc9JIQIxDc7IhpsWAAQDRJud9OlEDg+osYCT0DXr+M3fSLqz8AWrVRofs2V4wPQjxcCxwDaWEA6AeQkQ25ECjgAWPo/LLsB4Y8kkD3DliWECDvj3+cLeP0+f2/EGRJRKBJAO4CDkGIHNLle0/U31mxdfsDoxGJlyCA7c+zl+Raz6ToJeTmAsUbkQERENHBivRR4FI7u5evXr/Aanc1AJLQAmDfmqkxp1n8AIW8ERGT3MYmIiJKUABok8D/Wgsr7V6++a1DNtUlYATB3whWnAeLPAMoS1ScREVGCfBSEfsW7W5Z/bHQikUrACmJ3aXMmVN4rIH4PICv+/RERESVcsQaxrMI5pf5g00cfGZ1MJOJaANTUnG8d6fQ+IYDrwEl9REQ0tFkAnFVRODV4sPmjt4xOJpw4FgB3aZ8O/vKC+PVBRESUZAQWDSua6jvY9NEao1MJJW4FwNyayl8IgWviFZ+IiCiJLSovnLqzrvmjLUYn0p+4XJafO/HKMyHlM5HGz851YN6CKZizYBLKKopQUJANa1qIR6eJiIgSwOv1oamhBfv3NWDNqg/x3rot6O2NeBfvLs2kT1+zafnOeOY4UMoLgFkjL80y2SzbAZSEa5ud48AlV56CCy49kQM+ERElva7OHjz+4Ev41xOvwdcXyRpecs26LY8uwKcLCiUV5bcAhpcecy+AxeHazZhTgz8++j3MmF0Dk5nbmRMRUfJLS7NixpwaHH/idLy3bis6O7rDvEIMK3dO2VnX9NHmhCQYBaVXAGbULCu2COwDYAvVbum5C3D7nVfAZNJUdk9ERJQwXZ09+O43f4uPP9gVrun2dVsqa4C79ETkFSmlI7AV+AbCDP6z5k3Ad/+bgz8REQ1umVkZuOe330JpeWG4pmOPrak9LRE5RUPhKHyXJgUuD9UivyAbP/l/N0DTOPgTEdHgl53jwN2/ujHsuKYLXJGglCKmbCSeW1N7DIDhodpcef2ZcGTaVXVJRERkuNHjhuOUM+aGa3bqwsplIa+QJ5rCr+Iy5D7lBUU5WHruAnXdERERJYkrbzgTQoScVpfuz9DnJCqfSJiVRRJiZqjDCxZNg/kos/39OrC9Q8fOziBcXomWPoneoLKsiIiIYuIwA/lpAsMyNIzJ1lCdqX1lBn1JaQHGjB+O7Vtr+40jIWYAWBXPXKOhrgAARoc6OGf+pC/9d5tP4nV3AO8fCsLLAZ+IiJKUJwA09Up80qHjVReQaxWYV2TCfKcZ6V/4XjvvuCkhC4D5i6b84KmV906VUqwKBk0vVlQU1Mc/+/6pLABCbvNbMdwJAAhK4FVXACtdAQSSblkEIiKi0Np8Ei/UBbC6IYizhpkxs+DTKqB8WFHI13V392ZJ4CIIeZHJHAi6Ghpel8AfSp3OfwshEj4iqpyO7wh1sKAwF619Er/e5sMr9Rz8iYhocOsOSDy+149/7PMjKIGCwpyQ7b2evi/+pwkSJwmJ59wNjZvqGxvDLqCnmsoCwBrqYIew4tef+HCgJ6nWQSAiIorJuuYgfr/dB1N66En+Pl+/SwdPFLp8zeVqeKK1tTVbeYL9SNgD+X/Y4UOHj1/7iYho6NnTpeP5g4HYgghc0tvn+6CurmmKmqxCS1gBwMGfiIiGsv09Ssa5EZpJf9vlalyiIlgoXJKPiIgouTgg5PP1jY0nxrMTFgBERETJxyp0ucLtdo+PVwcsAIiIiJJTtgSeaW5uzoxHcBYARERESUuMDgSC/xOPyCwAiIiIkpgEbqivb5qqOi4LACIiouRmEpq8W3VQFgBERERJT57icrmmqYyoci+AIaO3sQm+ltaE92tKsyJ9WDk0S8hFFQfM396B3oYGSD2xazIIswnppaUwOzLiEj/o9cJbVw/dH+MiHFESQiCtqBDW/Ly4xJfBIDz7DyLY2xuX+KFYs7NgKy0BQm9vOjBSotflhq+jU33sMEw2G+zDKyBMX92ZVAVfSyv6mpohZWLPMc1iRnp5GUzp6XGJH+jugdflggwkduc2oQnYiothyUnY4njJTYhrAdygKhwLgC/wt7ah9uHl6Ny23bAcTPZ0VFxwLvLnz1MWM9jXh/oVT6N59dtAgj+YDhMmE4pOWIiy88+B0BRdeJISTa+vQv1Tz0H3+dTEHIDsyRNRedUVSguczi3bsP/hx+Brb1cWM1rpZaWovO5K2MvLlcXsdTeg9qFH0bO3VlnMaFmyMlFx2SXInaZusbWgx4MDj/8dre9uUBYzWsJiQclpJ6Pk9FOUFW5S19Hwwstwv/AyZNCgbVuFQN7M6Rh+xaXQ0tKMySFpaBdu3br15pqaGiUfeLwF8Bk9EMDu3/7R0MEfAIIeL2offQIdm7cqi3nwiX+iedVbhg3+wKffZhv/8zoaXnxZWczmt9fg4N9XGDr4A0DHps3Y++cHlf1+PQfqsOe++w0d/AHAW+/Cnl//AUGPR0m8oNeLXb++z9DBHwD8nV3Yd/9f4ak9oCzmvr88bOjgDwDS74fr2X+j+e01ymI2vPgyXM+9YNzgDwBSovXd93Hgsb8bl0PSkLm5ubmzVEVjAfCZ1nXvwlNXZ3Qan5ISrqefVRKqt96FlrXrlcRSoeGFV5QMKFLX4XrqOQUZqdG17RN0frJDSaz6p5+DHkjs7Yz++Nrb0fT6aiWxmlauNuTW2tFIXYfr2eeVxOr8ZDs6Nm9REksF15PPQuqxb7oW9HrhfvEVBRmp0bI+iT6jDSSE6XhVsVgAfMZzMLneWJ6DLkDGfhJ76uoVZKOOHgjAW++OOY6vrQ2B7h4FGamj6j3kPXhQSRxVvAfU5ONJsp/Ls1/NFQDvweQ6xwI9HvgOtcQcp9fdAJngeTXheA8k1+e0EST0SapisQA4LMGTW8KSupIJNzJJvkl+kYqcku2DCQBk/1t9Rhcnyf5mqiZXGnoZ+ShUXWVJtr8XoCanRE+qjYQeUHOODW5irKpILACIiIgGjyJVgVgAEBERDR5ZqgLxMcAIebOd8NnVPoua3bDL0Jn5AOCzZ8GbXaw0ZkZrHcx9amaOD5RusqCrqEppzLSuFti6Y7+3GqtOZzWkpu45dnNfDzJajb+P3ZNXhkCawrUidB3ZjbvVxRugvow89GYVKI3paK6FKWDs0y8Bqx09+eoeEQWA9I5GWD0dSmMOQcqehWQBECHXuAVoHDVXaczZf7sdWtDY+2ztJWOxe+7FSmPWvPbHT4sbA/Vl5GLrYmXrZQAAhm16CeUfv6Y05kBsP+5KpQNlbv0nGPfGX5TFG6iDk09Ba3mNsnhmnxcz//l9ZfEGqrlqKg5MPV1pzCn/vgf29kalMaPlyS1Rfo5Vv7MCzl3rlMak/vEWABERUQpiAUBERJSCWAAQERGlIBYAREREKYgFABERUQpiAUBERJSCWAAQERGlIBYAREREKYgFABERUQpiAUBERJSCWAAQERGlIBYAREREKYgFABERUQpiAUBERJSCWAAQERGlIBYAREREKYgFABERUQpiAUBERJSCWAAQERGlILPRCQwWhXs3wtFSrzSm0HWl8QYis7kW1e+sUBozvbNRabyBsPR2Kf+5HC0HlMYbqKoNz0E3WZTFs/a0KYsVi+Ida5Bbt01ZPKEHlMWKRa5rOyx9XqUxrZ4upfEGwtbZrPwcy2raozQehcYCIEJZTXuR1bTX6DSUS+9sQnpnk9FpKGf2eeHctc7oNOKicO/7RqcQFzmu7UanEBcZrfXIaFX75SEZWL2dQ/YcSxW8BUBERJSCWAAQERGlIBYAnxFmk9EpfInQBGCKPSehJdfPBQDCHPudJ6Hgd6Oapug9lGw/m6p8hCm5Pm6U/Z6T7O8FDOFzzMS71iol1xlpoLQSp9EpfInNWQyhxf7nsZWVKMhGIaHBVlwccxhLbg5M6ekKElJH1e/aVppcfzNVP1d6SXL9XOllZWrilMb+flbJZLPBkpcbcxxbsRMQyTVE2EpLjU5hSEmuv66B8ufMgiUn2+g0Pld69lIlcezDKpA1fqySWCoULJgLc2ZGzHE0sxlFixcpyEiN9IpyZE2oURLLueREQAglsWJlznTAeaKa33PBwgXJU7QJgeKTFysJlT1hPOzDypXEUqFk6anQFFwBMDsyUDh/noKM1MieMhkZVcONTmNIYQHwGVN6OkbfejPswyoMzUNYzCg79yzkHDNVWcyq669VGm9AhEDhouNQcfH5ykKWnnkqik87WcmVklhkjR+LkTffqCyP7Ik1qLpmGUx2YwdLm7MII791I8yZmUriWXNzMOo730Ka09irbSZ7OqquXoasiRPUBBQaqm++0fBCW2gaik9dAueSE5TFrLjkfBQuOs7wgjR32hRUXnmZoTkMRcr+qnMnLJOhjh/z4P2quoovqaN79170NR2CHvQntGtLZhYcI6thznTEJb63vh7eA/UI+vviEr8/Zpsd9sphSCsqjEt8X0srevbtR8DTHZf4/dEsVqSXlMA+vCIuH5BBjwfdu/bA394BKUKeXkppJjOseXlwjKyGsKi/5yr9AXTv3gNfayv0YOKe1RdSwJKTDceoapjsdvUdSAnP/oPwut3Q/T718UMw2x3IqBoOa35eXOL3NTXDU3sAgV5PXOL3x2RJg62iFPby5LnCEopn/wF88pOf93t8xKgy/O8fvxlzP6UlxUo+cDij4khCg2PUSDhGjTQ6E+XSy8qU3fdMJtb8vLh98BnJZLcje/JEo9NQTljMyBw3xug01BMC9sphsFcOMzoT5dKKCuNWwJNxeAuAiIgoBbEAICIiSkEsAIiIiFIQCwAiIqIUxAKAiIgoBbEAICIiSkEsAIiIiFIQCwAiIiIFwm0qZ06yTedYABARESlgzc8PuQ9DaXlyLabEAoCIiEgBk82G/LlzjnpM0zQsWTo7wRmFxqWAiYiIFKm45HzAJNC8eg0gdQBAXn42rvnWGRg1ztjN5o7EAoCIiEgRYbFg2NcuRsnS02BvPIizhwkMq3TCYk2+4Tb5MjoK6Q+ga/duBHsSuxMVAGhWCxyjRsZnH3Mp0VN7AL6WFvWxw9E0OCqHw5KXG5fwfY2N8Na5IGXidrE7zFZSjPSy0rjEDnR1oXvPXshAMC7xQ7FkZ8MxsgoQ6u/c6T4funbsgt6X2J0iAUBLS4Nj9EiY0tLUB/9sd09/R6f62GEIswmO6hHKtlM+krfehV53Q1xihyKEQHp5ady2dfa1taNnXy2g63GJH4o1Lw/2yuEQWuyb7Vmys1BYOBbVxYndpTQaSV8A9Ozdh31/fRh9Tc2G5WCy2VBxyQXIn3f0ezsD4WtrR+0Dj6Br+w5lMaMmNBQtXojyC85T8oYHAN3vQ93fn0TzW2sAAwb/w7In1qDququUbvvatPIN1D/5XMK3ev2i9JISjPjGtbCVliiL2bl1G2ofWg5/e4eymNEyOzIw/MrLkDNlsrKYXrcbtX95GJ4DB5XFjJZmNqP49FNRsvQUZTGDHg/2P/Y3tL23UVnMgcibOR3Dr7oMmsWqJJ7UJdzPv4iGF1+GNGDwP8xeOQzV3/j6kNxh9EhJPQkw0NWN3b+739DBHwCCvb3Y/8hj6N61R0k8qUvs+/MDxg7+nyaCptfeQPMbq5SFrH/yOTS/+bahgz8AdGzeitqHliuL1/beRhz8+wpDB3/g00Ft9+/+qOybem9DI/bc92dDB38ACHT3YO+fHkSvy60knu7zYe99fzJ08AcAPRCA69nn0freBmUx9y83fvAHgNb3NqB+xbPK4jW/sQruf79o6OAPAJ7aBwCCRgAAIABJREFUA9jz+z9BBhN/lS/RkroAaHj1NQS6uoxOA8Bn1ekLLymJ1fHxx8qKCRVcz72g5KTzd3YpLSZi1f7hJnjq6pTEcj37vJI4KvQ1H0Lr+neVxGp46RXDi5rDpN+PhpdeVRLr0Jp16G1sUhJLBdczat4/3vp6tL1v/OB/WPOq1UqKR6nrcD33ooKM1PAcOIj2TZuNTiPukroAMOL+Vii9dS41cVzJ9XMFPV7429pjjtPrboDUjf3mf6Te+th/13oggF6Dr0IdyVOv5puyqm/cqnjr1Zxjfe5GJXFU6WtqhvT7Y46j4v2sktSlks/pQHsHgp7Ez/EKpVfROZbMkroAQJJdgtEV5SODASVxVNIDseeUjJfMpIKfC7pu+C2Nr1D2Xkyuv5kMqrn8a8QkzXBUfH4k298LUPPZoeqzVaVk/F2rltwFABEREcVF0j8FQERENJj07NuPun8+iQ9r9+OtjDTMmleDi69agswsdU8lqTCoC4DOohHwp2cpiyf0APIOblEWb6C82U54ctQ95gUAOfXbYAoYO9nLb8tEp7NaaUzHoQNI62lVGjNaUmhoHTZJacy0rhY4Wo2dwQ4A7SVjELSqWwPD5O9Fjmu7sngD1ZNXjt7MAqUx8w58DCGNncHel5GD7oJKpTGzmvbA4jV2MnbQbEV72XilMdM7GmBvVz+novOT7dj9q/s+n1jd0e7Hf158Fzu2H8C9990EsyV5NgQa1AVA3YQT0V42Vlk8S29XUhQALcMn4cDkU5XGnPbs3TB1HVIaM1qe3BLsWHCF0pgj1/0NRXsMLgA0k/Kfy7lrHRzvGF8A7J+2FD15Zcri2dvdmJIEBUDjqDloGD1XacxZ//gvmPyJX0jpi7oKq7Bz/uVKY45/48/IqTf2b+a3ZSo/xyo+fhX29leUxpS6xIFHnzjqU1X797jxwtNrcNaFxyntMxacA0BERKSAr7kJfc39f9H6aMPOBGYTHgsAIiIiBYK9oa8AeXp6E5RJZFgAEBERpSAWAERERCmIBQAREVEKYgFARESUglgAEBERpSAWAERERCmIBQARpRwpjM6AyHgsAIiIiFIQCwAiIqIUNKj3AkhVJn8fhAxC18zQzdaE9Bn0egEpASFgSle3OQwRAUGPB8JkgpaWlrA+Tf5eCKlDN1mgmywJ65eSBwuAJGfu60GOewdy67Yho60etq5D0IKBz4/rJjN6MwvQk1uGzuKRaCsbD1+MOyQGurrQvmkzunfugqf2IPqam6H7/m8nQc1shrUgH/bhw5BVMx5ZE2tgycqMqU+iVNHX2IiOzVvRuW07eutc8LW1QuoSACAsZlgyHLDk5SCjshKOcWOQPWE8NGtshX56RyNy67chq2kf7G0upPW0fWnnwqDVBm9mIbrzK9BWPgEdxSNZFKQAFgBJKqO1HuVbVobdYlQLBmBv/3Rby8J9GwEh0FY6Fu4xC6LeKbHzk+1oWrkKHZu2ACH61AMB9DY0orehEa3vvg9hMiHnmCmwV1RE1R9RKmn/cBMOvbUW3Tt39dtG+gPwtbfD196Onr21aHpjNbS0NOTNngHn4kVR9Sf0AAr3bkTJjjXIaK0L2dbk64Wj5SAcLQdRvHMdgmYrmkbNRv346PqkwYUFQBJy7liP8s0rP73kHi0pkVv/CXLrP0Fn0QjUTj8L3fnhB+Z9f/wrPHWhPyT67TIYRNt7G9H23sYBvZ4oFdQ+8MiAXqf39eHQm2vQ8vZa2EpKInpN/v5NGP7hC7ANcAtwU8CHkk/eQvGOdQiaeSVgqGIBkIQsfd1K4mQ17cXEl3+DuoknQshgyLYDHfyJKDGkLuGtd4VsY/Z7Mfrt5Sio/VBJn0IPwOwLhG9IgxILgCFOSB0VH79qdBpElAA59duNToEGET4GSERElIJYABAREaWgQX0LYPhHL6Lsk1XK4olg6PvkFJuM1jrUrLxfacz09gal8QZC6EHlP5fV06E03kCNeG8FdLO6Z9M1f5+yWLEo/eQtFOzfpDSmFvArjUf/x+rtVH6OpXW3Ko03GA3qAiDcoy1DjcNuw4zJ1SjKy0ZebiY6u7xwN7fho6370NqhZuLgkbIz7ZgyrgqlzlxkZ9rR1tGDptZ2vL9pN7o90X2Ym/s8yHbvjEueRhJSH5I/FwBkNu83OoW4SO9oRHpHo9FpwFmQg2kTqlCQm4UMexpa2rpx0N2CD7fuRZ8vPgVFZXkRxo8sR0lRLmxWC5rbOlHnbsGGLXvgS9IJf1rQP2TPMSMN6gIgVQwrLcC1Fy7G/JnjYTGbvnI8qOt4f9MuPPr0m/h4u5oP7LHVZVh27vGYPXX0Ufv0+4N4872teOCfK3HQ3aKkT6JUMbWmCtdetBiTxgyHEF/dmajH04tV72zBg/96A00tsV8NEkLg5AVTcOHp8zCq8uiPEnq8fXhx1UY88tRqtHf2xNwnJT8WAElMCIGLl87D9ZcugUnrf7qGSdMwe+oYzJw8Gs++9h7uW/7SgCt5s0nD1y8+CRctnQctRJ8WiwmL503CwtkT8IfHXsa/Xlw3oP6IUonVasatV5+B0xcdE7Jdht2G0xdNx/GzJ+APj72K51a+N+A+C/Oy8IObzsOMidUh29nT03D+qXNxysJp+Mnv/oW1G3cMuE8aHJJ7EqApueoTYVGTj781sor+tmvPwI2XnRJy8P8iTRM4Z8ks/Py2S2CxfPVbezgmTcNdN1+ES86cH3Lw/yKzScPNy07Dd65eGnV/iaDibyZMJuAo39KMJCxqFmcR5mQ7x6J/3x7VUa5aGc1mteC3d14VdvD/ogy7Dd/9+pm44tyFA+qzKD8Lf/jxtWEH/y9y2G24947LsPSE6RG193couEKRZO9DANAUfd4ns6QuAOwVZUan8CX2YcNijqH7fWjdsCFsu8vOPg5nnThzQH3MnjoG3//GuVG/7tZrl+L4OTUD6vPck2fjkjPnD+i1cSME7MNiX55YmExIL41sBbZEsQ8rVxInvUJNHFXsw2M/xwDAnmQ/FwDc9e0LMWns8AG99rqLTsTpiyIbkA9Ls1rwmzuvQllxXtT9CSHw3evOxKwpo8K2bV33TtTxj2TJzoY5M7n2E1F1jiWzpC4ACo8/DubMDKPTAPDpN8myc2L/ltv58TYEPd6QbaqHOXH1BSfE1M9Jx07G7KljIm4/ZVwVzjhhRkx9XnfhiagsL4ophkoF8+fCVuxUEqvkjNOUxFEhzelE3szoBoP+OE9anNAd6ELR0tLgPGmxklh5c2YgrahQSSwVTlk4FfNnjIspxjevOAV52Y6I219+9kIMLxv470DTNPzX9WfDnh76/dG1czf87bFdBRCaQMnSU2KKoVLWuLHImjCwL0ODSVIXAJbsLIz57q3KvhUMOI+cbFRffw3Sy2K/ItGx7ZOwba6+4ISjTryL1k2XLYm47Y2XnXzUyUjRsFhMuPbC2AoXJYRA/rzZqLj4AmUhc6dPQ9V1V8FktyuLORCOUdUYfeu3lN0CsBU7Mfq2b8NWUqwk3kBZCwow8ts3KivYNIsVY26/BVnjo9sQKx5MmobrLjox5jgOuy3iWwE5WRm4VMEVuaL8bJx1UpgrkVKiM4LPtbB9nXA8Ki690PCCNGviBFR9/aqku+0XD0l/k8NWWoJxd/4XvC4X/B1dCe/fZLPBPrzi0/vACnh27w15vCAvE8fG+E3hsKoKJ0ZVlmBXrTtku/LiPIwfpeZy1/yZ41GYl4Xm1s5+25gzM1F13VVK+juS0ARsxcWw5GQrj503awZypk2GZ3/dl7ZHThRrfh5sTvVXWDJGVKLmp3fCc7Aege7Ez/42OzI+vd0n1H4fseTlYtStN6OvsRF9LW1KYx8W9Hiw9/6/hmxz7PRxKMpX8348Ye5E/O6RlxDU+9+tEwCOn1MzoHlAR3P2iTPxt+feDtmmZ9de5M+dHXNfRYsWIn/ubHgP1kH3J/iRRAGkFRUiLT8/sf0aKOkLAACAEEgvK0N6ck0JiJ7U4W0MvXDNtJrqiCf9ReLY6ePCFgDzjlH3LcmkaZg+qRovr+5/M5JAdw8yR1Ur+xabSJrFCsfIEUanoZ7QlMyXSEZpTifSnGquLBypZ0/ogh4AZk4eqay/3GwHxo8qx+YdB0K2O1bhOV3qzEOpMw+uxv4XzvG6Q3/GRMNks8ExSt3vjPqX1LcAhhpfeydkmKp2dJXayWZlzvATgEojaBONcdVhriZIHX2t8flGRpRIfYfCryY3tlrtN5eSovDna3FhrtI+x4wI/bnU18K1QAYjFgAJpHtDT/4DgMyMdKV9FuRnhW+Tq3b2bU5W+ImbwR6P0j6JjBDsDX9OZ2eqPaeL8iI4p/PU3gLLygh9TuveXqX9UWKwAEggPYKlPW1pai+LW8zh/8QWxc/gptusYdtIf+LvoROpFtk5Hf58iEYkE4QjOe+jEe5zKdibHHs8UHRYACSQlDJsm1hn4g8WkfwuiJKdSJm3ccr8oCmFBQAREZECmjX01R5bBFdHE2lwPAVAKUH6/eip3Y+evbXwt7XB39kFGQxCWMww2zOQXloMW1kpMiorlS3LTBT0eNCzrxbeOhf6mpsR9Hgggzo0iwXm7CxY8/PgqK6GfZj6RxUHi3BXJkXqXAoJKc1ZBLMjo9/HaUeNS64nbfgpSoaSwSA6Pt6CQ2+vRee2T8I+JQF8+phQ1sQa5M+egaxJkyC01LhtQupIvx+t77yH1vc/QNf2HZDBYNjXmNLTkTNtMgrmz4NjZHVKLBRD0RGahtJzzsSB5X/7yrHcvEycfs6xBmTVPxYAZAwJtKx/F/VPPwd/lI8EBnt70fb+RrS9vxG2slKUnHbyp0vj8gOZwpD+AJreWI3G/6yMevnaoNeLlrXvoGXtO7APr0D5+dHvt0FDX+Fx82HNzoLr3y+ht84Fe7oFU2eMxdeuORm5ETyVlUgsAJJMqgxh+x54OOb1wwGgt96FfX95CIfWrMfwZZem1CpeFJ2evftQ+/Bj6HXFvmiNZ/9B7PzFb+Ky4mQySpXJyapkT5mM7CmTUWLxY1lJ8j7ynJo3tIzCme+fUzH4f1HXtk/wyX//DB2btyiNS0ND439ex/b/+YWSwf+LVL+PByt+tB2dSPI5I8mdHVEUgr292PO7+3HorbVGp0LJQkoc/PsK1P3zSUCGXj+fKNWwAEg2vNQWE6nr2L/8CbSuf8/oVCgJ1D31LJpWvmF0GkRJaVDMAQh6POjYvA2+9nYgzC5YqlmyMpE5fhysuTkJ7ZdiICVqH30c1sIC5Rv39DY0omvnTgR7wi8Bq5IwmZCWn4+siePDPms8EIGuLnRs2YZAe0dCl3wRAMw52ciqGQ9LltolqZvfehuNL/9HacxUlcjvJd76enTv3INgb2KXF9ZMZliL8pFdU5Myjxkn/U/ZsXkr9j/0KPydid8K+DDNbEbpuWfBeVIS7HWfQtJtVmRmpKO9qwc+X3Rbg0q/H7UPPIxxP/4hTCr2F5cS9c88j4aX/mPopWRLTjaqb7weGSMqlcVsfW8DDiz/G4IR7FURL5rVimFfuwj58+YoidfX2Ii6vz05oNfa09OQ7bDjUHsn/P7wjwcS1EwCkDoO/G0Fmle9aeikAmtBAUZ+63qklw327WfDS+oCoK+lBfv+9EDCK8Ej6YEA6v71FOwV5cgcN8bQXIYyTdMwe8oonHzcVEyrqUJutuPzY60d3Vi7YTv+/foGbN11MKJ4fc2H4Hr6eVRcfH7MuTW/vQYNL74Sc5xY+ds7sPcPf8b4n94Jk90eczzPgTrsf/BR6IEE771+BN3nw/5HHkd6WRnslcNiCyYlah9+HHqE+01omsBxs8bjpPlTMGPSSKR/tna/lBJNLR1Yu3EHXn7zA2zbVRdbXhRSw8uvofmN1UanAd+hQ9h7/wMY96PvQbMk18p9qiV1AdD82huGD/6fkxINL73CAiBORlYW43vXn9Pv1ql52Q4sPWE6lp4wHW+9vw2/+MvzaGkPf1WoedWbcJ50Aqz5sW153PCC8YP/Yb72drSsewdFixfFHKvxlVcNH/wPk7qOxldfQ9XXr44pTsemj9G9a3dEbceMKMN/XX8WRleVfuWYEALOghycs2QWzlkyC6vf2YJfPfhCRO87io7UdTS89KrRaXyu192A9g0fIW/OTKNTiaukngTY29RsdApf4m1oNDqFIemEuRPx4D03Rrxv+oIZ4/HQvTdizIjw7WUwiMZXXospPz0QgK8l/L7vidTXqObc6G1sUhJHld7G2M8xd4RXapYsmII//fS6ow7+R7Nw9gQ89qtvRdx+SInzJIBAZ5eht6CORsV7MdkldQGQ6Al/YSUgH5EySwF96riZNfjRzRfAbIrurViQl4lf/2AZhpUWhG17aO166L4Yth9OtvchENHStRFJsp9NBmLLx1N7AD17a8O2WzBjPH5447mwWqO7CJqdacdvfnglqiqcA8xwCIvlvn2SvQ+B2M6xzm3bseOeX+Ll627DDV+7B3/69dNob+tWmJ0ayV0ADDlcLeOL8rId+P6N58CkDextmJ1lx09uuSjs6/W+PnRs2TagPmhwadv4Qdg2RfnZ+OFN50KL4X135zfPG/DraWhrWbseu375W3Tv2o2AtxfNje1Y+dJ7uOMbv0NHe3IVAXwHk2G+8bWT4bDbYooxqrIE55w8O2y7jo82xdQPDQ7tmzaHbfPNK05FRozvuzFVpTj7pKF9f5gGQOqoW/HMUQ+1HOrEC0+tSXBCoSX1JMBwDg2fij5HbJO7vkgL+lCy/W1l8ah/mRnpWDxvkpJYF542B0+98g70EJcRPbWRPTkwEFIzwTVuodKYGW31yHFtVxpzIJqqZ8JvU/d8vqWvG0W731UW74t0nw997tBL/RYX5mDhrPFK+jv7pJl46pV3lMRKdkbfmgyarWgYM19pzMzmWmQ17VEas7exGYGu/ieJ7ty2X2l/sRrUBUBT9Uy0l41VFs/S22V4AZAq+2ovmDkOFotJSaySojyMH1mOLTsP9Numr7EReiAAzaz+LS+Fhv3TTlca07lrXVIUAO6xC9CTp+55aHu7O24FgLfOBamHPn8WzqpRdum+qsKJqgon9h0c+pPFjBa02pSfY+WbVyovAPS+vpDHvd4Y5iLFAW8BJBJ3zPjcqMoSpfEmjRse8rgeCCBo4GJSFH/+tvawbSaPr1Ta5+gqte/jwYwfb4MPC4AkkyrbbhYVqN1Gtbgg/FLNwVieBKCkF8mTHs4I3ifRKMpPje2AI5EiH11DCguAJCNTpIx2pKcrjZeZEX5Sl97HAmAo0/3+sG3sNgXLQn9BJO+7oSCSsT1FPrqGlEE9B8AQUsJzoA6e2v3oa2xEwOtF0OOFlp4Osz0dtqJCpFeUw145HMIU/T3uVLkCoFpk93X5CTWUSYR/ltyk8fxKJL2vD9179sFb74Kv+RCCvb3Q/T6YbXaYsx1IczrhGFkNbQCflRQ7FgBRCPT04OPbvgd/e0fYtprViuxJNcibMwvZkyZBaIIVMhENWZ9OYBYI9vWh7Z330fLu++jZtRsygkV+Yl2qmwaGBUAUpD8Q0eAPfHo/sm3Dh2jb8CHSigpRsvRUpBUWxjlDIiL1Irkyqfv8aPzP62ha+QYC3T1RxU+2pbZTBQuABOhrakbtg4+yyiWiIWvrnT/hQD7IcBJgAkV0cvAWJRENQhz8Bx8WAERERCmIBcAX2LpajE6BiCj5GHxl0uTrhaUvuTbSGQpYAHzG3OfBqDWPG50GHwMkouRj8BNMpoAPo99aDiGTb9vgwYwFAABIidFrHoOtO/orACZNQ35uZtT7ihMRDRqKvpfY0qzIcgxsEbDshl2o+OglNYkQAD4FAAAo2P9RVBuvjK0uw9JF0zH3mDGfLwUqpcShti58sGUvXn7zQ2zcsgd6mI1JiIiGMqvVjPnTx2HJgqkYN7IMedkOAIA/EESd+xBWv7cNz7/2PppaInu8umzbajSPmAFvtjOeaaeMlC8AtKAfwz/4d0Rtc7IycNs1Z2Lh7PFfuVQvhEBhXhaWLJiCJQumYOuug/j5/c9wpzAiGvQGcmtyxqSRuOP6s1BSmPuVYxaz6fPdFC9dOh//fHEtHvjnSgSCoS/xCz2Iqg3PYtsJX486H/qqlL8FULTnfaT1tIVtN6qyBA//7004fk5NRCdDzagKPPy/N+L4OTUq0iQiGjSuvuAE/PqHy446+B/JajXjsrOPw313XYPsTHvY9jmu7XAc2q8izZSX8gWAc9e6sG3Ki/Pw6x8uQ1F+VlSxLWYT7rr5Ihw7Y1zErxFGT7clIorBlectwlXnL4r6qsGkscPxi+9dAVuaNWzb4p3hP7cpvJQuABytB5HRWh+yjUnT8JNbLkLuZ/euomU2afjBN84d8OuJiAaLSeOG4+oLFg349eNHlePGy04O266g9kNoAe7uGauULgCy3TvDtjnn5NkYM6Ispn6yHOn4xteWxBSDiMgokXyZ1zSB7157ZsyPMp914sywn7la0I+spr0x9UMpXgBkNewJeVzTBC44dY6Svk48dnJEj7/wBgARJZtIdjKdWlOFqorYZ+drmsBFp88N2y6rKfTnN4U3qJ8CGLHhaQQ+sg349fYOd8jj46rLUepUs4GPxWzC/Bnj8OKqD0K244ODg4+mBzDpxV8pjZksq56NXvMYgqbw92Qjpem8bDsYRfKlftGcicr6O25WDSyWp+H3B/ttU7xjHXLqdwy4D2tv54BfO1QM6gLA1tkc1/iTx1cqjTe6qjRsAcArAIOQlHC0HjQ6i7hI7+BjrBSZMVWlymKlWS0YV12Oj7f3P9vf7PPA0epR1mcqSulbAOEUF+QojedUHI+IKFkUFWQrjVccwSOEFBsWACFk2NOUxst0DPx2BRGRUSK5BZBpH9gSv/3Gy+DnZbwldQEgzMbeodC0pP71UIIIsxlCS66bM8JiURPHrCaOKlpacuVDxjGZjP381axD/72Y1COcvXK40SkQQWga0isqjE7jSzJGVKqJU6Umjir2ykqjUyACAGRUVRmdQtwldQFQePxxsObyvjkZr+zspUlzFcA+vAK506cpieVcshgme/jlVxPBZLej+OQTjU6DCNkTJyBrwnij04i7pC4AzBl2jPne7cieyPX0yVhZEydg5M03wZqv5rHQgRCaQN7smRh167chTCYlMa35eRj7/dvhGDlCSbyBcowcgTHfv83Q3y8RhIbCBfNRdf3VRmeSEEn/GKA1Pw8jv30T/B2d8Le3K4vb62rAvgceVhaPhr6sCeMx4Z6fwdfchGBvX4J7F7Dm58HsyFAe2VZSjDHfux2+tnYEOhP/bLQlMxOWPM74puiN++/vqQsmNKQV5CXNFbFESPoC4DBLdhYs2dFtxkOkmtAE0pxDcy9ya24Ob7nRoGIfPszoFAa1pL4FQERERPHBAoCIiCgFsQAgIiJKQSwAiIiIUhALACIiohTEAoCIiCgFsQAgIiJKQSwAiIiIUhALACIiohTEAoCIiCgFsQAgIiJKQSwAiIiIUtCg2QyIKFZNr6+CJYsbSg1V3rp6o1MgGlRYAFDKaFn7jtEpEBElDd4CICIiSkEsAIiIiFIQCwAiIqIUxAKAiIgoBbEAICIiSkEsAIiIiFIQHwOklOEeOx8+e7bRaVCcOA4dQP6Bj41Og2jQYAFAKaO5ega68yqMToPixLlrHQsAoijwFgAREVEKYgFARESUglgAEBERpSAWAERERCmIBQAREVEKYgFARESUglgAEBERpSAWAERERCmIBQAREVEKYgFARESUglgAEBERpSAWAAlkNpnCtzGHbxMNizn8dg8Wi9o+zabwbyuzhW89GvwiO78sSvs0mUOfO0IImCL4rImqTy10PCFE2Lwo+fAvlkClzjwIIUK2GVZaoLTPMmceNC10nxXK+8wPeVwIgfLi0G2IBoOqYc6Qx50FOXDY05T2WRbm3Ckpyo2oCI9GeXFeyOOlzlyYNA4ngw3/YgmUl+3Awtnj+z0+a8oolDpDn2jRysnKwIKZNSH7LCnMVdpnWXEeZk4e1e/xBTPHIz8nU2mfREY4pmYExowo6/f4JWccq7zP+TPGIT+3//Pn7JNmxaHP0OdsPPqk+GMBkGC3X3MWxlSVfuXfR1Q48f0bzo1Ln3d8/SxMGjv8K/8+troMP7zpvLj0+YNvnIuqiq9+OxpdVYo7rjsrLn0SJZqmCfzPbZdgxBHvdSEELjhtLs49ebbyPtPTrLj71kuQ5Uj/yrHF8ybhotPnqu/TZsXdt/Xf54Wnqe+T4i/8DSxSKjvLjr/8/Ab85+2P8MHWvZA6MHnccJxy3DTl9+IPy3Kk4w8/vhYbt+7Fjr31kLrEqMoSzJw8KuztgYEqyMvEQ/d8Ay+9+QE+3r4fAgJTa6qwZMEUWBTPcyAyUnFhDh7+fzdhzfvbsLPWDZvVgrnHjMXI4cVx63PimGH422++jX+/vgF7DjTCnp6G+TPGYe60MXHv8/mVG7D34Kd9Lpg5HnOmjo5bnxRfLAAMYDZpOHXhNJy6cFrC+tQ0gRkTqzFjYnXC+rRazTjrxJk468SZCeszKUiJ9M4mOA4dQEa7G+a+Hph9HkjNhIA1Hb70bPTkl6M7fxh86VlGZztg5r4eOA4dhL3DDUtvD8w+L6QAgpZ0+NKz0JNfhp68CgTNVqNTjTuzScPC2ROwcPaEhPWZm+3A5ecsTFh/h/u84tzE9knxwwKASBF7eyMK976Pwn0bYPV0RPSa7vwKNI+YjkOVx8Bvy4hzhrGzejpQUPsBCvd9gIzWurDtpdDQWTQCh6qmoWX4FASsX72ETETGYAFAFKO0njaUb14J5+71gJRRvdbRchCOloMY9uGLaBgzH3UTFyNoscUp04Gz9HWjdOtqlGx/E1owEPHrhNSR3bgb2Y27UbnhWTSMmY/6CSewECBKAiwAKGWMXfUgdE39Wz7N0wGhRz4oHo0p4EPZ1tdgL8FJAAAgAElEQVRRvHMt/GnJdyXA6u2EFvTHFOPzn3HXWvit6n9GU6BXeUyioYwFAKWMSC/LG8nk74XJP7QHMpOvFybf0P4ZiQYDPgZIRESUglgAEBERpSAWAERERCmIcwCI4iw/JxMFeVmAlKhvbEW3Z+jd/7anpyE3OwN9Pj9a23ug67rRKRFRGCwAiOJg5PBinHPyLMyZOhZF+f+32I+UEnUNrVi1fjOefe19NB5qNzDL2FSWF+GMxdMx75hxX9osJqjr2LO/ASvXbsYrb32IlrYuA7Mkov6wACBSyGFPw7eWnY7Tjj/6Ko9CCFSU5OPycxbikjMX4JEnV+GxZ1YjEBw835jTbVbcdPkpOOOE6dCOsgOcSdMwuqoUo6tKceV5x+OBf67EipfWI8irAkRJhQUApYyR37wetrL+d247mp69tah94CFIPfwCP0X5WbjvrmvDbp16mNmk4ZoLT8C0mirc/vPl6PWFfs7elJ6OsT/4LkQEe9BHq7fehd333R+2XUFeJn5751WoLC+KKG66zYpvXnEqjplYje//4gn4/cGwrzGlp2PkzTfCkpMdUR+Htb23AfVPPxfVa4hSGQsAShmW3FykFRZE3N7X3o66fz0Z0eCfm+3A7350dcSD/xdNmzAC9/zXZfjOzx4Jee886PWi1+VGzjFTo+4jnOZVb4Ztk2G34Xf/fTWGlxVGHX/utDG45/ZLcce9j4e92hH0elH3r6cw5ru3QFgsEfdhyky+BZSIkhmfAiA6Cun3Y+/v/wR/e/jFgyxmE+6+7WJUlEReXBxpxsTqiLZxPbTunQH30R8ZDKJl3bth233n6tMHNPgfNnvqGHz7yqURte3Zuw/7H/vbgPsiovBYABAdRe2jj6Nn3/6I2n7n6qWYPLYy5j6vuXAxsrPsIdt079gFSLX30nv21iLQFXqi3tjqMiyZPyXmvs5eMhNnnRTZ7pAta99B439ej7lPIjo6FgBER2h8+T9oXf9eRG3PPXk2zlg8Q0m/aVYLTj0u9BbRQa8XnoMuJf0d5tkfvtA5/9Q5EEIo6e+Wq5Zi2oQREbWtX/EUOj7erKRfIvoyFgBEX9C5eQvqnopsItm0CSPwrWWnKe3/uFk1Ydt468JvwxsNz/6DIY9rmsCx08cr689s0vDTWy5CSWFu2LZSl9j314fR19iorH8i+hQLAKLP9LobsPfPD0V0ib2kKA8/u+VimE1qT6GRw4uhaaG/afu7upX22dfUFPJ4eXE+HPY0pX3mZGXgnju+BluaNWzboMeL3ff9CUGvV2kORKmOBQARgKDHE/Egk26z4t47vhb2fv1ApNuscNhtIduEu18frYAn9M9c+IWFjFQaObwYd950bkS3FnrdDdgXYXFGRJFRWQCEfIg52NensCsihaSOvX9+MKLLzEII3PnN81A9zBm3dMIto6vqXvzn8cI85ahH8BjkQC2cPQFXnnd8RG07org9Q2SEYG/occ5sSa4n71UWACG/lkTyOBWREepWPIPOLdsianv1BYtw3Mzw9+kHytvng6c3zIJAttBXCKKl2UJfhm/r6FHa35GuOn9RRHMfgM8maL4T2QRNokQLN87ZFd9Ki5XCAkCE/PrkO3RIXVdEirSsfQeNr66MqO3xc2qw7NzIvq0O1I699WGvAJgdDqV9WnNDT8Y74DoEjzd+V/CEELjzpvMwcnhxRO1rH4n8EU2iRAo3zuXkqT13Y6WwAJA7Qh3t3LxVXVdECkSz2MzIymL84MbzlF9+P9LaDdvDtkmvKFfaZ5oz9LK+uq5j7caQp3fM0m1W3BPhvIpoFmkiSqSOzVtCHi+LcAntRFFWAEiBD0Idb/9gU0RLqhIlgq+9HXv+8GdIf+jL7cBnM9a/+zWkRzBjPRbePh/+/frGkG2EpiG9olRpv46R1WHbPPnyeqV9Hk1JYS7u/s4lET1Z8X9/v0Dc8yKKhL+9Az179oZsM2K02nM3VuoKAF2+Eep4X0sLWt/lvTsynu73RfwN0mzScPdtF0f0zHqs/vr319DVE3pGfubY0dAsagsRx+iREGEmJ23ZeQBvrA/97UaFqTVVUS4X/EScMyKKTMNLr4b8kms2mzB2QlUCMwpPWQFgK6x6VwANodq4nnkeus+nqkuiAdn/yBMR30O+5aqlmDIu/iftB1v2YkUE37Jzpx+jvG+T3Y6smvCT8H7x1+fQ1NKpvP8jcblgGmz6Ghtx6M23Q7aZMn0U0tIi39wqEZQVAKtX3xWQECHLcV9LK2ofXg5I3gogY0QzizyagSgW7Z09+PF9/wr7uJ3JZkPO9NBLBQ9U4cJjw7bp6PLgrt/8M+wkRRWiKbzq/vU0OrdG9hQHkWp6Xx/2/vEB6IHQt6MWLI7PuRsLpQsB6Wb5e4RZD6DtvY2f7tnNIoASrOPjyJ8jnzo+8kvRsZBS4me/fxKHWsMv7lP4/9u77/ioqrQP4L9zZ1IILYDJlCQQSgClKKIIuBYQsK2CIhAUWV0p6ouKogsWmorLiiwqio0SehUQC1UpIaEqARKkE2oCgTTSM3PP+wewCsKcm3DvuVOe7+fjXznOeYyZuc+c8jwd74G1qv7FhwCgZvNmCIsWHy7cuTcdUxd43O3TRYW2XriKw19OQVmm54qGhOiNl5fj8NdTUSQozx1pr402dxp3fbiydE0ANqckpAOYKRqX+dNKHPlmKtRy2g4g8mQs+0Fbmd+IWnh/iP5lfq9m7vdJ2LRjv3CcJawKbPd3Ni4QxhAV313T0OlL1uHX3Z4PO+nh0uFLbeWCi3B6NW0FEHnKcnOx7z/jkZeySzi2e+8OsFotEqKqGN0/4dywvgUgVzQue8t27Bn+HrK3bqfVACKFllsooSEXrqOF16hqeDx7DpzAV3NWahpb98l4WKsZG1ONG5uiTrs7hONUlWP0xAXIydO3J8HVNIrVXi6YbhkRGXh5OU6vWI09w9/TdJaoYeModHhA/7M7etA9AdiSOvk0GF7VMrY06yyOfDUFqW+PxslFS3B+/wGU5+aBS9hjJORKFwrSdNdckOZ6FBSVYMTH8+Fyi//Wa93WCrXbGX8WAQBi+sQjJDJCOO5cznm899kiQ8sEX1KRcsGE6I2Xu1B67hzydu3GselzsPtfb+PEwsVwFxUJ/92gYCteeK07FMU72+4YUpg4eXdCQrsWz9zLOP6hZXzp6dPIXL4KmctXAQCYwqCEVjEitD/QqgO5wrNPdMC9bZtLmWvsl4uRcSZb09i83XuQ8tIQgyP6g6qhNgIAbEk5gLnfJ+KprncbHNGFcsGHjp3G+i1UUIz8wfj3BYdb0CzLk2dffASxDb3r7v+fGdaZIF8tHFCTVXUA6FLRf5erXFN2RYhe7r79Jjz7REcpcy1ZuRVrN2l/kKle3Ejrqzmr0bJpLFo0qWvoPJfKBZ/MPIeDRz3eNiYBxJufE1173o0uD4u31Mxk2LpEWtrCMlauPAEG448ME3IdGta1YcTLPaAoxpb5BYCDRzPx6YwfDZ9HFreqYvQnC1BQVGL4XBUpF0yImR567E706feg2WEIGboxkbRv6vmaxdUfgoabAYSYoWaNMPxnaB9UEXTE00NxaRlGTJiHsjL/Kl+bkZWDDyYtljJXRcoFEyKbxaKg78CH8M8XHzG8b4geDH8XLT84sTQ5NaEvA+8HgLp3EK9htSh4/9XecETWljLf+MnLcPRklpS5ZFu/JQ2LV26RMldFygUTIkukvTZGfzQAjz5h+JkY3e7PS0ujk1KnT7G4XTdyhukA3LLmJeRaXnn277i1eQMpc63YsAPL1+2QMpdZJs74CQfT5ezPy6rSSIhIlbAQ9Hy6Ez6e8iqaNo+VMaVu9bilrqMl/j4rY9PuhGcA3gTARIB7bp5MiEG6dmqDx++Xc0Dn2Kmz+OibZVLmMlNZmQvDJ8xFcYmcAl+y+jQQcjWO6BvQ+9ku+GLWMPTs2wnBwdLq/Ou2jGjYLQBPklOnHwLwcrNmPV6vYQm7i6msI4DbImy1OuWcy1dcLlogIMa5uWksXn3u71LmKitzYcSEedIeimY7duosxk9ehncGPWH4XJfKBfcb9gUysnIMn48ErtAqwbghMhxR0ZFofFNdtLi1ERo0Mul6H8NevV7KlATgkrS0hWUAfr74D06tykwCQ3tXuRulpcZ+YKYfysDI1782dA7ifewR4Rjzem8ESSrL+dnM5TiQniEcV71GGMZ88iJqhhtfgbCy9u05hrHDE4TFf5av34HWLRriwXtaGR7TpXLBA9/5CiUGf2YQ7zN9yUjD5wirGupVB/o457v1ei1TE4CrWAegvTXIAmuQsYWAqoSFGPr6RK5qYaHCMaEhwRj7rz6oVbOahIguHIz7dsVm4TjGGP7vjZ5wRt8gIarKu7VNEzzeuwMWzRbf7B0/eRmaxcWgrtP4/6ZL5YLf+e88cEGBr2pVDS4wRqSqWi3w/n8qwFodX8ubqCvMjoD4pkb1HLB4KLfJGMPb/9cdcbEOKfFU5Grcw4/didvaNjU4In30eLoTbtRw0Km4pAzDJ8yVduVRS7ngGMcNqBGADwziV/IKCgo26fViXpUAOByOjQCMbzNG/M4Ntavj0c63XfPnz3TvgI7t5JT5dblVjJwwX1NxnIaNo9Cnv/cXDLnEYlEw+K3eqK6hGM/B9ExMnPGThKgu+GePjtcs5cwYw4D4TtJiIcQQHIvi4uJ0Kw3qVQkAY4yDYYrZcRDfNPjZR9CtS5vLGm8EBVkwsHdn9Ot1n7Q4vp67GmkHjgvHhVUNxatvP+mVbUI9qRNRE4Ne76FpX3Txyi1YtzlVQlQXHvKjB/dCt863X/Y3UC0sBP8a0BUd27eQEgchRlEUTNbz9bztDABCg4M/LykrewMc4WbHQnyL1aLgjf5d8XS3e5C6/xiCgixo2aSetD1/ANi8Yz/mLEvUNPb5wY/D7qxjcETGaN3uRjz82J34YfFG4dh/f7EETRpGwRFRy/C4rBYFbwzohn9074D9h08hONiKm+Lqohqd+SG+jmON3WEXHyqqAK9aAQCA2rVr5wH40Ow4iO+yR4Sj050tcU+bZlIf/tl5Bfhg0mLhQTQA6PRQG7S/t6WEqIzTp/+DiLsxRjiuoKgEIybMQ7nE672RdWrib7ffiDY3x9HDn/gDVVHwjt4v6nUJAADknDs3HtDvriMhRlNVjnc/WYBzueeFY2NibXj2Rd8vZWu1WvDKsHhUrSq+gbHnwAlMnrdGQlSE+CGGKXa7Xfda216ZADRr1qzMrbBeAIxvMUaIDqYvXottuw8JxwUFWzH4zXiEhEirGmYou7MOBr7WXdPY2csSkfTrPoMjIsS/MOBgaHDwG0a8tlcmAAAQY7PtAmeDzY6DEJGde9MxdaG2q7n9B3VFvQZyriLK0v7uFrjvoduF4zjn+GDStzibLV4lIYQAAArdbqXHxa1x3XltAgAATqftKzCMMTsOQq4lv6AYoz9ZCFVVhWPb39MSHR8UPyh9Ub//64p6DcWJTW5+IUZ9Ml/T74uQAFfOwHtER0emGDWBVycAAOCw2YZTEkC8Eecc701ciNNnc4Vj7VF18Pyrj0uIyhxBwVYMHqZta2PHniOYvmS9hKgI8VnFnKG7w+FYbuQkXp8AMMa4025/B5w9D0C/AgiK+A4zfUshnsz7IQnJv4n3tK1WC14ZGo8wDYflfFlMrA3/fPFRTWOnLvgZv+6mml/k2kRN4SwWr398VQ7DSVVh90XZ7d8bPZXP/AadTttX4Gp7AHv0eD2rVVwCgboSkmvZe+gkvpqzStPYvgMe0nRdzh/c99DtuKujuAmQqnK8//lC5OUXSYiK+KKycs+fv9Ygrytjc90Y8D3jvFW0zaZbuV9PfCYBAACn0/mbw267hYMPBdh19f/Ukj2Wl9MKAPmrouJSjPpkgaZ77a3vaIoHu7WXEJX3GDj4MU2Njc6cy8d7ny3UVDeBBJ5yl+c+Er5WQdMTBhwEZ485HPZHHQ5Hlqx5fSoBAADGWHmUw/FhSLA1FgxvMuBgZV4nODRYOKa4RLcdB+JH/v3lEhzPOCscVyeiJl4a2surWonKEFolGIPf6q3pA3rTjv1Y8KOULzvExxQXe27vHBzq+1dpGbAJnPWx221NnU7bUtnz+1wCcEmdOnXynXb7WLvd1lhhaMfBRwNsg9aVgarVxPuxeedpeZJcbunqrfglWdyO22JR8OpbvVGtemB2n2sQp73J0aRZyzX1TiCBRfT5W903OzueBvAjOBvitiiNHQ57e6fTNpsxZsp+s89vojDGOIDNF/8ZBQCZmZmRnPMIxlh1N2NXrQUbEhYCprAfucqvuRSQX1hsRMjERx0+fhoTE7R1t+vVtzOaamibqzPOwV+GonhFFc37u7VjyxZsGJV9Lt/jHojLrWL0pwsw9T+DqGwv+Z+8As8JQLXq4o6UWjCwF1UFB3R5savgQKFFVfNLSkJP1q9fS3xlSCKfTwCuxm63nwFwRjSufYtnzgJwXuvn2XkFeoZFfFhxaRmG/3ceSsrKhWNb3toI3eLvNT6oK3FMjHI6PpM/8bW1adr3N6tV2QHA4ynIk5nZ+PCrJXj31XhJkRFvl5Pv+fNXrwSAc/fWKJvzV11ezMf47BaALjgyPP04M+u6zhkSP/Lfyd8j/YQwp0TN8Gp46V89NV0z1RMDdpWWFg+VOqkGW/fOOMcUPAVwzye6APycvBvf/7xdRljEyxWXlAlviNSJqCEpGv8V0AkAB456+nnmGa9arSEm+Tl5N35a95twnKIwvDysJ2rVkf7BVKCq7p7169f3yt4ZSbsSEsGV0VrG/nfq9ziYnml0SMTLZWj48nVDBHWMv14BnQCAc48JQEFRCR0EDHDHM85i7JdLNI3t2use3Ny6scERXQVnL0RFRXl1l53ktHofgONn0biyMhdGfbpA01YL8V+nMrOFYyJstSRE4t8COgFQFEVYiuzw8dMyQiFeqLzcjRET5qOoWHwdtEmzeoj/RxcJUV2OAVOdTtss6RNX2Ci1HOiDC6egPTpy/DQmTPlBQkzEWx3RsN0W6agtIRL/FtAJAFfFVQUPH6MEIFBNnPET9h85JRwXVrUKXnkz3oTSpHy/1WrxmY6Z29ISMhlXewMQVtj64ZftWJVoWA8U4uVEn7uMMUTFREiKxn8FdAIAiytVNETLA4D4n/Vb07B45RbhOMYYBv3rCUTKX44sURWlZ0REhE/11k1Km7GWcXyoZexHk7/HCQ1LwcT/HDjq+RxIhK0WqtCV0esW0AlA8q6ZZwB4LLuYsueIpGiIt8jMysW/Jy3RVKL2ga7t0KZ9MwlRXYGzV6Jttp3yJ75+QRGxwwEki8YVFpVgxIR5mkouE/9RUFSKoyc9bwHE1LdJisa/BXQCcNE2Tz88kZmNrOx8WbEQk7nVC0VpzmsoAlWvvh1Pa6x2py+2yOm0fW3CxLpYt26UywoWD+CcaOy+wyfxxayVEqIi3iJt/zGoqufkO65JYDTXMlrAJwCMceE67w5aBQgY38xdg117PV4OAQBUCQvB6yP6IDhYej3yw6EhQf1kT6q3DanTjnOo/QEIl1kW/JSMpO1eUdyQSLBrX7pwTOOmlADoIeATAFVVhAlASlq6hEiI2bakHMDsZRs0jR3wSjc4NHS801kZA4+vXbt2nuyJjbApdcYSzvnnonGcc4yZ9C3OnPOL/2wisHWn5/5uisLQkBIAXQR8AqC4WDIAj5eOU36nFQB/l51XgDGffytcegSADve31tTzXnecvelwODxuWfma8NIarwMQVlnKO1+EUR8vgFulFt3+7HxhMfYe8nzwOraBA1Wripu5aeW2WAK26ETAJwBJ+6aeZ8BWT2OOnTqrqTIV8U2qyjH64wU4lys+UB9dNxLPDeoqIaorseUOR+QEEyY21PKDE0sVi9obgPCXv3NvOqYuFNYSIj5s0479UAVJXovWcbrOaXG7Pfcd9mMBnwAAAAfWePw551izcZescIhk05esw/bUQ8JxQcFWDH4rHqGh12wgaQyGk+Duvhc7X/qdjTtn7Gdg/bWMnbF4Pbbt8rxETHzX6kTxxZabWzXSdU5FUcSVvvwUJQAAmIIVojGrNPxhEt+zc286pi34RdPYZ198BLENr9k80ihuxvlTTqfzrOyJZUpKnTYfHAmicarK8d5ni6hTpx/KO1+ErTs9d+UNCQ1G0xaxus5rsVi8soeGDJQAAEjalbAF4Cc8jTl8/DQOUVVAv3K+sBjvfrpQ075yu7ubo8vDd0iI6nIM7F2Hw7Fe+sQmKLC4BwHsd9G4cznnMfLj+ZrOaxDf8UtyKlxuz+/F1m2a6H7zJjc3N2CrTVECcAFnjH0nGqRleYr4Bs45xnz+LTKzxB0fb4gMx8DB3SVE9Rfr7fbIMWZMbIZdu2YWQlF6AhAWYfgt9TDmfJ8oISoiy+qN4s/XNnc213vagri4ONoCCHiq+q1oyKqNOzVVhyPeb8GPm5C4TfhlE1arBUOGP4Vq1atIiOoyWS6r5UnGWECVwUveNSWVAa9pGfvN3NVI3X/M6JCIBGfO5WH3fs/1N4KCrWh1RxO9pw7o092UAFyUlNZgPQCPnyanz+Zi0479kiIiRtl3+CS+mC089gEAePK5+xEn/84x5wzP1Y2ICMhGFEmpCV8yYKFonMutYuTH81FQFLBbuH5j6eqtwi2d29veqOv1PwDgwEldX9DHUALwP6NUAMK2qrOX0rKjLysuLcPoTxdqqi/f6vYmeKT7XRKiuhwDGxdlt38vfWIvUhIS3J8DwgIcmVm5GPvlYhkhEYMUl5Zh6SqPN7EBAPd0aa373AogLvvpxygB+BPFok6HoDRpyu9HkHbguKSIiN4+TfgJR0967P8EAKhdpyZeHtoLjDEJUV1mW3b22eGyJ/U2v/76dR64Gg9BkS4AWLspDSs3UOtgX/Xd6m3IO1/kcUx4rWq45bbGBszOKAEgF2zcOWM/OIR3wmYt0VYulniXDdv2YNkacSE9RWF4aWhPVK8ZJiGqP2HIZeA9mzVrFrCFSf5sU9qMrRzsLS1jx33zHbUO9kEut4oFPwobQ6LzQ3fAYtH/ccU5Duv+oj6EEoArKWyiaEji9t+RfsJzu0riXbKy8zH2iyWaxvZ4+j60aNXQ4Ij+igMvOByOdOkTe7FNqdPGg7FlonHFJWUY8/kiYRU54l1WbkjB6bOeb+JYrRZ0+rtRV3BZmkEv7BMoAbhCVNOCH0R7j5xzzP6OzgL4ClXleH/iIuEyIwA0bRaL7k92lBDV5TjYpCi7fZ70ib0ft1jRD+DCQki79h7F9MXrJIRE9KCqKuYsE3+O3nFXc9S5oYYhMbjdpXsMeWEfQQnAFRYuXOgG5+NF41ZsSMHh41QYyBfMXLJeU6lfa5AFLwzpDkWR/Lbg2FlWUjRE7qS+I3HHtCyAaboaOG3hWuxIo+ZdvmDJqq3ClVTGGLr2vMeoEDJiYmICet+IEoCrCClkUwBkeBqjqio+n7lSUkSksrbtPoTJC7Q1kOnR5z5ExUQYHNFfFAJq7/r169NdNg+SUxNmAhC+4dyqiuET5uHMuXwJUZHKyi8oxhQNjZ1uua0xGjQyqPw2g7AVvL+jBOAq1qUnlDBA2Hlt8459VBfAi2Vk5WDkhHma9oVjGzqN/KZxTQzsRafTKa5IRKBa8TwA4ZM9J68A74yfg/LygKqh5FO+nrcKefniLbnuT3UwMgxKAMwOwFup1Qs/E/UHAICPvvkOxaV0aNvblJW58PZHczXt+wcFW/HS0J6wWi0SIvszPsPhsM2QPKnP2pySkA5gkJaxaQeO4+OEH4wNiFTKgfQMfLd6u3DcrW2aoGmzWMPiUARt4AMBJQDXsGnTwmIwvCcal5mVi+mL1kmIiFTEh98sxb7D2op89R3wMOrVtxsc0eUYcDDIatX0MCN/uLgVMF/L2KWrtuLHtb8ZHBGpCM45Jkz5QbgqpygMTz33gJGhlIFWACgB8CS4Tv2pAPaKxs1Zlojd+6gmubeYsXgdlq/boWls63Y34oFH2xoc0V+UqqrSMyIi4rzsif1BsBXPa6kSCADjvl6K31ID+qq3V1m6aht27k0Xjru7UyvUa+AwMpQku91eaOQEvoASAA/WrRvlYsDLonFuVcWICfOQXyBsYkYMtiZpF76et0bT2AhbOAa93kN6tT8G/lpUVKS2DIX8xbqUhFwLVx6Dhq6B5S43ho2bjYPpmRIiI56czMzG57OWC8dVCQvBk/+839hgGLR9SPg5SgAEklITVgMQdgo8cy4P474RdhQmBtqeegjvf7ZIU8fG4OAgDB3dF9VrSK72B77Y4XBMkjyp39mYNnUn40yYnANAYVEJ3hg7A1nZdDPALC63ilGfzkdxifi8VK++nVG7Tk1jA1JVusIFSgA0sYK9CvAC0bhfknfjh1/Eh1uI/vYdOYW3x83W1OSHMYbnX3scsQ0Nul50bcfdLld/2ZP6q6S0aZMZ8JWWsWfO5eH1D6ZrOhRK9Ddp5nLsOSA8U4169e14sFt7o8M56nA46HAIKAHQZEPqtOOcY5iWsROm/qip2QzRz4H0DAx+dyoKiko1jX+8dwfcfV8rg6P6CxdXWHygFx7RW0lI8EsMXNNy7sGjmRj83jTaqpNs/ZY0LPhpk3CcxaLghSFPGFLz/zIMSxhj4mXCAEAJgEab0qZPArBKNK6ktAzDPpyF84X0ISPDwaOZeOW9qZo/1Nve1QK9/tHZ4Kj+ioO/HWWzibuekAr59devy10lru4AT9Uyfv+RU3h59BRKAiRJP3EGH0z6VtO23GPx96JRk2jjg1JV6h99ESUA2nHVioHQUIjk2KmzGD5+LlxuakxipF17j+Ll0VM0FRQBgJta1MfLw3pCUWS3+OUrnXb7R5InDRhbDs7OV63sEQCa7n0eSM/AS6Mn42w2XcIwUnZeAYZ8MF3Tyly9Bg480ec+CVHhqMPh2ChjIl8gu8Fqga0AAA7GSURBVPKJTzuRmZIbHdHqKGPoLhp76kwOzmbn42+3NTWjp7zfW78lDW+Om43CYm3L/g0aOfH22OdQpUqIwZH9xWmrxfJAtWrV6GljoBOZKbmxEa1WcIZ4AMKTndm5BVi7ORV33BKH8BpVJUQYWIpLyjDkgwQcOS7umhoSGozhY59DeK3qhsfFwT+tUb36WsMn8hGUAFTQiayU1BjbLVEAWovG7j+SgZLSMrS5OU5CZIFBVVV8M38NJkz9AS63tlKvUTERGPXRAFSvLvvEP1SFoZvNZtste+JAdCwrJSs6ouU6xlg8AGGmV1hUgpWJOxFlr4P6MZESIgwM5S43hv5nFnb+nq5p/POvPo6bb5XyGclVi6X/hHHj6BzORZQAVEJ0w7g1rCz4YQDC8nG79x1DaEgQWjatJyEy/3bk+Gm8OW4OVm/cqfnfia4biVHj+kv5dvFX/H2HwzHVhIkD1omsnSejI1utZ0APaEgCystdWLspFRlncnBz01iEhgRJiNJ/qSrH6E/mI+lXYf00AECHLq3Rs28ng6O6hK+Ktts/lTSZT6C16Upqf+Nz9WBxbwMgbB+nKAyT3h2AFk3qSojMP02etwYzl66v0LmKmFgbRn7YH+G1qhkY2bXwRIfd3pEx5jJh8oB3Z8tn2nIVKwBovlAeXqMqhg/qjratmhgYmX9b8GMyPkn4UdPYxjfWxbvjB8IaJOd7KAP/u8Ph0BZcgKBDgJWU/PuUo0xBdwDlorGqyrF4xWYJUfmnpau2Ytq3ayv08G/QyHnxm78JD3+GXNXtfpIe/uZJ2pWwmUHpBEDzndzc/EK89dFcYY96cm2LVoiv+wFA7To18cbIPtIe/gAO2e12cRnCAEMJwHVI2pWQyDjrD0B4x2X3/uMSIvJP0xevq9D4Fq0aYfT4gagZbsY3fwDAG9HR0eKqJ8RQSalTtysW9W9a+wYAQGlZOeYsSzQyLL+Vk1eAk5ni7fWwqqF48/2+qFWnhoSoLuLsI8YYXcu6AiUA1ykpbdp0zvCWaFxmVg71J6+EvPNFOHMuT/P4v3W8GW9/8CyqhEk/7X/JeofNNsWsycnlNu6csd/qdt0JIEXrv5OmoWId+aujp8SLLVarBW+M7IP6jaIkRPQ/mW532XSZE/oKSgB0sGl3wlgAHg97cc6Rkx/wzacqTEvtcOBCed+eT3fCK8PiYbWadra1yG1R+lGVMe+S+PusjGAedheApVrGFxWXGByRf8rNE3++DXi5G1q0aiQhmj/hbFxMTAxVfroKSgD0wpiwuEROvrCdAKmEkNBgvPbOU+jZt5O5NRc4ey0mMvKgeQGQa1mXNqkgOTW2O8DGUF0OY+RqKMjVpHms8YH8CQNOAe4vpU7qQygB0AnjEP71l5YKzwuSSujR5z60u7u5yVHwFQ5H5NcmB0E8GqUmp057JyjISofBDFBaJj7zGhoaLCGSP6gMw51OJ3WAugZKAPTCVeESExefFSSVYOKS/yUZCmP/oKV/31Ba5qKqjAZwayjMFSI3AUhz2my09+8BJQA6US0QboCpKj0f/JALXI232+10d4wENDcXH7KXugLAldcZY3Ty2gNKAPSiKsIVANVNCYDf4Wyo0+ncYHYYhJiNC77gKAqTeO+fLXI6I1dImsxnUQIgkUpbAH6FAwscjsgJZsdBiDdwC1v+Sjt8WQjuHiJrMl9GCYBEKrUH9iPsNwvDP2nfn5ALxJ9vct4qnOFNp9N5TMpkPo4SAJ1wrgrTW1WYIRNfwIBTqru8q91up8IOhFykajgDYDiGJKfN9rnZYfgKq9kBBBI6BOgHGHJdjD0Y46BSv4T8mWr+87/AwlhfKvmrHa0ASKR6wTuEXJdiqOqjMTbbLrMDIcTbiLYADF8A5exFm8122OBZ/AolABJRAuDTyhh4d6fTSZ1iCLkKM7cAOFiC02mbaVoAPooSAJ1YYRGeAVAU+nX7qDJw1svhcFAFOUKuQWGeP9+4cUsAaRbGBxn14v6Mnkg6cStceMHVCyrWkYorA2e9nE6bpkYyhAQqi1X8ODHgHFS226J0owO5lUMJgE44WJBojNVCv24fU8zAH6OHPyFiVov4C47OV6FdXGG9qAFX5dETSSdMVYU3Kiy0BeBDWA5XWWeHw/GT2ZEQ4gu0fMFxaegXoBlnL0XZbGv0e8HAQ9cAdWIBgkS5rZYMmXgDdoJBfcAZ5UgzOxJCfIVFQwKg6pYA8PecTju1+b1O9JVUJ5xBuAWgZY+MmG6722Vp63DQw5+QirBaxN8nXS4dtgA45jjs9pHX/0KEnki6oTMAvo8tBFfviYm54aTZkRDia6wavuC4y69/BYAr+IVKcOuDtgB0wqFhBYC2ALwWB35x2iN70QcLIZWjZQvApc8hwCI9XoTQCoB+GBcmU7QC4L0YWDY9/AmpPC1nnNwuXc4AUAKgE3oi6UWlFQBCSODStgKgQwLAGCUAOqEEQD8azgBI64dNCCFSyVoBYG5WfN0vQgBQAqAbTbcANJySJYQQX6QpAdDhDAC3eEPfYf9ACYBuNNwCoGuAhBA/peXzzaXPGQCiE3oi6UXDIUCqBEgI8Vdaep249TgD4ALtpeqEnkj6oToAhJCAZVHEz2VXOa3eexN6IulE0XILgLoBEkL8lLYzADocAmSMVgB0QgmAfjSsAFACQAjxT1o+33QpBUx0QwmAXjSdAaDElRDin7SdAXDpMJOLPkh1QgmATrjgFoBFUUArV4QQf6Wl2ZlbhzMAjDFaStUJJQC64cGefhpE+/+EED+maQtAhzMAqqJQQRWdUAKgEw7mMQHQsjxGCCG+SsuXHJcO3QAVVRWetyLaUAKgE0WwBRAUREkrIcR/BWkqBHT9ZwBUJi66RrShBEAnHKrH36VC+/+VoqriPUM6W0EqgoF77ProVqkpZGUoGgqdaXg7CzGVEgC9UAKgG5bj6afZeQUoLCqRFYzfSD+ZJRxTIzxMQiTEXzCGs55+np1bgPOF1G+moo5qea/WuP73Klc4JQA6oQRAJ5zB418/5xwJi9dJisY/qKqKmUvWC8fVql1DQjTEX3DOMwQ/R8KitbLC8QuqqmLGYvF7tUZ41euei1YA9EMb0zrhUDYxeF7fmvNdIs7lnEeXv92MWjWv/43gz06ezsHc7xOx58AJj+MsFgWxDZ2SoiL+gHP2q2jXaN4PScjOLUCXu29BbXqvenQyMxvzf0xG6v5jHsdZrRY0bBx93fPRCoB+KAHQSa3iqol5ofkFAKvmadzKDSlYuSFFVlh+76aW9VGtehWzwyA+JLy0+tq80PP5ADwuHa3auBOrNu6UFJX/a9o8FlXCQq77dWgFQD+0BaCT5QcnlgJshtlxBJp7u7Q2OwTiY5YfnFjKgTlmxxFoujx8hy6vw5hKX1x1QgmAjixu1/sAisyOI1DUa+DAXR1bmR0G8UFMcY8EcN7sOAJF3Vgb2t7dQpfX4pxWAPRCCYCOEn+flQFgmNlxBAJrkAUDX+kGhforkEpI3jXzDGPsLbPjCARBwVa8MOQJ3d6rjNEZAL1QAqCz5NSEieBIMDsOfzfwlcfR+KZ6ZodBfFjS7mmfgeEbs+Pwd/1f6oa4pjG6vR6nQkC6oQTAAFE3FfYDx3/MjsMfWYMs+L/Xe6DD/bT3T65fVNPCF+i9agxrkAWD3uiJjg/cpuvrMtoC0A2tnxqoffNn+wB8LIAos2PxBw0bR6Gfzt8m/sAWOR22Hga8MPEBdzZ/thcHHwfAiD+ugNOoSTSeG9TVmPcqwxin3f6O/i8ceCgBMFjr1gPCQkvKB6oK78U4bgetulRIULAVLVs1wj2db0W7u1sYWPaXEoBA165djyrsfFh/gPUC0Bb0Xq2Q4OAgtGjdCPd2ao22dzUz7L3KwD50OGxDDXnxAEMJgETtWz4dqbqVOKYwJwOvdeXPnxn495EhVYIDvqoNA0N4eDWE16mB6LqRCK3isdGiXrNSAkD+p03TvnUsVksTBdzOGb/hyp/3e6nrJxaLJdSM2LyJhSmoGV4NtSJqIiomAiEhElbnGSY47fbXjJ/I/1EC4EVOncrcD4Y4s+MITJQAEO1OZWTmQVBIiBiDAZ85HPaXzI7DH9ASlzdhkPFVlxBCfBanz0ndUALgXegPmxBCPOCc0eekTigB8C50vYUQQjygQkD6oQTAu9CZDPNwswMgPkTU+pMYR6Xnll7oF+lNOLLNDiFQceCM2TEQ38E4zpodQ6BijH73eqEEwLtkmR1AoGKMnzI7BuI7OBj9vZiGUQKgE0oAvAnjm8wOIWCpym9mh0B8COO/mh1CoFIVJJsdg7+gBMCLcEVZYXYMASovJyfrF7ODIL6Dcf6d2TEEqMKi/PxEs4PwF5QAeBFnZOQ6Bhw0O46AwzC/WbNmZWaHQXyH3W7fCOCQ2XEEHj4zLi6u1Owo/AUlAF6EMebinL1rdhwBplh1ud4zOwjiWxhjbs7wttlxBJgS1e0eY3YQ/oQSAC/jcETOAccas+MIFAx8ZHR09Amz4yC+x2mzLQDDKrPjCBQMbDi9V/VFCYCXYYy53e7yXqDlRQnYIrvd/pHZURDfxBjj5aWl8QDfb3Ys/o8vttsjx5sdhb+hBMALxcTEZDPwTgB2mx2L32KYVVpS9DRjjAoAkUqrV69eDjjvDIYUs2PxX3xGYUHBk/Re1R9VnvNiWVlZ1ctdrs8B1gf0/0ov58Exwum0f2x2IMR/ZGZmVuUcn3LgGdAXK73kg2MkvVeNQw8VH3Dq1KlbAWUEGO4HEPA9yCspCxxzFAUf2O12qvpHDHHi9OmbFRXvAPwhAGFmx+OjToNhDuP83w6Hg4qjGYgSAB+SmZlZVVVZZwANoPBoAFXNjsmrqTjLGc+AquxwOiM3M8bcZodEAsPx48erWK3WDpyxRoyzKM54uNkxeTHOOT/NuJKhKDzFZrNtZYxRrwVCCCGEEEIIIYQQQgghhBBCCCGEEEIIIYQQQgghhBBCCCGEEEIIIYQQQgghhBBCCCGEEEIIIYQQQgghhBBCCCGEEEIIIYQQQgghhBBCCCGEEEIIIYTI8f84dYfbFYZFegAAAABJRU5ErkJggg==;" vertex="1" parent="ybDbiMb5vyXETm1qi4Vq-40">
          <mxGeometry x="110" y="32" width="30" height="30" as="geometry" />
        </mxCell>
        <mxCell id="ybDbiMb5vyXETm1qi4Vq-41" value="" style="group" vertex="1" connectable="0" parent="1">
          <mxGeometry x="50" y="20" width="160" height="160" as="geometry" />
        </mxCell>
        <mxCell id="ybDbiMb5vyXETm1qi4Vq-9" value="Channels" style="ellipse;whiteSpace=wrap;html=1;aspect=fixed;strokeColor=#66B2FF;fillColor=none;verticalAlign=top;" vertex="1" parent="ybDbiMb5vyXETm1qi4Vq-41">
          <mxGeometry width="160" height="160" as="geometry" />
        </mxCell>
        <mxCell id="ybDbiMb5vyXETm1qi4Vq-5" value="" style="shape=image;verticalLabelPosition=bottom;labelBackgroundColor=default;verticalAlign=top;aspect=fixed;imageAspect=0;image=data:image/jpeg,/9j/4AAQSkZJRgABAQAAAQABAAD/2wCEAAMDAwMDAwQEBAQFBQUFBQcHBgYHBwsICQgJCAsRCwwLCwwLEQ8SDw4PEg8bFRMTFRsfGhkaHyYiIiYwLTA+PlQBAwMDAwMDBAQEBAUFBQUFBwcGBgcHCwgJCAkICxELDAsLDAsRDxIPDg8SDxsVExMVGx8aGRofJiIiJjAtMD4+VP/CABEIAcIBwgMBIgACEQEDEQH/xAAdAAACAQUBAQAAAAAAAAAAAAAAAQIDBAUHCAYJ/9oACAEBAAAAAPqcA0CYAACYwQmA0AADQCYwQpxAaBMAABMaaEwGgAAaATGmhSAGgTAAATGCEwGgAAaATGCFOAMEADAQgGCAAYIGDEAAwQSAYITAQoiAYCAGAgYSkJiYwi1OADQIVK21x4nzmJtoAAAAAAErjIZ32WyM1VYNpoU4AwQqeu+StC4gAAGCAAYIAGVtv9V70uG2CCUQYEbLjzki3YxAAwQADBADBEd5d3+tmwQSiAyON4E56YwEADBAMTBADBAe3+kHuZghTiMFbcY8gjTATQ0wENiAQAwBM2t9J8tIQSiA6eq/mTbsAABMaaEwGgAAaAF2p11XaFOIMseAed4jTATQ0wENMAQAwBNHp/qfn2glEA8z8ocaDTATQ0wENMAQAwBND+iHQc0KSBx0f82hDTATQ04AKCqgSABgCaH1z2tcIJIClyxwoIaYCaCDSp726r2RidE8iYBscgYAmg6C+hF8CnEC24441ENMBNDRBdV9mtkfI/NjzcpDYACaHuL6SZVCnAC14m5IEwAAE6ZD2X1FqjQc6cGuWY3p6DW+oKbJgmbQ+mGbQSiBZ8O8piGAAChGNPqzs8JSmWfyMh6TvTOM0lx6NuaDZX02ziCUQLHhzlZBGI0ABCnT7F6uc6s5Tr/ILG9jb2AfC+tyRNhsX6c55CnEFZcN8pypsKcCCTClGh0P3NVrXFec/P8AyRn9BffgHJfP0qjnINifTrOgpAKx4c5RUQyX0j2YCAG3LKrzGKu7qpxfx0+2d6gPhXV85zkw2R9O86CnAFZcN8oxUY7u+mAwBMaaWN8Nf3/PPz0Je1+g+XHqDhqtWqSmM2P9Pc4hTQKz4a5RjCEd3/S1gDAcQXk+SaOjdH3FVnqOkPS6w58ncXE51WGx/p9nEKcQVnwzyfGmqe7/AKXNrzljMaPXDWrPjpVubi4qSVOCnc3Ne5qSnJmyPp9nUKcALPhnk6nCNHdn0yA+bui5JFT7GVXHwHzXyN9e15kMBSup1qmK17OdRyNkfT7OIJICy4X5OhCjR3Z9MWGtcH5n5+dT9Az3G0YfTnp89lL64H5nV+fuWPhfVk5Sm9i/UDOgpwAsuF+TIwoW+7PpipEX4r5U9wdVuMksLpv1Xoctf3LWG0n6jIMXG2iasyctj/UHOoU4gWPC3J0Kdvbbs+mAAvF/K7t/qZgGG036v0eWvrmSw2jvV5IDjTRFeZJ7J+oWdQpxAseFeToU7W23Z9MGwPEfLLtvqlpxjiNO+r9Fl7+5ZhtF+uyLDjDRFecpS2T9Q84hTgNWXCnJsKNvbbr+lowPF/LXtnqVpxji9Q+p9HmL+5aw+i/XZFi4s0RcVZSnsr6h5sFJAWPCvJsKFva7q+lYAvHfLntbqJpqGM1L6r0eXv7lmG0X67IsOKtDXNWc5bL+oecQSiBZcJ8nU6Nva7o+lKYjx3y97U6fYEcZqn1Po8vf3LMNov12RYcUaEua9SpLZX1EziCSAsuEuS6cLa13T9I2xHmuDun97sIwxur/AFfosvf3LWG0Z67IsXEuhbm4lWnsn6i51BKIFjwnyVThb2e6fpCmISbYJY7WPq/R5a+uZLDaO9XkgOGtG3dedWeyPqRnUKcALLhPkqnTtrXc30bgxNEosErLXvqfQZa+uZLB6R9Xkgl80vJXVxUqy2T9SM4glECy4R5JjTtrb0X08uUAmRYFTEYX02dyt7cC8jqz018Gofn1d3VzOVTZX1JziFOIFlwjyQUra1tMn6O2hBQJ9ZXFxd5HM5L0fosvkry4FrHy+euzx3zpwV5dXNR1NlfUnOIJRAsuEeR406FC1tLa1pwRA6o3PWvMnl89n85lb25rkPnzvH3fndAcnWt3dXFec3s36lZxBKIFlwhyOqUKFtbULanTRCn6T6D5S6vsnlsvlL68uKq48+dEqk7i5urq6upznLZv1JzqCUQLLhfkCNOFG3pUaMKdMhSp727xuLu8v7++vK9eenfkxZVKlS4uLi6uK1Sc5bS+oucQpxGWnEfGEYwjQp0IxjTjChRo7++gOauLi6uriVbnz5k4epVqVLivcV61SpOT3B9Os0gkgLfjvhWKjCnCCpqNOnTtqFv6jtHqD0VStW0zxfzLXnVqV51a9epWqTcjfn0kyyFOIOjzT840lGJTElTp29vQt7eC2L67Ha3wdWpVrVq06lepUnOc1J9Vd/3yCUAcNX/J+khRSBU3SpW9C3t6VKCJVK1WtWq16lScypKUkS7164ukEogzy3zL1GJJAESnTpUaFvRpUwnOvUrVa9Sc3Nttsu/q1tCoglAY8fyjwIJABFEI06dG3hRgyc51atarVjUYwJs6O+hPoQFJAOn4z5v6diDAgEVCEKFOnEU51aspVJyYNDZnPpxuCuIU4gNWenfnB49gAhCVOChTQOVSZOZJsEBd999O5oaFOIDI4nS/BmtQATjFpKBFMHIlJjbADOdxdM+imNCmgGhYvXnK3MvnEACBqEUmBNyAYxO6332BtjO1GmhTgDBCt/PeK0xqzx2CsaDGoBEACQKoKreZj1Oxt3e/9VdyGCCSAaBBQsMfjbWhBJjBAAMQBUrXV7ksjXmhtNCnEBoEMBCEAwEAwBAMbAENpoU4ANAmAAAmMEJgNAAA0AmMEKaAaBDAAEMaaQwGgAAaAQ2mhTgA0CYAACY00JgNAAA0AmNNClIYmEW0wECYNApJiYgBiYnFg0Cl/8QAHAEBAAIDAQEBAAAAAAAAAAAAAAECAwQFBgcI/9oACgICEAMQAAAAAAAAAAAAAAAAAAAAAAAAAhsV6OPYiyQAAVa86F9S8gAAOjj+nc31WtliAAAAET5vY+Y9LiZZAAdHH9v427QAAAAAMVvivW4GxIAPsHJ9bqgAAAAAHGy/C+2AGxX9B8K0AAEqkzAAAHwvtcbMAdnD914sAADQyfL+jycvpNf6bz8tYTKIAfIOt5HaAPQ4PtnGAAKvmPT8vsER9D0fZankdvA9Xrb1As+S9TxW4Aei1/tfGSQSFVI+U9XiZiHs9P0ev5TZOrj9vpyLPk/U8RuAHpNf7VxYtpX+GdzHAQTWZrvUzx9P5to8jsnoMHq9a6YtHybqeI3gD0mt9q41bcjJ8R7ZlrIpNGV9C53Zw9Gsxo3xW6+HbplTFo+TdTxG8Aej1vtfHpPFzfGuxD6Hz/V6nNzeJ2/NbNno9bJEjpY9ulo61PQ69otHybqeI3gD0et9r5GGeLm+R9WVH0fm+U3OLmmKpXB0sfZwHTp7jStFo+T9TxG8Aei1vtnIwTxcvyjqWiH0LQ8xs8XMVnHNwdKnZ1zpV9to5YtHyfqeI3gD0Wv9s4+CePl+WdOYiff8/wAztcfKVtrWvAdLH2cB0a+0089Lx8n6niN4A9Frfa+Nhvx8vzHpTEOti0cmCSk6V7g6VOzrnRr7HT2aZI+T9TxG8Aej1ftfHwX5d/nXRuQEk61uRkuDq4etiO3h9Pr7NMkfJ+p4jeAPR6v2vj4L4Lc2+rNLVjg7HktwiCwq9Nr5qb9fU6u9XYpaPk/U8RvAHodb7ZxYnXvrW1rVUYZ+cdLSuWB28Ht9O1Nlt026Zq3n5L1PEbwB28P3ThVmlsM47Vis69tC/idzj5qrPR6/rtPZjKzU2Gel6y+Q9jx22AbdP0FwJhNbVQrOvOtbWnWvrztxsUzs9MrLXJFq2S+Gd3hZgCH23i+k1oQE1nHOCde+JVkZWeuWuReFS08zJ8F71ABDu4ft3GzUQEKWoxWpMjLXJF6lgmr491/JbYAB3tf6xyu1iRKJKokCYlIiJczN8v6XktsAAIS7WHrY81JAgASGG3Ly8XLSQAAAAAAAAAAAAAAAAAAAAAAAAAAAAAA//8QAJxAAAQIFAwUBAQEBAAAAAAAAAQARAgMEBQYHECASFRYXMEATUHD/2gAIAQEAAQIB/wC7O7u7u7u7u7u7u/7jHOn1WYTtSpmqcWqp1W9q+1favtX2r7V9q+1favtX2r7V9q+1favtX2r7V9q+1faw1Vg1UlanU2eU1yEf5TFecmu2pVVX/ulzLXnljz2GMfimzcn1EmzAP8Fsczi2XV/vOm5lmKd3d3d3d3d3d3fZ3d3d3d3d3d7Ff7NeB9pkeoWUflf8WJ5FTTx9CcnvUyZ/k6c36A/OdFqNdf8AKs1xpJ3zrZ9bVf5eCXEfIrMqn8pIj6/yaY1Mv5RHUed+Irqx7BLdhMFJU2W76aXK2cH+unM6R8pq1Nj/AAFOTgWIcb1ZbtawX++Bx05+M1amxfd3WPWiCDlqPZd6GhpdPjp9csKi2cc8MNKfjNWpx/AdtK6Z+p0N6mnjhe0Wu3W7fK8a4DjiCpPlOWpv4idKo+oF32CgVdG+A0HHLLfwHDEVR/KctTkOUUX9P7f2/t/X+39P7f1/tFO00unV19QO95r+p8U5aibDccMSVH8py1P5UdJYcG7Z2ztnbO2ds7Z2ztfbO2QW/o/nVU4IicLVLIwXwC48GzOv2Gw4YiqT5TlqfwO2nMLv9HqzBFCYFmOfRzE9gvdFW75Zk3VDsNhwxBUnynLU/c7Ppufo+1+rpWqFRq1edReNqvdFqbHqPc9SI5oLjYIHfEVSfKctT9n2K0241N48h8h8h8h8hOQ8M3QQQ+QQQQ3HDEFSfKctT0dySdNi7p9R0zNtCIN3yulg07Gm0OmQ0w9Yer/V8Wl8zARgPr4ae+vhgFZiA3HDEFSfKctUEdztpsUC73HEvAL1hK09xrwDwBO6uKkqWoFChwu0iTHCeGZW/cb4iqT5TlqjxK02T8ckIWlHO5KQZRlqHjcFTGBDhqIhxfEFSfKctUOBJOmp5ZIYVpTzuSkKUpah43FUplocNREDxw9UnynLVBOS5RWmy6gXd3yMhaUl3d36rkpClKWoeNxVKpaHDUVBODvh6pPlOWqHAorTbnkaC0r53JSFLUpQ8biqVS0OGo6Gw4YeqT5TlqhuUUVpsnd3d8jQWlid3d3uJkKWpSh43FUqlocNR0EEOGHqk+U5aobFFFFab88iQWlvO4KQpalKHjcVSqWhw1IQIIQ3w9UnynLVFHcorTdFDjeZPg2BWflcFJUpS1DxuKpVLQ4akobBBDbEFSfKctUUdyitN0U/V1dXV1J+rq6up3r1JUpS1DxuKpVAhw1HmBDcbYeqT5TlqkjsUUVpyjF1dXV1dTv1dXV1dXV1VsUkShLUPG5GnUCG4WSXEbDYbYeqT5TlqnudirHdaatd3d3d+rq6urqBrqmSJQgEKHC+TKcQcM2vkKG0O4WHqk+U5ap7nYoqjuRy/wAw8y8y8y8y8yhzOXdu4CvhroauColQyoZYhUKHDIp0kQb3y/Xa7hDaHcLD1SfKctU+RRRDMzNthld/ESRKglQS5cuXDCIUENzENTLffROrMivOqFZXwoIbDhhypPlOWqe53KKZmZmZrNc6UiTDJhlQS4JcEMIhUPDVnKkzABABBDYcMNVJ8py1TGx3ZiGbp6elmbDMpEoSRKhlwy4YYQAENsyzCrqmZgAAIUENhwwpUnymrVGA7HY7EMzMzMQQRiOc0VQJYliAQgDaEZfqJcbizN0gAAANsOGBw0vymLUyVudiGZmZm6SCCCrPfbHqvQXLoYCIXjP8k1STN0szCFghsOOnEqmHxjGfUvNmZmZiCCCGaCKlzKHU6fqLV3UBmAAA6enpYBDYcH0vkSB8Sr1Sxy/k2xBBBBBDHZgEAAAwCZtm2bdtNaKUPlWy81tv0ZFFEEGEhmYQiEBgGZk3xkU9looR8p0GeWPdmZmbgxTEFEEMzAMzANs3Mb6d2aklfMqukZjYPmyZkYWZmYBhD0smTfG3W2xWqCH6TZd8tF6s34mZm4N85MnEMXp5X2nyb5Y77jX0Yj5N87dbsWxCmpgPvNkVttvmA19pT/IjmzfBwqeRZsBtNikUwH4Y4J1FU2uvweo05m6fx4T4h4n4p4p4p4p4p4p4p4n4n4p4n4n4n4n4p4p4p4p4p4p4oMRhwuXgUjTmj0+obJIoIJX5TLipoqI2423tnbO2ds7Z2ztnbO2ds7Z2ztnbO2ds7Z2ztnbO2ds7Z2ztot0NBBSiUB+pmZmZmZmZmZmZmZmZm/7p/8QAUBAAAAQCAwYNEAoBBQEAAAAAAAECAwQFESJRBhIgITAxECZAQVJUYXKRkpOxshMkJTJCVWJlcXN0gYOjweEUFSMzQ1BTgqHRojREcMLwZP/aAAgBAQADPwHAPUR6B5A8keQPQPAP/jstEgVoK0FaCtBWgrQVoK0FaCtBArQQK0FaCBWggVuFi0cepSBEG2E3zi0tlasyTzi5yDxLmLJnYisYucb7RUS75G6OcSsu0goo/KaSDGtLVn5XR4q998h4r998h4r998h4r998h4r998h4r998h4r998h4r998h4r998h4r998h4r998h4r998h4r998h4r998h4r998h4r998h4r998h4r998h4r998h4r998h4r998h4q98GteWLLyOiA7uAiOOQkKzrtxTf7SULmYiiiPJG44k0iEjCph4hp0vAWRggWpSEpkaKYt+hWs0nGsxNoozRANphEbPtnPkIyOWa4mIdeUezVTq9xlRKbWbai10nQJ/LaCW99Jb2LuM+MJRNjJpavoz59w5mPyKBGKdRJQkzMyIk4zMzxERA6VwknVmxKis/EDj7huOLUtZnjUo6TP1/kkxkxoZiDOIhqcx9snyGIOaQyH4V0nEK/wDY9QpQkzNRERFSZnmIgubLXBQSzTBEdZRYjdo+H5PGyCL6tDnShR/aNayi/sQk4g24mHXSlfCR2HkC0SBAtC9IKxyiFX6Uouh/f5S5IY8r9XWzp0PF/wBvUEPNpWlRGRlSR206BAtAtAsKgIkkriIo+3Kq0VqzDjzi3HDvlrUalHaZ/lRvwy5c8qlcPjb3UfIUkWUvSMHFTVEChX2cKnHurV+VrlEzh4xJ/drr7qTzhLraVJzGVJevKJZQpw8yEmo/24wuMjIiIVnecUvh/K6cRg42RQtJ0qbpaV+wYsliH0WQx66aDNq8L9wxalvc4IwVpalO8jYfYrQsvWVAOjJYheSI0/qRCC4MepKM4mc6SmIiTODhTzGZfaL8hawualpJvYNLyy7t2uYg2yoRDMpLcQQlEak0vwEO5Ta2Ql76FLljpwy/01VkH/Qj5RE/R4xk21/wrenqO8nMQint4fomKmSqjrCDRbEGfAnUiIpKJtMW75FPWzKtfwz+GFAz6DVDRSdao5roO0Rclj3YOJKug8StZSdZRaivbo2vDZcIVSyVUfZwBeG4eozns5hYLuFKvnT8BOcIaSlCE3qUkRJKwiw0x0p+ntl9tB591s8/BgRsze6jCMqdXr2J3xh9SSOLjCQexaTT/JiBoqxj9NtBGJrBIU4wZRKE573ErgBpM0mVBlnLXLJUXSwX7y/xFQsliGOXe11GS4qZRZljQhtpPrxnkExUM+woqrrS0H6yBtLU2fcKNPBoRM5mDcKzipxrXsE2iElcMiGhWiQks9qjtPRxhuPZXFwqCKJbKk6PxC/vJaZYDfK6IqFkqorS72uoy+iTQtfq6ObIVgSo+KMteIc6WgliVKijKvEuHj8FGIsGgIl88eSgqEO0OILfZHTJL9+roioWSqitLva4ZJznQGtkQb2RBvZkEbIg3s0hGyII2SQjZEEbIgjZEG9kQaYnERCG4XXTNXfIyCJXJ46MUf3LCzLfHiIU6BFc5LaP0CwkfWMFRnOHOnhyOmSX78+iKhZKqK0t9thRMwi2IOGTfOvuElJCRSVhN9DoiYiiu86m+Mz3Kcwlu04fk0iW7Th+TSJbtNjk0iW7TY5NIlu02OTSJbtNjk0iW7TY5NIlm04fk0iWbTh+TISzacPyZCV0f6KG5MhL2lktEKwlRZjJsiMgjYkEGXakCarpza5YBhKlNySHXTeK6pFGWy7lHq0UxUl+jd3CrMqPBVjLBMzoCI6fvXh0oYImk/tz5HTJL9+roioWSqivLfbYSVXXwdOs08f+OoOtnKbBToX2IhCyNtcHLlpej1YjUWNDG7uqC3XFOOLNS1qNSlHjMzPXPRdkcxREJrNnVdRsk/IQsxhkRMM4S21FiMuY93AakkMqHZVTHOpoSkvwi2St0U69NNuR0yy/fq6IqFkqory322FpvhPMv82QMGDwkSySx0YtJrSwyazSnOYudMiNTUYj9pH8RKG0n9GgIl1XhmSCF0U5QplK0wbCs7bGIzLdVhTKSvdUg3r2ntkZ0q8pCGUmiNglpPZNHfFwGLn0ppS3FqOy8IhHxCVNwDBQpH+IdZfyDjrinHFqUtR0qUeOnJaZZdv1dEVCyVUV5b7bC03wnmX+YY8CUQbhtREfDMuF3C3CIxIO+kHyqRc/32guVIXP99oLlSFz/faD5Uhc/wB9oLlSEg76wZ+1IYsDSfOvRD59CjK4shpll2/V0RULJVRXlvtsLTjCeYf5tE9DTZE+aZ6AKwhuENwgVhArCBGtGIvvEc4+zTvSwHo65maQzN71R2HNKb46CppF0x9xDcqLqT7mF5UXV7CE5YXWbCE5YXW7CD5YXW7CD5YXXbCD5YXXEXaQnLC6Rld442wk91wXRn3MPygul2MNyoum2MNyoul2MNygul2MNyguglzRuOw5LQWc21X1HqyGmWXb9XRFQslVFaW+2wtOMJ5h/mwbnptFqioyD6o8oiI1XxliIXI97v8ANX9i5eDksxiGIG9cZhXFIVfqz6ElnkDGuR8L1ZbUQSUnfGVBXouR73f5q/sXIkZH9XZsfbqBFwYHY+J3nxyKXoNau6aK+IxThMy2eLSyVCHUE7e2X2fD0yy/fn0RULJVRWlvtsLTjCeZf6OHpdm3obgxEOxsy9KT0cPsfE7z46GbD6wifNmMRYXZtn0VPPh6ZZdvz6IqFkqorS322FpxhPMv9HD0uTX0NwYvUOxsy9KT0cPsfE7z45HrCJ82YqlhdnGfRE8+Hpll2/PoioWSqCtLfbYWnGE8y/zYelya+huDEXkHY2ZelJ6OH2PiN58cj2PifNGMRYXZxn0RPPh6ZZdvz6IqFkqgrS32uFpxhPMP9EY8LS7NfQ3BiLyDsbMvSk9HD7HRG8+Ohmw+x8T5oxmwuzjHoiefD0yy7fn0RULJVRWlvtcLTjCeYf5sPS9NfRFjEQ7HTL0pPRw+x8RvPjoZsPsfE+aMZsLs4x6Innw9Msu359EVCyVUV5b7XC04wnmH+bD0vTX0RYxEOx0x9JT0cPsfEbz46GbD7HxPmjGbC7Osehp58PTLLt+fRFQslVFeW+2wtOEJ5h/mGPCeipPHw7Kb5x2HWlCbTMXU7R94j+xM5NBRjcaz1JTj5KSVJKxUbmH1hEbz45HrCJ80YxFhdnmfQ0c+Hpml2/V0RULJVRXlvtsLThCeYf5hjPDLIdYv73I9YRPmzFUsIlXQpSXcQjZHz4emaXb9XRFQslVFeWe2wqLr4TzL3MMeiQIECBaBAgQIFodZvb3QzYdEvifNg70sGkyBTWex0Uk6inaEb1FUsPTNLt+roioWCeDVFaW+2wlSSbwscRUk0uuVqTxGIaZQyIqFcJ1leZSfjYFboPdCrDCrDCrDB7oVYYVYYMGDBgwYT1LqKTpUrtsj1OWuWrUlJDEWCmSyhbaFdcxaTQ2VOMi11DFh6Zpdv1dEVCyVUVpb7bDmMtO+g4p1g/AVQQup76xPGF1PfaJ4RdV32ieEXVd9onhF1ffaJ4RdX33iuEXV994rhF1JLSaprEmRGRmVImTzaHExbhpWklFjtE0207wiZbac4RMD/wBwsRuu+sRSi+9Xw5KlTDBb9XwGbAl9z8J1eLVWP7pou2cPcKzdEZO45yMilV1YiTrITrJLIaZpdv1dEVCyVUVpb7bUBRsAcKo/tIbNvDzZZDaFOOKvW20mparElnMS+OmUQ5GMLbbU4fUVorFeFmpISKNSRsTCHVTrGq9P+aBD0U9XZot6okXPwBGcRMoYjLWJd+f+IYQlTcphjWr9d4qCLyIEbMolUTFvLedVnUr4ZHTNLt+roioWSqitLfbagck8waik40liWm1J6wYjIduIZVfNuIJSD3D0dzJFBQX1FCr+3iUkqKMu4b2H7tAtAsnpml2/V0RULJVRVlx+G6Wofql76HFn1o6rEr9JX9GEqIjSZGRlSRlk4S5GAvqUuRzpH9GY/wC6twRMdEuxMS6brzyzU4s9czy9N08DuX/RFQsliHWcEr/6Fl/Gon5HewkbS9Ba2ya8m5uCDmMMiJhHkPMq7Vaf/YjyBmdBEJZc0lcNC3kXMKO0I6UNb8/gI6bRrsZGvG8+4qlSz5is1BfXTw2424f8CoWCeDVF9JkL2EUn+S1FjE1kL/VoCIU0fdJzoV5SEsib1E2YXCr/AFW67fBrCWzVslwUWxEEewWRnwAyzkej1NNK6hWqql/IuTkpKJyNKJdL8GHrn6zzCezlC4eC7Hwqs5IP7RflWMdNuPDx5K/n61bCGV/JipksQ6vc/G+ASXOKeWLDW2u+bUaDtSdAuqgSvWZvFkmxSr/pC7dGL6yp8rSBds/iOcPJLwCSkTOYHTFRsQ/uLcMy4ARajpiI9/cbR8RQksliBRUK+wrM60pPCQU0tSFdsgzI/VqzHhY8kbEkS4accQ6pfqzEKElk6SH1fPXlUUIiPtU+U8/5W5FxDUO0VK3lkgvWEQcKwwjtWm0oL9ooLJ3yQqYS1S2ypehqVo3S1y/KzioxcycTUaqM77XP1C9SWVpIzByiPN5tPW750l4KtcvymIm0a1CMFWWeM9iWuZhmXwjMM0mhttNBC9LKkogxHwrjDyKULL/xiKkkWbLuNB4216yi/J3oh5tlls3HHFUISWuESeHpVQuIdxur+BbgvCLLUglpENMYdbD7d8k+EvII2TOGqg3WNZwvj+Sxk1iCZhW79Wufcp3TMQ0oTffevqKu6fMkEggRZekEvWCXCURppI7Q06anYJXUV7A+0P8AoTGWKvYqHUjH22dPD+QvxbhNw7S3lHrIK+EXEmlcwX1JH6SMaj8p6whoBpLcOyltFhAkEQoLURKBL1ghZUGgjKwxKIqkzhupqtbqhP4EYstxaaeYTdNN4+wvhIXQo/CaV5HBdCX+0p8iyF0O0VcZIug2irjJF0G0VcZIug2irjJF0O0VcZIui2irjJF0W0VcZIuh2irjJF0O0VcZIuh2irjJF0O0VcZIuh2irjJF0O0VcZIuh2irjJF0O0VcZIuh2irjJF0W0VcZIui2irjJF0W0VcZIug2irjJF0G0VcZIuh2irjJF0B/7P/NIuhV+A2nyuEJ2vtlw6P3GYfP76N4iP7EoZoNxDj5ls1fAgxDIJDLKG02JKgEnWBFralIJMJMICbAVgKwgQKwFYCsBWArAVgKwFYCsBWArAVgKwFYCsBWArAVgKwFYCBWBNgTYElrBKdYgktYUar3AVgKwFYCsBWArAVgKwFYCsBWArAVgKwFYCsBWArAVgKwFYCsBWDcBWf8e4sLHo48HNlceji0ceji0ceji0ceT/AP/EACcQAAICAQMDAwUBAAAAAAAAAAABESExEEFRYYHwcZGhILHB0fHh/9oACAEBAAE/EJckuCWS4RIl0SyXJZLhEuRNibkl0S/gl0SyXQmyyXRLgkS4JsSyXDLJckuGSyXBIl/JLkl0S7JcEuiXZLkl/JIlwSyXCJclkuESyaEuCRLgl2WTo2+jjTfXcQjg/RxpwLTj6Ofo3120/ZvrtrufvTbXf6OPo513ybZO5srO+4trObFnJtk2VizkXqLORbWd9jizubqxb2bZN1Ztkec7G2TmzubOzub5NnYvU2ybuzvub5OLObNsnFnNm+TvubqzbI/U2Vm+TubKzucWbZFnOxtk3dm2RYybm2myvTi9N9NkbiFnJxZXOxGMkFCaJRKrJKgldcEqNyVeSUSoeSUSp3JUPJKJUbkq8krrklTuSqySrySoOMnJKnc776babI302WnFm2dNjnSuSLeSK3yR6kUs5EvXIli2RnIleWRW41SyJXliXrkw8sTVWyEucE0yVyNpbnU0GD6AAyfQAFgozoKM6D5BZnQdQoEoqyUKJi8kqcupH1MzuxqlkS5MjORqlkazkjGSKy8MSvfBFbkW8kVuJVuRe5FbkdGRSpkdHkSxTIzTErwyBwoySmZNy3gaEqrRPdkNGmMufxIbtNF633DJvjTZD7dCdmKf9xP+4n/cT/uJ/wBxP+4n/cT/ALif9xP+4n/cT/uJ/wBxP+4n/cT/ALif9xP+4n/cT/uJ+H6HviP9DMJL0aKFvltRezIM/eRqq5sP4FDDadEtyKJ3IIpZIzTIxTIrDEujwRW5GaZAl0ZFkUQRSIIwQRZSEoScsck4Zi9vsbIvsk7u6FkIG2lVGPYhSS+mnAtOPo5+jfXbT9m+u2nJLnTOXI0tEpxk+U0O1iX+qyQ5+9E1hZ57SMkoyQRgiiCKIyQQRZFEEUiCMEZHCEb+a4sg2+CEjJ5W5SPbqS3lPPXMQd3oj9F0WXQpLLosssuyyyy5LLLgsv5LkssuCyy5L+jCMiGfy525LC8pp2nwuzEjSogjBFEEURkggqSoKKhFFUOpgase2hBW2+CPnewfGESkQkSCQhRDjYhRAhQkIEKIECBCyBAgQkTTRKRCCBDjchJAgQggQISQ43IEIIaM6FhhInM6ETLTws8LQyaZVFQUVBVlCFTgqMHoJgqJ4bkqqEMhWKuNw28ziYnSpFAoKo/RVaVQo0qvoq/oqRQWCZ2KjT9lTrUa1J+9KjXcTXA/Wx+DOE67hOJyDlIkpjJxQnDAnw2KjBuooT4FSVGkqFgVvYiTGB1SaZ3p/bI4CxPLctlllyKRSXRfwXRZdCksuiyyy7LLLLkssuCy/kuSyy4LLLkv5LLgssudGpyN5Jpry3b1KXlAnRK6YKgq8FE+hUlQUVCEJ5UEwiVHCcv2RxruIRwfo404Fpx9HP0b67afs31213P3ptrvq20klJy4L7JXbyklCiCioKsorTb6HuwxOEjb7DEpZJ65XwWWWXIpFJdF/BdFl0KSy6LLLLslkllyWWXBZfyXJZZcFllyX8llwWWXJZZEWinT7jEj7HXD4HlX0151m8E1gnoTSoew9dMGLl0iKPTsbYN8C9BZwcUdtjijscUL0OxxRtgZLJJFAuTZJbTUlknPVWJtJ/ckkkl/IjijmjbBxRzRvg7bnY2wdjbBvg7G2NHp2N9HMOyzwJ9CawTmjsT0JvBNYJ6E0qRE7eC+4frNg3LN9j2Nlg32F2FnY4we2DjB7HGBdj2H2JcYG3wTWBhorbJIhoi655fh6jUzk+/vR09kv9kL7SRMj3STFBLLT29xLsvCTw8q53US80Jk2S+NO2xxg5wb7Htk9jbY9jZYN9j2Nlg5wTTBTR1SPOzDE42JrBOaJ6CfQucFxgvg2VDX0Y5L4Jc4ZLJZLnDE2Jsl1TJfDwS6pksl1TE2SyXVG2BiQzdidttSo7f2Ey+xHQ3xpCpxgSZtmhdOrNs6JQ1fqEMhEpE8UQrolkkvgl8EslkuMMlkslzhkslksg+PsMk3pCmcFxguXRcYFMYJsmiRujIjNc/ES0313EI4P0cacC0ZKMsbcjbjsOvM7hX+/AoovXFBInTf6E2yJulbce/Ym4JE3VscVNtUIe7KRvhxQG/FPmW9kThegjjXWI7D8MTTOGiXyyXLGeu/0PuRK95mTegJk0Tkkk3NtHgeHJF9fx031WcCngUzguqL42Lqi+C6oU8Fxgl0PBKCXBLOaHfrSZjbkZwzsbYJP6YiZnSMzjL1eBFwUU36Xl/XCE0DUs5jbuyN4JYqluiFihWEu3KDeai8CkuCWSN8ayT8bLRLODY5rTsXJcFlwZfRnx/vWizq9tEcWd9ji9OL07jQ5jsOUyRwJbe1+huZBFXE5WTuYGCefgwrMru2mNZG9VEu86RRGibZNZVoiVbhFmvfREaZa2eI5HwxJlwXeCyH0021y+h8H70ZMe2u+kHGj5cHF75BRtjH+uf0D+uf3h/644/zj/1z/TkR+hrmXiujAU4LUJyhCwQ0rTumPu2hMkvLt+rFVDcxl9d9NvogdhHpnGpaZfR5vkfDFpzrclwWOYM9bHwvuWjO2k3sLcNexL3b4WWLfuRgxoh41+DxL8Hj34PFvwePfg8W/B4t+DyL8HhP4PK/wN3RLzgeDWfRoaQkfpQ2yb+wsjanHAX6SlBtJO8KNxe+PgfAbIUS4HBnLv1Gltg4o5FAEm24gvbXbN5/cTESnTLB2NsHNHluRPHsKS4LssUm+TbJ30z+h4XVDiHpRCipIvpxc7NB3EjJXwSqJRKoTRKJVEolEolWSigngKYkswTZIbb2Quzjh/UF2UMkYO2aWzdslMRVi4HKPyOTn9TunZNUp7iD7hhlUP7BCaTbM0ttLe8vqxlGwoGUvBRCdash42RDsCybZObO53LnJcZL5L5MvoNHofchvJMDShsaJqxBWbEyfsTgkkUkCKEByiTcSSNj2AkhNUpHcqMHIbb/AL9iWVH8kcU62LLuZy3uLAsLVuZXMXom/cVd/wBP4U6Ir/LbJjXqf29gz4pjJnltvSVENWRDQWZRJJOTyXI6DApnJcZLuy+RTyQpyQoyQuSoVkJeh8T7kNpDRwShtUXgZMrKQUH6JQhkCbQ6alOGMeX0Jprpw6Y4TWxNNGohqUTpUMj4OJdLGEI8kZKhZEJqEexJvpK5E09xk0YF5UQgTRKIy9ash4WRDsCSnJCjJCuyOokuSLIoggyWeR1Q1EjaEInwRAYzonltohYpn7Ygr4kJX+gh/iR2HBH+BCrbuguI2Hr+wm3uNtbl0ybYubYuWQMDjY04DuBLb0CLgyxO9C6I3bJ6UYLx+hPjxegl5vsJHj+wkFZ3W17ouchplSIQ0PInO5tk5sbwtxe7Y3IojJBHUi9yK3I9SKRlKeTKGUPRjJjaUiGBm9RAWMdfKTCwx8Yy2M4hCqnbE5Sa3QjcwqUo9mdOZJxJZJzpytxNCSUJIkui0WE1Y63K/EO2/wDB4gaWq+NNSGyHJxFcjjrIWYWUVcknIlMkWQ17jvbMzO88ixi+VU9EQmhNCyMkiU0cnn+R8cS9SK3IzkgS9SFJCghEKEQn3PA6ocQykOIG0pHQ6HQE0UOCUShfrn8Yr4ldG0SiikShl5dhA0SIWgjIokUFTpVvJSsGTRCGVJ+xUU8uxFvsIVMQmkiFjT5dhY9ISRCghWQiEVJUFFQh79x58mUPDGNwhAoQekT04JGSD4A/m7dNxujkTJG8vAbBgjYZiyI3+jYWMGbn70deDkITE0JqRMk5PF8j4AoKgq8FFcIqSo0mkTkS7X3IbQxiGzQ7QzY7R1sm1BKfgbNRyEdojV5NfoG4cUS4Gfm2EqGdDtwTkUyKS5LJgs4CZKGXJfyWx48W4xOMDGxNsUl2S8vIl2CbKgq8FE+hUlQUVCIyPhfiOIY0huJLjQPJhuWYjvscWdxZyNSESV8Cptk7m2Tm9JG8XAvBGBCERkUSKCp0gDCBEhDKk/ejVc/fjCcojL0TFcni+RDsCiSoKsoomyaJNjOL7X3oeGMyepQy2lifhE+FgnVInwic4QzP+MO/IxJxhE+ETjCJ3SJcIktkOfmwEhoxGCMxZEb6hw0cGbn70z/OYzGoZyKxC3PF8j4AmTROSSehUlQUVBCfofG+9DiGQSIECA0EZUsTJXwSqJRKGkuPaRFedUlEolEqyUNodPx4EJRGBCERkUSKCpKIAwgRIQypK+Sh48W5QUIiyEMUFWR8vIh2BQVBVlFG+5tue5ssmU+F9yGcMbY9LPQF3MZwj3wcZPc9x/GZRJ4SliRCNS7vziqpuzbc9zbc5yPCLGa/E6DaJgWIMxZEb6TROVpwZufsYz8TMdiwtDMm0cjvwsj4ws7m25u8m24pjcm8MmsMl8MeFTMuTyuqMHnTnOnuGZFiUYslzsSqyXJ6izmSeolOSUZG3JKMkrsvuIPKPNmayYrJsyZ7izuLG5vucZOuNEFYMHk33PfIxvc97tsO+ownjIh63Jd5PFcjqsCbnDJrDJcumTWGJuMMucFxgvguFROZLw7olA5JQSJDSGxvWRdkDBodQWlR50HoGQdFiXmRTVz+ZeiBDYTkUyKS5LFvvkl3aQqQaZQy5L+RIEpXl4XVklhrzi4kmKSbFJKC7JeVkS7ApnBcYLui+BdBN4JrBPQ2VGejx+qLGYYHocPdQ7OEWDxNiYb2jkt0X49h08eDF9g/kGL7AuP2s/kD/wAg6Y+PTz0KTA86UClgKJzCWzG8DaogihVGD0nbc3xotV/dJyNJFVabjIaSn29dOsalYVaEXBKzzXI4GwneCawTmiehPQlyS4JZLhGc8fqtHJgPS7W48v8AzIz1WD/EB/58ace3H/mz+XP5E/kR634LDSctMc6hVsSRTFey31LK39x2JHchjJLbbbblt22QwVixBgtPfc304rT3aEer3Y1KOfswtjkJPLYWJ7Fa6wr0KY03HiuRyNhNkuCXZLJem2sZkPPuhxYx4GPfXkUjWRqO7NojQ4LpWkjy8rXR3rcEEMGMVKCJCSvkqRc9xmFWwUd/pVW+sYjtl9slFbtB9zZB5vZkMBWV3MJzlbUx0TCS+hLC0LAirIeFkQ7AtOdYckOCGXCM55XVaMlA8D0yHJDLLu9K05iaZDTxndhCKwd+TryU4ggcxIyhGQEJShY0LOD9jLHGAXs+oMnyp7HqfuxdUhKIiUInGNKwjNiEc0eK5aZJkOCHZDIZF5IrJHUilZk9D0T8BHcfqYDwNMcpIpCIyevYZYdhaLUaIXN2pzNeeu+LKesE08NPdNCkxQsQiFlOikGeRu8m+oZWWsOykly2W85vhEWerRXkTGlgYEoFhWZsQvUnNi9+/IpcJXkiskZsjqR1LnJcZL5LjIrmTx8e4no3yI4HJIhrYmIDLUZdxLovFmRKBuvOU8z83neEXnlqVezWeRCcFKaRBsQPBLsJCE6E1htvCt0O8fgrj3Vlougy+0mEWyWrAywQiRMEqFSsiThUJOFQjliksudOeVqjYUzkuMl3ZfIuoi8sissh8shwsiy46KdyejkMucsvqbMkGCmZEZI/A1kiZ4N5LSXJExGsCTkvjPD6F1Y00NnLeZUHOUu4MkT4SfDUEZRsIlHpKt6R3gim2SSmvjDFNpSJdXxdiJZnLZs28vMt7iR4FgKWnMjJQFgIkhbFoudxasjszupDozwJOcsisshy7ZFZYk4yzfc23Pc2WRzd7EFStQTuyMZPcabghp6Qt0Ox+GvCSF1pKkRIqcC5GsjRLgTlK5Tj+sqxVTGIpfIUJFju4xC2lt9tQ7Sp37vHAoaSUekCWKErFoSmK4PQZCsJZVCKoSQj1b7nuKkNEPj8Iv3cYlmhd8G25u8m24pjcqSoKKhCpuZJJ+0habSKeU2ggggiYIgRFkP4IdEMdhJEIS9G0vLRDUFREQpIcCBJRoITEiEISiFwQkgJKBCgTSIiRQIsgghTmCBdM3vMLBwKCoKsooiyKIIpESTbqkOR5M22PZisgbSglSNiOD9HGqRIjBGcCKSwsNwoGM9Y0hcwJJkVJAhwQIUokJOULTYklChsggdlS1cvBAD6gpIkiL2IsiiMkEdSpKgoqEKJFPGJ3oeR0117lDUmQghsPwNg6KFpsIPYaTIjIinAhrAmD0ozwj0oSJEhJwJWkIRCEUQoNhBFkffSo0SkSGUVSi5herG4bZMN8YUnEVgooqCrKKKkqNIULAhZRTixcobvTPyqOET0JvAn0E7wTiiemxOKHJdCkkWN4zsNhqiKx0wOYzloowKuCVCgkhCGTLJFlyX8llwWKibwJ9ByT0ynsoWCOUa93y31bFo0hdMFQVeCiPQqSoKKhYK5WSFVod9ytZz5TWEfKFXt5p+NivVHB+jjTgknR47DGqGsjVEMYzMcCCpYEpIIsSQtZ03P3pt9C4FFdt+luyMsQiq5XSCK0CirKjYrlYKgq8FFcolSSoJRKhEolUOJIclAkVfTi3lthtXLrzHTibJ876KCqP0VWlURpVFQQEQRb+jfVYEfsSMUVpUEaVJ+9KjTKpWNn+no9kkJWLpHbg2Qn0IYFCglQSiVBKslEom9ya3J9SaWSfXInjJOcjSyEbkJqINNImmmLvOzcz7sOcCglUnogm/UQlkslksl/S1K1II6kWQQbCoer6LJZLLkljYk1yMxU0nWnsS/Rpp/oMYRU1w5fVvI+oEqROck4yTW4n64JrcnOSRP1JsmiSaRJOCROymJsF01wx5c+USvkbIWOZ23tglt8Gj8h6ChMXDiHxDzE9TH4l9xeZfc8y/J5l+RxeF7ngH5PCPyNufI6nh35PDvyeXfk8O/J4d+Tw78nh35F4p9zwj8ngH5PIPyeZfk8y/J5h+TB+5H5M2QLE/UPsUMVVyvzsS3tmuewQ4Hjr8C9NqzOpIlCxpJOCaJJonJJPQlTglRglcEqFRK43E1VEq6E1OCeg4hUNM7Qpwi3aUjWyF8IO7BvCzCFxDpDFQ6Q6Q6QzUOkOkOkLsDpDpCrA6Q6TJdgYqGahVgYKQp8BKaqcQKoh7CaAX4CEwSpwT0JUKiVwSqolRgTXGxKjBKuiegmuC5wXGC+C4VF8bimqLuhTOC+C4VCmcCngUzgW1DU7bDStEuRWkmI1B+1Kjm02p6JcamEWo5j80uOIZhUMQhYuERhbkdC4wOeC4VFzgvguFRfBdUXGBTxsXGC7ovgU8G+DbB2NlR23OKOaN8HY2VG+Begs4OKO2xxR2OKF6HY4o2wdtjbBzR2NnR2N8Gzo7G2DsdtzfBxRzRtg4o5o3wdtzsbYOxsqN8HY2VHY4o2wdtjbBzR2OxclwWXCL+RTRdimSy4QpkUimRTRfwXRZdCksui4HPwXBdllwyy5LhikuCy/kuS6LsuC6LsuS/ksuByXCLksuEWXRcCn4LguyxTpt9HGm+u4hHB+jjTgWnH0c/Rvrtp+zfXbXc/em2u/0cfRzrFshe4hEKF66JKiFYkoGw1SElAS+4kp7CSohfBC0QpQln0NiFKIrSFHZHJCoSp6NIJUxJEKWkL5IQjBGSF7iMEZIQhfOkUGkNUhJaGqRCs4IUdnpFEKWbaf/EAEsRAAECBAEFCgoHBQgDAAAAAAEAAgMEBRESBiExUXEQExYgMjVBVJGyIjBTYXJ0gZKi0RRCUnOCobEVMzRAYiMkJTZDRFDCYGPB/9oACAECAQE/AP8AnwQdCgy0zMOwwYMSIdTWkpmTtbicmSjHaMP6oZKV53+0Pte1DJKvdU+Ni4JV7qnxsXBKvdU+Ni4JV7qnxsXBKvdU+Ni4JV7qnxsXBKvdU+Ni4JV7qnxsXBKvdU+Ni4JV7qnxsRyTrnVHe8xPybrTM5kYp2Z1GkpyX/ewIrPSaQgb6FfxVNpU5Vo29S8MutynHMGql5H06Sa10y0TUS31xmHsUOFCgsDGQ2tYNDR48hrwQQHX6HtCqWS1KqIJELeYv2m5hdVigz9GikRhjhk+C9ozDarjxFKpseqzkOXhZsRu532QFISEvTpdsGC0BoHtJ1k6/wCTjy7JmC+FGwvY8WII0LKChvos4Wi5gxLljkDfjWLsyyQpYkqc2Zc0b5NND9g6P5Wu0xlUp8SEQMTRiYfOEQ5ri1ws5ukcaUhOmJqDCbpfEa0e0qExkGFDYwWY1oDR4rEFc6vzCzjSCPEn9cxWUMs2UrU5DaLDHcbDxsnWb5WpJp6YwPu5/FVGoS9NlokaMb2HgM6XHUFUK/U6g43imFD6IbDYBCLGa7E2K8H0iqRlRNyLhDjkxYLjYk53N2KFFhxYbHw3Y2OtZ24SALqxHKFuLpza1lrDDazj8pCaeNkoAa7KA63n4b+JcbC9rrK6aMep7zc4IDR2nOTu2WR0498tMS7iSIRBbscosSHBhGI8gNGkqbrkzGcd6sxvaVCrE9CNzExjUVT56FPQcQ5Y0t1cRvKG1ZdC1UgeeXB/PjZJj/HpPa/uHdzdKxNGlw2XWNmtY2a1jZrRiMTojDcX6FlGLVWM45sYa4D2WXgnp3cjmPvNxQPBOFp9irsV30ZrG8l7s+7Q3uhzwa36zTdXG63lDasu+c5b1Yd48bJPn+T2v7hVtyozLpSQmY7OVDhOcPYFGnZ2YiOfEjxCXZ+UVvsfy0T3it9j+Wie8Vvsfy0T3it9j+Wie8Vvsfy0T3iiXu5T3OOsm6Y4tIQudDSVAlo01FbDhMJcVS5MU+UbAbp0vOsqoQHTMvhbpabhG4v0W1rRpVClnCIZlws3CQ3z3TTdXCCAzjasvOc5b1Yd48bJPn+T2v7hV1dVtxNJnR/6H/ogMw2BWTZaZcLiDEsdBwkgr6LM+Rie4V9EmfIxPcKfBiw+WxzQdFwQrKA0PjQmnQ6I0dpTcn6eH3cHO2lSsrLyowwobWppsFcKPJy8ybvbn1jModMlGEEtLtpTLBoAFgOhMO605wsu+c5b1Yd48bJPn6T2v7h3HEhVok0uc+5egP0Cc04SqblbT5KSl4DoUZzocNjSWhqpFYgVmHFdBY9uB9vCAU7lZISM1El3woznQyAS0NsspqzLVl8sYMOI3e7g4gBp2LCblMJhvY8aWvDh7EMo5/Thhe6fmhlJUB9WD7p+a4TVLVB90/NcJqlqg+6fmpSvzMy3O2GCPMV+1prVD7ChWZsdEPsPzVLqr5mKYUVoxWuLIE7gGcbVl3znLerDvHjZJ8/Sm1/cKCeVWObZv7l6DR+QWFGG06QFkN4EpOEeW/8Aiyjht/bc4LaHjuhBgGhYU4WCC6N2mmwdt3aLzjf+ghNKumnOFl5znLerDvHjZJc/yv4+4dx6rHN03905Nb+gWFFqyKFpOd++/wCoWUTQa3OfeDuhYVhTwLcWnaHbtIzT49EphO43lBZec5y3qw7x42SXP8r+PuHccqtzdNfdOQA/IKyICyL/AISb9Y/6qv8APM36be6FZWTwMO50btO0P3aT/HN9EppKam8oLLvnOW9WHePGyR/zBK/j7h3HKrc3zX3TkG37AsCLMyplXm6U14gsYcZuQ4Xz2spqNEnJh8eJbG83NlgWBRG2bxadodt3aV/HD0CmJqbygsu+c5b1Yd48bJLn+T2v7h3HKoQ3xpSNDaLlzCEyB0HMW5it4863jzreUIC+jlbwVMsbDZnQFuJTR4Ltu7RoBxOjdGgJiam8oLLvnOW9WHePGyT5+k9r+4dx2lP6VEloTnEua3sTpWB9gdiMtA+wOxfRoH2R2KvShbLtjQswYc9kY0a/KPahGjfaPai57uUSeISpaVjS0EB8PSLo4naFLU+JHcC8YW9OsqDCYxrWszAJqGhN5Q2rLvnOW9WHePGyT58lfSd3Nw3snC6exOYixFiiwWxGFjs7XCyqEg6RjuYeTpaVa24N2jU4x4wmIoO9t/d+dywJkNMYmNTNIQ0oaRtWXfOct6sO8eNk08Q63I+eMR2oopwuE5mZGGixFicxTUpCmmGHFYC09KnaFMyt3QrxGJzHsNnNwnVuMhRYxAhNc70RdU/J57iIk0bDohjp2qHCDQGgWAFgFgKbDTIaa1NQR0HYsuH3rIGqXZxpCLvE7LxfsRWu7CgQ9gIN8Qa8disrIsCwItARaE9icxOh3KiSkB48KE121CmyQN/ozOxQ4DYf7tjWgprCmQ01iwINF0GbgWm41rKWY+kVubN7tBDWnXbTxiCcwNlktUxUqTDxEb7C8F2uwWrzoqxVisN0WBOYnMRh50YZut7QZmTYZTWLAsCwhWKA3KvUGU2nTEckAhlm+k7QojnRIjnuNy43vt4xFwqBWItHnhGBuyJZr29AGtQZiBMsEaE8OY5oNx0HilEFFt05mdFiwBYAgzMFhVircRzmsBc44Q3OSfq+crKuv/taa3mE7+7wDYf1u6T4jN0i6omUE5Rn2b/awic7CVTK9TqnCBhRWtd0sdmK2ZxrC2Z1hcOgqx1FEHUVhOorAT0Fb35it78xW9nUVgOorCdRVjqKsdRVxrC06DdVCr06msJjzDAR9UZ3dir+Vc1VrwYN4EvqHKftK1ZvEkXV3Bwc04XDpUrlFW5RoaycfYdBzhMy2rDRZ29P2tQy6qg/0Jc7QVw8qnVpbsd81w7qnVpbsd81w7qnVpbsd81w8qnVpbsd81w7qnVpbsd81w7qnVpbsd81w8qnVpbsd81w7qnVpbsd81w7qnVpbsd81w8qnVpbsd81w7qnV5bsd80/LisnQJcfgUxlLW5i95stB0taLX9qdEiRHFz3FxOm+f8A8e//xAAxEQABAwEGBAUEAgMBAAAAAAABAAIDEQQQICExURIUM3ETMEFSYSIyNIFAYCNCkaH/2gAIAQMBAT8A/oBexurgEZ4m/wC4P7XNQ+rlzMHuK5mD3FczB7iuZg9xXMwe4rmYPcVzMHuK5mD3FczB7iuZg9xXMwe4rmIvcEJGHRw8ySVkQqSpbU95o3IIl51dXz6uByco7S+Miv1BRTMlGue3kyyCJhJUkjpXVP8ADEj2Oq1WaUSs1z8i1Sl7+EaD+JWihk8N4Nclt2xPPCxx2CJq9xPr5XbNUdsfK0UD+OMHFOaRO+WnyoozK+iZZ441QbKazteKjIlOYWZH0vphKshrFitPRJ/XlWVobHXUm8aq2N+prggKuomRMbqKrwmbJzC00w2Lp4rV+O7uq3gOPouE7Kh2VCu4K9dDmNlBnGKVywWylGqEDirfPTgw2I1i/eK1fju73xgOe0bkLw4wKcIyXAz2hcDPaFwM9oXC3YKg2FzgqFOIYKuKlf4jqqJwBWR0unflQX1VVYelitX47u98PVZ3C4iSVVF7R6rjbuFxt3CDgdCFVE/SUZ31T3ueczdkmv4F4x+Ec7yLrD0sVqzs57ql0I/ys7r1cvQp9lmfJXioCpY5IHAOcc02yyvaHBys8Loc3GqyRzFEbMyupXLR/K5aP5XLx/KdCwbrw2/K8JnypImtaCK3G6w9LFaege9wUWTwq/8AqqUCahW4mrVAT4LFUoZKuGUAUuKl6dxusPSxWnoHvcFH94ROQ7KpQJqFbcyFAT4TVUqpQ1RwTel83TuN1g6WK09A97go/vC9BcNQrZqFB0m3t1R1wTaC+X7EQjdYOlitX47u6CCj+8La7NSwtmpXIpo4AG7XjVHBN6Xy/YijdYOlitX47u9wTTRwXHouNca41xrjXGmmpRwPvm0ARRusPSxWr8d3e4IKpQJVTdZ3AOogBsqDZHCX8ZNz38OSdqijdYOlitX47u9wQQwNPC4FMk4ximl4Rw4CjfYelitPRd2NwuF4uY4tNUy0MdqqtOmlxIGpAT7QBk3/AKiaknCdL7D0P3ikHExw3C0e4bXDALhcHOAyK8R/uReSKXfvyLO0MhAx2uLwpK74Qq3BC7K6o3VRdUKuCGMySAKgFKbY54hM35GikYWPoUcsIVUCqhVCqFVVxAGqssHhtq4UcfJmszJQd0+CSOtQqEXVGAUVQqhVC/eJkEkmgUFlbHRxzIRNfK/QT7PG/UJ1jhduuRi+VyMS5GLcrkYlyMW5XIxblcjFuVyMW5XIxblcjEuRi3K5GLcrkYPlNs0LBkEA1oyH9e//2Q==;" vertex="1" parent="ybDbiMb5vyXETm1qi4Vq-41">
          <mxGeometry x="5" y="65" width="30" height="30" as="geometry" />
        </mxCell>
        <mxCell id="ybDbiMb5vyXETm1qi4Vq-14" value="" style="image;aspect=fixed;html=1;points=[];align=center;fontSize=12;image=img/lib/azure2/azure_ecosystem/Collaborative_Service.svg;" vertex="1" parent="ybDbiMb5vyXETm1qi4Vq-41">
          <mxGeometry x="47" y="50" width="68" height="66.8" as="geometry" />
        </mxCell>
        <mxCell id="ybDbiMb5vyXETm1qi4Vq-16" value="" style="shape=image;verticalLabelPosition=bottom;labelBackgroundColor=default;verticalAlign=top;aspect=fixed;imageAspect=0;image=data:image/png,iVBORw0KGgoAAAANSUhEUgAAAgAAAAIACAYAAAD0eNT6AAAACXBIWXMAAA7DAAAOwwHHb6hkAAAAGXRFWHRTb2Z0d2FyZQB3d3cuaW5rc2NhcGUub3Jnm+48GgAAGdZJREFUeJzt3XvQpndd3/F3QghnEpJIBBUSDyQiCHgAgwIKOsNJrQNadeyM1traag+MQ//ogU4d21rtOKM9iVRBBbW1VOsBQlSKjqBoqCAgJigJCG2EnKnknO0f16Zdl93N7j7Pc/+u+/69XjPf2clMZvO5v1fm+X2f3/W7r6sAAAAAAAAAAAAAAAAAAAAAAAAAAAAAAAAAAAAAAAAAAAAAAAAAAAAAAAAAAAAAAAAAAAAAAAAAAAAAAAAAAAAAAAAAAAAAAAAAAAAAAAAAAAAAAAAAAAAAAAAAAAAAADgdZ4wOMKHzqkuri6uLDv/5KdUF1fmH6wHV2dXDxkQE2Dd/Ud1Z3VPdcLiurz5aXVtdc/jP91U3DUk4KQPAwbqguuxwPbV6cvXpQxMBrNeHqz+s3ln9bvW2loGBA2AA2F8Pq55bvaD6iuqS9BjgdB2q/rh6c3X54T8/MTTRDrE47d151ddVX199efWgoWkAdtft1Vuqn69+IbcM9sQAcHoeWH1N9derrzr8zwBszp3VFdWrq1+u7hobZ/sYAE7NRdV3Vt9aXTg0CQD3ua56TfWj1QfHRtkeBoCT87TqZdU3VWcNzgLAsd1bvaH6Fy2HCDkBA8CJPbP63up5o4MAcEp+rXpFBoHjMgAc29Oq76teODoIAHvyq9U/aflqIUcwAPxl57dMjN/V8jAeALbfvdXrqpdXfz44y2pY5BYPaLnH/wvVs6szx8YBYB+dUT2l+o7qturKlmcMTM0OwPJ0vv9UPX10EAA24g+qv1H9z9FBRpp5B+Cslu3+11aPG5wFgM15TMtzXM6ofrtJdwNm3QG4qPrp6ssG5wBgrLdX31L9yeggmzbjve5vbHnZhMUfgGdU76heOjrIps00AJxVfX/1M9UjBmcBYD0e2fJ+gVc20aPdZ7kFcH71X1te1gMAx/MbLS932/kXDc0wAHxmy4MgLh0dBICt8CctD4J7/+ggB2nXbwFc1vIYSIs/ACfrs1u+HbDTXw/f5QHgOdWbqk8ZHQSArfPo6s3VV44OclB2dQB4QfXGHPYD4PQ9rPqV6mtHBzkIu3gG4IUtj/Q9e3QQAHbCnS1DwOWjg+ynXRsAntsyrT1kdBAAdspt1Yuq/zE6yH7ZpQHgsuqK6uGjgwCwkz7ecibg90YH2Q+7MgBc3HLa/9GjgwCw065v+YVz6x8dvAuHAM9rOfBn8QfgoF1Q/XL1qNFB9mrbB4CzqtdXl4wOAsA0Lm15dPBWv1F3q8NX/6b6ptEhAJjOZ1YPrn59dJDTtc1nAL6x+tnRIQCY1qGW9wa8fnSQ07GtA8BnVn/Q8gYnABjlluqp1bWDc5yybTwDcFb12iz+AIx3TsuatHW31LcucPWK6ltGhwCAwx5X3VX91uggp2LbbgF8fnVl9cDRQQDgCHdWX1C9d3SQk7VNtwDOrH40iz8A63N29eNt0c761gStXlZ9++gQAHAcn97ypMCteFTwttwCeHR1dcthCwBYq5urJ1QfGx3k/mzLDsCPtDx7GQDW7MHVI6pfHR3k/mzDDsDTWg7+bdN5BQDmdU/L2vXu0UFOZBt2AH6iZTsFALbBmdVjq58bHeRE1r4D8MzqraNDAMBpeEYrPhC49h2AV7c89hcAts1nVK8bHeJ41rwD8EXV748OAQB78AUt765ZnTUfrHv56AAAsEffMzrA8ax1B+Ci6v0tL/4BgG11d/VZ1YdGBznaWncAvjOLPwDb76zqb44OcSxr3AE4q2VSeszoIACwD67r/78xcDXWuAPwV7L4A7A7PrV6wegQR1vjAPCtowMAwD77ttEBjra2WwCPatkqOXt0EADYR3dUF1a3jA5yn7XtALwkiz8Au+dB1deMDnGktQ0ALx0dAAAOyDeMDnCkNd0CeFh1Q8uUBAC75rbq/MN/DremHYDnZvEHYHc9pHr26BD3WdMAsLqvSADAPlvNWremAeB5owMAwAFbzVq3ljMAF1QfbT15AOAgHGpZ824cHWQtOwDPzOIPwO47o/qS0SFqPQPAKpoBABtw2egAtZ4B4KmjAwDAhjxldIBazwDw+aMDAMCGrGLNW8N99/NaHgAEADM41LL23TwyxBp2AC4dHQAANuiM6gmjQ6xhALh4dAAA2LCLRgcwAADA5g1f+9YwADx+dAAA2DADQHXh6AAAsGGPHh1gDQPABaMDAMCGDV/7DAAAsHnD1741DADnjA4AABt27ugAaxgAHjQ6AABs2PC1bw0DwNmjAwDAhhkAMgAAMJ/hA8Aa3gVwaHQAABhg6Bq8hh0AAGDDDAAAMCEDAABMyAAAABMyAADAhAwAADAhAwAATMgAAAATMgAAwIQMAAAwIQMAAEzIAAAAEzIAAMCEDAAAMCEDAABMyAAAABMyAADAhAwAADAhAwAATMgAAAATMgAAwIQMAAAwIQMAAEzIAAAAEzIAAMCEDAAAMCEDAABMyAAAABMyAADAhAwAADAhAwAATMgAAAATMgAAwIQMAAAwIQMAAEzIAAAAEzIAAMCEDAAAMCEDAABMyAAAABMyAADAhAwAADAhAwAATMgAAAATMgAAwIQMAAAwIQMAAEzIAAAAEzIAAMCEDAAAMCEDAABMyAAAABMyAADAhAwAADAhAwAATMgAAAATMgAAwIQMAAAwIQMAAEzIAAAAEzIAAMCEDAAAMCEDAABM6KzRAdh511Vvrd5Vva/6QPXR6vrq9sP/ziOqc6pPrS6unlB9UfX06rEbzrtr9H8s/We1zhgdoDo0OgD76lD1tuoXq1+qrt7j3/d51Quql1bP2OPfNQP9H0v/ORVrWIOHOqR2om6s/nX1OR2cz61+qLp1BZ93baX/+q+2r6Y3+gKovdWN1T+qHnn0hT1A51b/uLplHz/Htpb+67/a3pre6AugTq/urv59df4nX9KN+ZTqP1b3NL4f+j9X6b/aj5re6AugTr2uri471sUc5FktmUb3Rf/nKP1X+1XTG30B1KnVT1UPPeaVHOvh1c80vj/6v9ul/2o/a3qjL4A6ubq7+vvHuYZr8rJ2c0tU//X/ZOxq/3e1pjf6Aqj7rztavoa0LV7a8h3r0X3T/90o/VcHVdMbfQHUieuO6vnHvXrr9eKW7KP7p//bXfqvDrKmN/oCqOPX3W3Xbz5He0nbvR2q//q/F9ve/xlqeqMvgDp+bcM9z/vz8sb3Uf+3s/RfHXRNb/QFUMeunzrRRdsyr2t8P/V/u0r/1SZqeqMvgPrk+tOWrxXtiodXVzW+r/q/HaX/alM1vdEXQP3lurt1PeRkv3xp23E/VP/1/yBsS/9nq+mNvgDqL9e/O/Hl2mqvanx/9X/dpf9qkzXUGl5FOLwJ/D83tbzN7IbRQQ7IBS3bu5t8ccup0P+x9J9NG7oGnznyP87q/GC7+8Ov6vqW16mulf6Ppf9MxQ4A97mpuqjlXeO77JHVn7W+34L0fyz9ZwQ7AKzCq9r9H361fMbXjA5xDPo/lv4zHTsA1HINLm15pegMLqn+eHSII+j/WPrPKHYAGO5tzfPDr5bvRF85OsQR9H8s/WdKBgCqfmF0gAF+bnSAI+j/WPrPlAwAVP3S6AADvGl0gCPo/1j6z5ScAeC66jGjQwxwRvWRxn92/R9L/xnJGQCGeuvoAIMcqt4+OkT6P5r+My0DAO8aHWCgd44OkP6Ppv9MywDAH40OMNAaPvsaMoyyhs++hgyjzPzZyQBAXTs6wEAfGh0g/R/t2tEBBlpD/xnIAMCfjw4w0EdGB0j/R9N/pmUA4MbRAQb6+OgA6f9o+s+0DADcOTrAQJ8YHSD9H03/mZYBgHtHBxhoDf//6/9Y+s+0/A/AQ0cHGOgRowOk/6PpP9MyAHDO6AADreEHoP6Ppf9MywDAzI8CvWB0gPR/NP1nWgYALh4dYKBLRgdI/0fTf6ZlAOAJowMMtIbPvoYMo6zhs68hwygzf3YyAFBfNDrAQE8aHSD9H03/mZbXAfO/qk8bHWKAM1ueAjf6Pqj+j6X/jOR1wAz12OqJo0MM8JTW8cNP/8fSf6ZlAKDqhaMDDPCVowMcQf/H0n+mZACg6qWjAwzwzaMDHEH/x9J/puQMAPd5YvW+0SE25InVe0eHOIr+j6X/jOAMAKvwHaMDbNC3jw5wDPo/lv4zHTsA3Ofj1eOqm0cHOWDnVde2vseg6v9Y+s8IdgBYhUdU3zU6xAb8g9b5w0//x9J/pmMHgCPdWn129bHRQQ7IhdVVrfcFMPo/lv6zaXYAWI1HVt87OsQB+oHW/cNP/8fSf9iwQ2pVdU/1rBNese307OrexvdX/9dd+q82WdMbfQHUJ9fV1cNPdNG2zLnVBxrfV/3fjtJ/tama3ugLoI5dP3eii7ZlXt/4fur/dpX+q03U9EZfAHX8etkJrtu2+IeN76P+b2fpvzromt7oC6COX/dUX3/8S7d639zyGUb3Uf+3s/RfHXRNb/QFUCeu26sXHffqrdeLqzsb3z/93+7Sf3WQNb3RF0Ddf91RveR4F3CF/lq79cNP//X/VOxa/3e5pjf6AqiTq3uqlx/nGq7FGS33PHfx6076r//3Z5f7v6s1vdEXQJ1avbblgSlrc25znHbWf/0/lln6v2s1vdEXQJ16/Un1pce6mIM8u7m+56z/+n+k2fq/SzW90RdAnV7dW72qOv+TL+nGXFj9ZHNueeq//s/c/12p6Y2+AGpvdUv1z9rstuj5Lc9sv3kfP8e2lv7rv9remt7oC6D2p26pfri6pIPzpOqHWt7dPvrzrq30X//V9tVQXgfMQbiy5VGqb6res4e/58zq86uvanmoyVP3Hm0K+j+W/nOyhq7BBgAO2nXV71bvrN5bfbj6UHVby29NZ7W8eOXc6ryW36AurT6v5a1sF2w+8k7R/7H0nxMxAIwOAAADDF2Dzxz5HwcAxjAAAMCEDAAAMCEDAABMyAAAABMyAADAhAwAADAhAwAATMgAAAATMgAAwIQMAAAwIQMAAEzIAAAAEzIAAMCEDAAAMCEDAABMyAAAABMyAADAhAwAADAhAwAATMgAAAATMgAAwIQMAAAwIQMAAEzIAAAAEzIAAMCEDAAAMCEDAABMyAAAABMyAADAhAwAADAhAwAATMgAAAATMgAAwIQMAAAwIQMAAEzIAAAAEzIAAMCEDAAAMCEDAABMyAAAABMyAADAhAwAADAhAwAATMgAAAATMgAAwIQMAAAwIQMAAEzIAAAAEzIAAMCEDAAAMCEDAABMyAAAABMyAADAhAwAADAhAwAATMgAAAATMgAAwIQMAAAwIQMAAEzIAAAAEzIAAMCEDAAAMKE1DAD3jA4AABt29+gAaxgA7hwdAAA27I7RAQwAALB5BoBW0AQA2LDha98aBoCbRgcAgA27cXSANQwAN4wOAAAbNnztW8MAcP3oAACwYcPXvjUMAB8dHQAANuxjowOsYQC4dnQAANiwa0YHMAAAwOYZAFpBEwBgw64dHeCM0QGq81rBaUgA2JBD1bnVrSNDrGEH4Mbqw6NDAMCGXNvgxb/WMQBU/eHoAACwIe8eHaDWMwC8a3QAANiQVfzSu5YB4G2jAwDAhrx1dIBaxyHAqke1HARcSx4AOAj3VudXN48OspYdgJuqq0aHAIAD9p5WsPjXegaAqjePDgAAB2w1a92aBoA3jg4AAAdsNWvdmu65P6zl7UgPHh0EAA7AbS33/28bHaTWtQPwF9VbRocAgAPy661k8a91DQBVPz86AAAckP88OsCR1nQLoJZnI/95dfboIACwj26vLmwFjwC+z9p2AG6urhgdAgD22Rta0eJf6xsAql4zOgAA7LNXjw5wtLXdAqg6q/pQ9ZjRQQBgH3ykenx1z+ggR1rjDsDd1U+ODgEA++TVrWzxr3XuAFR9evWB6oGjgwDAHtxVfXbLzvaqrHEHoOrD1etHhwCAPfrZVrj413p3AKq+sLpydAgA2IOnVe8cHeJY1roDUPWO6tdGhwCA0/SGVrr417p3AKq+uHp7688JAEc6VH1J9XujgxzPmncAqn6/Fb05CQBO0i+24sW/tuM366e2nAV4wOggAHAS7m659/+e0UFOZO07ALXcP/mJ0SEA4CS9spUv/rUdOwBVj66uanlZEACs1U3VE6rrRwe5P9uyrf4XLW9Sev7oIABwAi+vfnN0iJOxLTsAtdyu+O3qstFBAOAY3l49s7p3dJCTsU0DQNWTWw4Enj06CAAc4c7qC6r3jg5ysrblFsB9PtqyE/AVo4MAwBFeUf230SFOxbbtANQyALy5es7oIADQcnv6y1vhG/9OZBsHgKqLW74e+MjRQQCY2s0tz6v54Oggp2obngNwLNdU397yqEUAGOFQ9W1t4eJf23cG4Eh/VD2s+tLRQQCY0r+q/sPoEKdrW28B3Oes6vLqeaODADCVK6oXtmX3/Y+07QNA1TktBzCeNDoIAFN4X8vu802jg+zFLgwAtRwK/J3qwtFBANhpH2t5IN2fjg6yV9t6CPBo11RfU318dBAAdtatLdv+W7/41+4MALW8d/kFLe8NAID9dFvLL5pXjg6yX3ZpAKh6a/X1LY9kBID9cEf1dW3JS35O1q4NAFVvrL62ZVoDgL34RMua8qbRQfbbrhwCPJZnVb+SpwUCcHr+T8vi/+bRQQ7CLg8AVU+vfrl69OggAGyV66qvbofu+R9t1weAWr4i+KvV544OAsBW+KPqRdW1g3McqF08A3C0a1oe2PAbo4MAsHpXtKwZ1w7OceC2+V0Ap+L26nUtL254dnPsfABw8g5VP9DyorkpDpHPuBC+pPrxlkcIA8DNLW/1+8XRQTZpxgGg6nHVT7fsBgAwr9+pvqX6wOggmzbLLYCj3dIyANxVfVnz9gFgVndWr2jZ8r9xcJYhZt0BONKTqldVXzI6CAAb8TvVd1TvHR1kpBm+BXB/3tNy4vPvtdwHAmA33VR9d8vO79SLf9n6vs+hlpcJvap6SPWFGY4AdsW91WtbXubzlpaf+dNzC+DYnlx9X8tToPQIYDsdqv579U9bdns5gsXtxL64+uctrxkGYHu8oeWQ3ztGB1krA8DJeUr1PdU3Vg8cnAWAY7ur5bv8P1j9/uAsq2cAODWfUf2tlgdGPHZwFgAWH6leXf1Y9WeDs2wNA8DpOat6Ycsg8PzqwWPjAEzn9uqNLQv/G6p7xsbZPgaAvXtky/uiv6F6Xsu3CADYf59oebHbf6l+qbp1bJztZgDYXw+pntNyaPC51RPzdUKA03Vvy/f1f6O6vPrNlt/82QcGgIN1bvXM6rKWg4RPri4aGQhgxa6t3l29q3rb4bplZKBdZgDYvHOqS6qLD9fjq0+tzj+izm45Z/CIQRkB9svHq7tbnr1/wxF1XfXB6prDdVUW+40yAOCJWLvl+uqlLVulAMd11ugAwL55d8ujTq8dnAPYAg6owW54Y8sLTq4dnAPYEgYA2H4/Ur04X4kCToFbALC97qi+s3rN4BzAFjIAwHZy2A/YEwMAbB+H/YA9cwYAtovDfsC+MADA9nDYD9g3bgHA+jnsB+w7AwCs2w3VS3LYD9hnBgBYL4f9gAPjDACs0xurZ2XxBw6IAQDW577Dft6MBsCBOaRWU3dU33rCqwWwT5wBgHVw2A/YKAMAjPeelsN+14wOAszDGQAY6/KWJ/tZ/IGNMgDAOA77ATDM6INvM9Yd1bedzMUBOCjOAMBm3dDyGt+3DM4BTM4AAJvjsB+wGs4AwGY47AesigEADp7DfgCszugDcbtcDvsBq+UMABwMh/2AVTMAwP5z2A9YPWcAYH857AfAVhh9n3yX6oerB5xa+wFgjNGL5i7UXdXfOdXGA8BIoxfPba/rqy8/1aYDjOYQIJy+q6uvPvwnwFZxCBBOz5uqp2fxB2BLjd5C38Z6ZXbPANhyoxfTbSqH/QDYGaMX1W2p66uvOM0eA8DqjF5Yt6Guqp5wug0GgDUavbiuvS6vzjnt7gLASo1eYNdcDvsBsLNGL7JrrLuq79pLUwFg7UYvtmurG3LYD4AJjF5w11RXVZfsrZ0AsB1GL7prqcurc/fYSwDYGqMX3jWUw34ATGf04juyHPYDYFqjF+FR5bAfAFMbvRCPqKtz2A+AyY1ejDddb8phPwAYviBvshz2A4DDRi/KmyiH/QDgKKMX54OuG6rn7lu3AGBHjF6gD7Ic9gOA4xi9SB9UOewHACcweqE+iHLYDwDux+jFej/rruq797c9ALCbRi/a+1UO+wHAKRi9cO9HOewHAKdo9OK913LYDwBOw+gFfC/1yuqB+98SANh9oxfx0ymH/QBgj0Yv5qdaDvsBwD4YvaCfSl1dXXowbQCAuYxe1E+2rshhPwDYN6MX9pMph/0AYJ99ovEL/PHqrurvHtxHB4B5fbjxC/2x6obqeQf4uQFgam9v/GJ/dL2v+pyD/NAAsztzdACG+73RAY7ya9Vl1ftHBwGAXfZXG/8b/331b/MaXwDYiIdWtzZ24XfYDwAG+LHGLf4O+wHAII+vbm/zi//782Q/ABjq+9vs4n9F9aiNfDIA4LgeVL2jzSz+nuwHACvyWdX/7uAW/ruqv72xTwMAnLRLOpgh4MYc9gOAVbu4urL9W/yvzJP9AGArPLjlYOBtnf7Cf3v1L6uzN5wdANiji1oO7d3SyS/8t1Y/Wn3G5uMCcDLOGB2ArfHQ6sXVl1XPqD6tuqC6p2U4+GDLVv9vVb/SsnMAAAAAAAAAAAAAAAAAAAAAAAAAAAAAAAAAAAAAAAAAAAAAAAAAAAAAAAAAAAAAAAAAAAAAAAAAAAAAAAAAAAAAAAAAAAAAAAAAAAAAAAAAAAAAAAAAAAAAAAAAAAAAAAAAO+X/AgnITupTix3xAAAAAElFTkSuQmCC;imageBackground=none;imageBorder=none;" vertex="1" parent="ybDbiMb5vyXETm1qi4Vq-41">
          <mxGeometry x="125" y="68.4" width="30" height="30" as="geometry" />
        </mxCell>
        <mxCell id="ybDbiMb5vyXETm1qi4Vq-43" value="" style="shape=image;verticalLabelPosition=bottom;labelBackgroundColor=default;verticalAlign=top;aspect=fixed;imageAspect=0;image=data:image/png,iVBORw0KGgoAAAANSUhEUgAAAEQAAAA/CAYAAABZ9m6wAAAAAXNSR0IArs4c6QAAAARnQU1BAACxjwv8YQUAAAAJcEhZcwAAGdYAABnWARjRyu0AABfxSURBVHhe7Vt5jF1nfT13ffvs4/F4yeLYxnFIWlYREhbREkIhpCwVKhWbKCn8AQjU0oJoBaUVCGjUFomSgoCKUrUVUAJNCGujCpKS0CwEQpyQ3fbYnuW9N2+577679ZzvvudMxjOTseOE/pEjv9y523e/7/zOb7vvxeqHvQxP4TjswfYpDPAUIavwFCGrcFpiSJKmqEfAwcDC4baFMMrQbbdRrlZRLVnY5fdRK3uYLvCBljW46/8nTomQLMtIQoYjkY2bjiT4wTJwayPGYpii3Q0RpA68uIc4tFCxIhRdYGfVxcXTHi7cWcNvVlNYNR+dLseBRZIGAxN+HGO0aBvpFu0Mrq3zTx6JJ01ISjIW2hGuaxXw2ftD3FGPkUQJKt0+Wr4Dq9lB6nnwoz5GSEYncxFr0by3UrBQLdjYu2PSjHUkBSJz5hFMWBm2ORbOqTnYNuJgdyXFeRUedzL4JIf/nlCCTooQqeL2JvCOu2L8gkT4/ZiuEQI9LouTLGV9uGNlBPVlWt7FLB7A4drT4YyWByOcGqaKFi4bs/G2ZxZxXhTBd5+40LdpQpb6Gb4+B3zoQIi0GWK5z6Dh2PC7AXqphS1+jJDXtDMLieXBmazCkmLs0zf5kgNcRLf7wrkWJulWTwQ2RUidC/27+1JcdV+IXqePIGYMoOu4JCMreogDCT+FhxD+qI+gNjO48/Sg5lloMVAP8ZwRG2/cZuOybQ6m/dPrQo9JSJ+L//KcjQ/c0UWw1EXiu8iojKTewQj6iDIGUasGq+DCrhZhk6AnA6Lg9VtdvPtsG+fVAJdzOh3YcBTFjBuXMvz5jXW0enSJkEpwLWxtzJvzTtaAb/U5GxvuVO1JI0OQFf/1SIzX3Bbjm3N0UypW2e/xYkOFPNhJ8ZbrG7izY2OZkT9pBnDShJmG6RE99MM6g+g2YHJicMevB7MMum+YtvAnuy3UHqdR1lVIyKD5rQdD/LyRoclcl9S78FIm0CymdVh8pUUUtu39tZMhzNGmf/twik8cSDDfYy5/HFiXkMOxi6/f00bA1Jo2uiZeFLNlxBHTLB14dLyEpMSIRqSsQYQsTsz21wE9+crDwKfv7qPRZQY8RaxLyHcPtPC/VEc/STFrSR0JOvUl1gAl2Eyl3VoZaSdERv+xy74hw3IdQ4582Xx475ONf1my8fmDFmLO61RiypqEKJhez8IrYAXqkfu5rITFqIsJ+mfqeHBnRlEWGVrwMOPJragkkXMcPJe0e+bPaK5htk805oIU/3AowbdZM50K1gyqR7sxnn/1Eha46CC2MOVGWFp8AOnoXlS2jiJkwUX6kYWMJ0zLdpVdG0fJojgP/0Qa9GFXeJyk2XSteLENl8VaRpJLRQfPqNg4p2zjaZMetlQylPoJujzeb0WYjz3cNR/j5n6Ko1xgcAqeeCbHvu7ZDnZyezJ1ygmESGY/PBjhDf+1iHozwgjLcS9dxGI2A39LDU7JQySl0PIWaxJLzYVDV+lwn1vLo+hMTSB5JMalRILDGuWZ7Hwvm7Xw8u1F7Bl1UOYlNierZ66etNJoM0xwe53pda6P/zgcoUFi5KZ2gZlE5bvGZoyTq1qeg2Q5MHNS+vd4/A92lfDRvRYm2D9tFicQkrKVv+rnCT7406PotBJMuj0sBizFqYLSzAh6XGzGa0xJTjJEjOKGNzuWuwcXoglxg0wqIRFcO96608MV5/hs2jjhkyznOyT2mrkUV9zWxfJCh71R6XhLoGerRSCjZn8IYyjiny/wcPl2xxC/Gaw5s067hazZQ43d6lKLD0syVEhIl6wrbsgKqlTTVq4Sl24UHW0aF5ELKS1bIo5/T5cdfIyW+usLitg94p00GUKFynvljI1XTHAuHFOLz5XH+dA4UmQ83zLPVK1kWuIBrnowwfJJJJ0TZqeAasxLtAMN3EZhwkc4UjTHMlar8eGGkai8QnKNjzThjFdyOaswoovonF8r4opZB2/cRwnLnVZYSW6S0PIRu9clkjz8BDymF06rIQs/g+2BO806XXMUeEwkiCSpJGVMs4auxEvK7Lt+2oxxnd4zbBIbm4t1R2aPwPYLiFmYCRb91902BksBkxMaBs+sRzMYqylupIiPLuOFbMLetreIIslbSYZ5pxLE+Mr9Id78PwEu+U4Tl367YT7vvLGFT98b4pbFCC2Oo2tFXj1mbFtsmdig1RpX1TNJiObgjFWMsWQoKUfHdH+Xtvkq448Kzc3ghBgSsZ743E1L+OBPmgjCRWSlrRglAW0yrwBmPrKEFqmgSqtpq0nqeDq4xiMBH3nhNN6/x+ecH+Fdi3uAZFzxozZuXWDnbFHmUpMWR1klCsoc7yw/xkWjZbx0F92Movv+g33808EYCecXDcjPVZmndRPQORfjxtxqPlbRpwt1MUNX/fqzCnj2LI34GFhTITvdPgqKFcts2moFNBm9ZRGlVAVJxQxbL31kHQa1+Bgr2IW2IcNWTJmosqSv4vwyU+4KZQiy+De4uFuPhGi0QvR4T8xjAd0rqLJD4vUBXe/OY3187eEO3sle6o++V8cXSUakfornnbGyIV1xQ/ORKpVh4gXGPqlUc/dIClHjfBYtD1cvMs7w+GPhBEJsBqTztnuoqEcaWFZ+qQczBZGA0MQM/S1IFc5ExdQbQqrJ0Sq1dogZFmmr0ylDHu6dZ/xQhhrEIfJhFpExeJsd3qMsUacLLPE5df4dyxUVULlg9VUmVhCpGk4SpFjibqF76wUuVaQ5JCSoxflpbt9dIKGnQoimX6HknjvOh41PUL2UIhemrGKYVxAjTDahlRTMsiDKizAFU34UaHkFAi5OLrIS4vnsSoTIvErgWFIZZW5ij+7ngkViXlsM6pwhYXxePgee5zmzeBFLRVmmNmL1LNJoSHO/XJoumDCezDPV3NvkM1bNZzVOJISTKRd8vGgmhq/XdHogrWBT0pqMuYbFmelj1L8MiiQzEUGLpOXDiFmDLrEWIa/eV8NLZlxWp7n1lJlUzWrBUohJpxzbZmbLWMEK5nk8L4WKRD3D9FCak9yE15vmUs+TVRXjpECpjqhze4R5gZduiBMIEXzfo9uMY2aM8WCgeJGiyZsoTkXooXa5gHRQHZqyXRPl8SqDnsfrftqwTJBeCdUhZ7M2+ceXTeOdz5zA0woMjlSZSnuTHWRtKlQGiOfomlSDUYVIJyFOLS/KTCAnNB+T7pXp1FhqxTSqYp7cxpBE+L0Ed9RdrHgTuSZOIEQKcVwP01MjJNnGshZ/HLk8h0hbVA6rxiGUejO23h1OrkFLXndvE/eaWubR0DNmuMC/uqCAb7x0HO/dU8G+WgZPwXgdGHfi84fNYjK/zGaSwX6ZWYUKSxhgj0MkULHO9IiJcfmhFL8gofFQyetgTYXo/aQmnTAlihS99tdWliuSYQWxsqzEtCbl5LFE/kqJGsnTlbh/93KGz/5smaU/iVrlOhq/4LrYM17EXzyjhG9eOoOP7y/gd/eOYToKUaC7CXJFb6Bzhy4k90qUWlUAimvOzShGAVydNo+ldDNlwYTZb1i1djmne0TiY/jMmoQIncwxUVlVo140R1ooFRDoGNt8lfE2A6MJiiSlxOu0aIuxQG6ka1ucxFfv7+LK2wI0aKm1ApqIqXCMPWMFvOfcMj53UQWfeckMXnVWAbvHfdi0diyiZSBmF+NSCqrGAPzIlXiN2aqv4XX8RyMx0I+U8rTMuXrKVJy7erWNsC4hTbb9+QIGkiezetAwKqkoMmzzIUJXwU/W5MPzWMKLeW6uHeNTP2vgTTd0cdtSiL464DWIEVTATdHyrz6jgC++cAyfvHASL9hZQ41jOsN7uJVqDBmDDGcI4b6+CxpmGgVjkTaMcXK0iMfXagtWYl1C/GaD/qYXyo9MfuU6lIZXQ/FEb9gMSbxYblbmZHTsmrvqeAVL84/9PMQce4z1SBFyd3LwqjM8/PslY3j7BVVUOI6BbuOipIhkqZO7CTOIygEpx0CG0jU8ZqpZuliODH0ZbAOsSchwspv5rsOoZgCTiVZALifX0mI04hwD4JU3L+Cy7zbx0Tu6uP5YbAqn9VxJGWmadcQHScifPm8SI4obhMtzJkUTchOH7qD9+BgDK4k08Y6KKdG1ZThVy0rrUntxSOw6WIcQYGqquilC1jN0SX4/QGeFVZb7KW5hQfDhH83jjdcdwvtubOAbB0MGXrYAa8hZxIwzmP/hGRZec2aRimOKpgKkDlMMEinPK66ZJpIEmoqUCmoNYlzGe8CM6A4VtAHWXLHKd6FEC50q9D52I4jHg+0Mn7+zjddfexRv+nEH1x3soSX/X4PlLdUC3rXPQ9HKz+lnEsdLgEFp0OMzTY1ESDkGJMeiQeRFz3fzVxgbYd0VT7gRziyQGE1u+BEGm9OJiDHg2rubuOw/j+EDP27h6DoxZv+kj33T+S8JpJIhVl+p+LMSw0tvzjhu/ue6WJcQjyXqbm8YjIhBCezGg4fpZxBErcHCTE+UTE8DPvfLOt5LtaxFiu/7uHDbirf66yBUYUZIRStx67EIDwUbq37dswXPw55pLnYwqXKHcqMk45RESJaKL9xvjTGQ6v0E05zbZ0BrcxIiSPdR/ixiUG7xXi5Q1/kBA+OQvIG8uYL8Hn4YYnDtwTZuZ3f6aDryeHKOnr9JrFSR4KcxbmAgTzYw3rqEuIzS+6spSpYWlaBboVrYsJm0oi6Tgczsa1GSKAmK9WuAIq2jxQsanXGoW2SKrtCySsE+F6SJkijfIuEijQHQlDv6kOQOCVpK184Ggf1od9gsGFpR4Fp+9GArLw3WwbqEOI6LfeMxfZaRfFCSG9DKWw6PM2pzYSUWR+qWJE1FcGUTybXKxTd6Jm1eMFvCe/aM4rd3sD8qMf1p8fpwzL5L4nSf7tfwTZIeJthSdnEu3VX8rMbPmrxHz+Z8rD5vGpJPkq10cIfmOvwM9tPlEBPpnfglb1068auo41iXEKFYGsHravnDj4MKOVaZA0ZIVI/le8Yhjp8fLEwKGC3itWeP4OqXTuATL5vA1ZduxfWXz+AvnzWK88Z5nZSm72B1vVxGY5CYqTEb79lVxb6tFTPiSixy3LtbfJ4UyvttqUXkihTeb4sQGWU4HUHZLuAxxsBlex/azEwLyfq1yLo/h1BA64V93Hb/HF53AzDf5GVyDRlBH91lPvyPrDzYdyn1GFxoxSMZk3jl7qpRyhB9LuoIrXzHYowfzgW4dylGczlFrZLh3O1lXDJbxIWzPsor6hhB87ntUAuXfGcJCw2OP5yD1KWPIUbuyy0/1XYZ7VG9suBFVHWR8aM3UsFOP8IXLh7Hi3bVzLirsS4hQhTFWFxaxCd/0sFnfsWx2Z0aC/CBhZ6PsKyJ0VJdHuMMU6VpLX6w/msu34JLz649ihBBizMtgUjnJuYYWl+ZKzRV5arrhflegvd//zC+dBfdSouW29Tomry+3C6i67XzOEXVmvMaXxGaf/u90MTxsUm6eKGIr1xYxotJiIL0apz45BVwqIhiqYIXb3Gw3af09BAGT5fEhyPc18OJlMY0MVCZR+4iifLvaw7FaNBCq9OnJqJGznEcVPiMUV47onG5vxZ5Swzef3N7G1+6nwaQGuliU9Fs/hwF/FJgviqxI57TGtVo6pziGSvXOD6C1LKxmBXYlefpXNNcCxsSImuVS0U8fbuLy7ex4hMBqgZVLbbotybT8KEafRC5S93carLg124/io/c1MBh/h1v0OWuBV2rew7SDT704wY+dUvdBGpjBD53YaaRK0IEcQ5pJzAfk/nKec8jl7J4z5h6oMGzW3YZ4zbHWAcbuoygiTVbbdx93yG89QYb96iO4IItEaPvUHh3IaT7OJysfFm+P5ikzqmN2L+9hBecUcKbzy7jzOkixln0DZUwlO2QLL2v6PDe+xb7+PIDAb73qwB3zOfZx7iCLpcSFZD1HDVrulcGIUGVuo+O0jxJsJS1sibvGTX9TKlGpddcfOvFNZw1XeEw+bNXYlOERHGMY4sN/OBAE++/OUWdfmhxQoW4hF6B6XFQxRazCnpWhwqie/dH0faaJG0QiLmYKTfGbK2Mc8eA8fEyZv1UijZKpGOhnjk4NB/gzoaFQ/UWFmJ2yUYRHENbPqac1NAn+bEqeCqzGBbQs7u5IZSttEgu3qLLWO1lZBW6pZeh7bNUYJnw8hkbX7y4hInxUTPn1XhMQobodDo4dPgI/u2WNj5xsIKwUIA1qAHczEdk9yFPylSbyH+JjCSUekX03Pxr0EwWpSH1G9fjD+UCLC5s5b6xuJQjVxzsK6WmeuNd5MI1vmodndccqAY75N90lTSJcjICGoYqtLzDSIt787EZhD++K8bbnzuBWnXt97e5bjcBj6X81PQULtlfwOtmufhhQUSoQh00oSi1ONEBisxEIkNE6LTf5zkuzk9WfKXIRUlpx6FFDsYyyhrsG8rkFnI1HeOYk/OUmq4laSnTauqyOBMZHSqDhSVcn6ScQ6vnce4Mq4vn7/S5lkfmuBqbJkSNVaVUwo7pMbzjfBsXjdGHh9DECRVpQzUIoUsfJuRSuiRyQrPtD7b6OExRIdOWGYKK0la1jFTjx35+jUcCzQmeV7qV0uo9LFbmybqLwjL3dY4B1Gox2Jr3KmQqzo3m2PybgfhZ5RjbWO9t9J5n04QInu9hbHQM26fG8WdP6+F3tpL5FUjV96yBUvxI1ekluXUq0YjZpjabwkHfYrGvcVMPySALRE6+oFS/fCR03iaBbsQYoX2SpsxnCOY5q8UAKnfjx+pTtf38vpgV7Q43xBW7MozVqibdr4eTIkTBr1TwMVYtY/++WbzvfOD3dsTsjKVbzmMpd4XsSP7OQovP+jYCl/7cyRc9XGTHWzZbIV6RBmN7hfIIjSEVDSECh4QJhTh/6WP1urDbVIdcSrEjYr1Ro0sRbprgJVuA3TvG4evl9CCzrYWTIkRQuqwwII1Vyti1bRR//PQeXj8bomzTQhP66pKT28q4QbFo8RYziWBV2M4PBDQkR8iO5fFjeE5YqSiNkZAEYeU1Q4ROAOfQ/bDrCzkRUgUXnFapwMEryYup5HfvDjDBDCfX3wgnTcgQ5UoFo5Tf9MxWvOuCBH//HBvPGeFkhh1nlA+d1QvIQjbfElHMbYNxgeSYc3NlWFsGL6Z5fXYoJ6LbHBDwcJ4JNIZB/xGlZA/l55wjDyEd1f+QxLCrQMqK1HwUOEnQDq+Pd+91WLZPwldm3EAdwqbT7lpQjdINAjSWWwgo2YcfruPmoxaueqiIwxFjQY/yLLKAoysZ9XBh1nju14aYsdx9pJghSUNki6x1JvOgPITUZAikO8hFzFcNcd5PWf0esnINKVsNQwaxzYvw4b0BXnD+JLZMTaJcLhu33wiPixBBpPSjCJ1uF/VGAz1O9KGGh2vv6eCm5QIOcLEBs49RwyxdqcUKshaZLXoMjtNcSEDLL5OgmQBZl38rfQ5cLeM1UpZVZX3RZQPHgGgt1weuYSOtjTK4UlGcR1Zg7GIdklVH8RujCd67o4PnnT9lirBaVU3mxmQIj5uQIfQtXhh0sdzpIgj7JKaJxnwH/33Ixw8WLNzWKSFQccVMEFfzYGcvHEEyPgvL4RTClDUDJc8UqX0FY0uvEciH1Wb2UPPWWDSLT/0qJ95GMrXVBE+pJKU6wGxSZJX6+5MdvGVfhK1nbMN4rUJlVFh7PBK3NsJpI0QQKUkS031ChGEP7W4P3W4dcZRh8ViAA0selkMHt+tXIg83cKDM8jmx8HBCFbEp21uhpbm/j7XM7X0Pv+p5cObnTGUrKEakI+MMrmRJ5fxDJdiTR5GOTTEbRbh0e4rXTnaxZ5uLqS3TGK+SjEoVLjvqx4odQ5xWQoZISYz6n4jW64X6BWBIkgLuB6yVIhKUot+L0EUR0fBFM+GyeNIvhnzWM+0O+6elPr53H3CAPc1Ry8ecxYbs2EEqQ6pycFbaxOhYGb81mmL/RA/7tjiojlQwQvcYqdVQKhZNVtwsGcITQsgQ5ieVDHz6gjmJYoSGoJhtvQKovmftGlXJtTVpTURTt+k6IjRjng3abfS6MQ7W86y12ErQZ3U6y9pnmooqFm0Uyy4/FRJARZCECjOgz1ZjMzFjNZ5QQlZj+NuMhD5vumj1JiouBi4hOC47XO6mJCTkdQGVJEKDoLHyMoNikXEjS1Bg911kFV1hFnGZYdZq6zcH4P8A8Z5hVXEW+uAAAAAASUVORK5CYII=;" vertex="1" parent="ybDbiMb5vyXETm1qi4Vq-41">
          <mxGeometry x="20" y="100" width="32.38" height="30" as="geometry" />
        </mxCell>
        <mxCell id="ybDbiMb5vyXETm1qi4Vq-44" value="" style="group" vertex="1" connectable="0" parent="1">
          <mxGeometry x="580" y="216" width="207" height="190" as="geometry" />
        </mxCell>
        <mxCell id="ybDbiMb5vyXETm1qi4Vq-24" value="ChatGPT" style="ellipse;whiteSpace=wrap;html=1;aspect=fixed;strokeColor=#00FFFF;fillColor=#0080F0;verticalAlign=top;strokeWidth=5;fontColor=#FFFFFF;spacingTop=10;" vertex="1" parent="ybDbiMb5vyXETm1qi4Vq-44">
          <mxGeometry width="190" height="190" as="geometry" />
        </mxCell>
        <mxCell id="ybDbiMb5vyXETm1qi4Vq-23" value="" style="ellipse;whiteSpace=wrap;html=1;aspect=fixed;strokeColor=#66B2FF;fillColor=default;verticalAlign=top;" vertex="1" parent="ybDbiMb5vyXETm1qi4Vq-44">
          <mxGeometry x="35" y="38" width="120" height="120" as="geometry" />
        </mxCell>
        <mxCell id="ybDbiMb5vyXETm1qi4Vq-26" value="Dispach" style="ellipse;whiteSpace=wrap;html=1;aspect=fixed;strokeColor=#66B2FF;fillColor=#33FFFF;verticalAlign=bottom;spacingTop=0;spacingBottom=10;" vertex="1" parent="ybDbiMb5vyXETm1qi4Vq-44">
          <mxGeometry x="140" y="64.5" width="67" height="67" as="geometry" />
        </mxCell>
        <mxCell id="ybDbiMb5vyXETm1qi4Vq-29" value="" style="shape=image;verticalLabelPosition=bottom;labelBackgroundColor=default;verticalAlign=top;aspect=fixed;imageAspect=0;image=data:image/png,iVBORw0KGgoAAAANSUhEUgAAAgAAAAIACAYAAAD0eNT6AAAABHNCSVQICAgIfAhkiAAAAAlwSFlzAAAOxAAADsQBlSsOGwAAABl0RVh0U29mdHdhcmUAd3d3Lmlua3NjYXBlLm9yZ5vuPBoAACAASURBVHic7N15fF1VuT7w5137ZCiQtEAHSFqmtoAyE0ApqIEkZ2hpHYM44IilA1wVGZyuxut1HhFogYuIiigGByhtzj5JJQ5QEMsgg4ANILSFUgo0LW2Gs9f7+6PhR0GhU7LWPvs838+Hz71qm+ehQ/Z71t57LYCIiIiIiIiIiIiIiIiIiIiIiIiIiIiIiIiIiIiIiIiIiIiIiIiIiIiIiIiIiIiIiIiIiIiIiIiIiIiIiIiIiIiIiIiIiIiIiIiIiIiIiIiIiIiIiIiIiIiIiIiIiIiIiIiIiIiIiIiIiIiIiIiIiIiIiIiIiIiIiIiIiIiIiIiIiIiIiIiIiIiIiIiIiIiIiIiIiIiIiIiIiIiIiIiIiIiIiIiIiIiIiIiIiIiIiIiIiIiIiIiIiIiIiIiIiIiIiIiIiIiIiIiIiIiIiIiIiIiIiIiIiIiIiIiIiIiIiIiIiIiIiIiIiIiIiIiIiIiIiIiIiIiIiIiIiIiIiIiIiIiIiIiIiIiIiIiIiIiIiIiIiIiIiIiIiIiIiIiIiIiIiIiIiIiIiIiIiIiIiIiIiIiIiIiIiIiIiIiIiIiIiIiIiIiIiIiIiIiIiIiIiIiIiIiIiIiIiIiIiIiIiIiIiIiIiIiIiIiIiIiIiIiIiIiIiCimxHcBInqlpqamCcaYScaYMapabYwZpap7qGoFgFoAvQBgjBkAsN5au05E1hWLxWeXLl26xmt5IioZHACIPJg1a1ZNX1/fMQAaABwmIvsDmARgfwDVu/Cl+wA8BuBxAI+IyH1RFN1bXV394KJFizbtam8iSg4OAEQOtLS0TBWRrIi8GVsu+lMBGIcVigD+LiK3Wmtvi6LoFq4WEJU3DgBEIyCdTu8O4BQAORHJAJjsudKrKYC7AeRF5OZ8Pn/70H9HRGWCAwDRMGlsbExVV1enVfWDqvoOERnlu9MOeAJAu4hcn8/n7/RdhohGHgcAol2UyWSOEpEPq+r7AOzju8+uUtX7jDFXBUHw88WLFz/vuw8RjQwOAEQ7R9LpdFZELsCWpf4k6gPwc1X9fqFQeMh3GSIaXhwAiHZAa2trZW9v7xmqer6IHOG7jyMWwBJjzNc6Ojpu912GiIYHBwCi7dDW1maWLVv2AQD/C2A/3308WgzgS2EY3uW7CBHtGg4ARNuQTqdPFZHvADjWd5eYUFW93lp7UVdX1xO+yxDRzuEAQPQa0un0oSLyXQAzfHeJI1XdLCLfqa2t/WZ7e/tm332IaMdwACB6lcbGxlRVVdVnALRh13blKwsi8qiqnh2GYZfvLkS0/TgAEG1l+vTpR1hrr1bV43x3KTGqqlcHQXBeR0dHr+8yRLRtHACIALS2tga9vb1fAPAFAJW++5Swx1T1g4VC4TbfRYjo9QW+CxD51tTUNGFwcPBGAB8F/07sqj1F5MOTJ082Z5555p+7u7u5vTBRTHEFgMpaNps9WVWvB1Dnu0sC3aKqZxQKhWd8FyGif+fyNDKiOJFsNnueqv4BvPiPlFNE5PaWlpajfRchon/HFQAqO0P3+xcC+ITvLmXiRVV9X6FQWOS7CBG9jPc7qazMnDlzt02bNv0WwBm+u5SRShE5ferUqc+uWLGCJw0SxQQHACobM2bM2LNYLHYAaPLdpQwZADOmTJkyqqenh/sFEMUABwAqC7lcbmIURd3gdr6+nTx58uTdOQQQ+ccBgBKvqalpgojcAuBQ310IEJGTJk+evGdPT0/edxeicsYBgBKtubl5dCqVKgAol6N7S4KIvGnq1KmjV6xYEfruQlSuOABQYs2aNavGWtsJgNv6xtOJU6dOHVixYsVffBchKkccACiRcrlc1eDg4BIROcl3F3pdp06ZMuWxnp6ee30XISo33AiIEslae4mIvM13D9omAXBVJpNp9l2EqNxwIyBKnEwmcw6AS3z3GCZrALwAYKOI9KlqH4AxAPYAsDuA2qF/St3zAE4Iw3CF7yJE5YIDACVKJpM5BUAIoMJ3lx2gAP4hIndba+8RkXsAPN7f37+yu7u7b1s/ecaMGXsODg4eLCKHADgYwNEA3gqgZmRrDy9VvQ/AiYVC4UXfXYjKAQcASoxsNnuAqt4JYKzvLtvheQCLRKTTGNO1ZMmSp4fzizc2NqaqqqqOBdAIID30f0vhmZ9fhmH4ft8liMoBBwBKhNbW1mDDhg1/VNU4P/TXB+C3qvqr0aNHh+3t7QOugltaWuqMMe8D8EFsWSGILVU9u1AoXOm7B1HScQCgREin058VkW/47vEaVqvqgiAIruzo6Fjru0xLS8vRInKRiLQinqsCL4pIQz6ff9h3EaIk4wBAJa+lpeVoY8wdACp9d9maqq4C8LXRo0f/2OWn/e2Vy+Umq+qFqvphAFW++7zK8mefffbE5cuXD/ouQpRUHACopDU2NlZXVVXdCeBw31220quqXx09evRl7e3tm32X2ZZ0On2giPwQwCzfXV7lC2EYft13CaKk4gBAJS2dTn9dRD7nu8dLROSGVCr1qZtvvnmV7y47KpvNTlfViwFM8d1lSJ+IHM1bAUQjgwMAlaxMJjMFwP2Ix/L1WhE5K5/P3+S7yK7I5XJV1tqvATgPMfj+oKp/LBQKp2DLq5JENIzi+AAQ0XaZOnXqNQDe6LkGACy11mYKhcLffBfZVStWrIh6enoKU6ZMuRVABls2HPJGRA6YPHnyQz09Pff77EGURN4nfKKd0dLSkjbG+D5JTgH8bxiGX0YCP6HmcrmJ1trrALzFc5UnamtrDy2F5ymISgnPAqCS09DQUGGM+aHnGn0APhiG4ZeQwIs/AHR0dKysra1tBnC95yr79fb2nu+5A1HicACgkjN27NiPAHiDxwq9ItIShuF1Hjs40d7ePnDiiSe+X0R8n63wmUwms5fnDkSJwmcAqKQ0NjamKioqrgewp6cKzwPIhGG4zFO+c93d3bpixYqOKVOmDAJo8lSjGkDU09PzB0/5RInDFQAqKdXV1Weo6kGe4tcbY5rCMPyrp3yvht7J/6rHCv/V1NS0t8d8okThAEClRFT1Ik/ZAwDe09HRcben/FgYeubhUk/xe6RSqfmesokShwMAlYxsNvtO+NnxT1X1w2EYdnnIjp3a2tpPAfi9p/j5ra2tozxlEyUKBwAqGar6aU/R3ygUCr/ylB077e3tUWVl5QewZRMm18avX7/+TA+5RInDAYBKwvTp0w8G4OOo31tqa2u/5CE31hYtWrTJGPNeAJtcZ4sIbwMQDQMOAFQSoij6ONxvXLVGVc9ob2+PHOeWhI6OjgdV9VwP0Ue2tLQc5yGXKFE4AFDsNTQ0VAD4kOtcVT2nUCg84zq3lBQKhavhYaMgETnLdSZR0nAAoNjbe++9ZwDYx2WmiNxQKBRucJlZqorF4icBvOAyU0Tem8vl4nAIFFHJ4gBApcD1p/8NxhgfS9slaenSpWsAtDmOHRNFUYvjTKJE4QBAsZbL5apExOk3ehH59pIlS552mVnq+vv7LwNwr+PY9zrOI0oUDgAUa1EUnQqHR9Kq6ipr7Q9c5SVFd3d3UVUvcJkpIjOHng8hop3AAYBiTURmuswzxny9UCi86DIzKQqFQicAl9skjx4/fvw0h3lEicIBgOJuusOsddbanzrMSxwR+abLvCiKMi7ziJKEAwDFViaTOQrA/q7yRORSfvrfNW9+85tvBPAPV3kiknWVRZQ0HAAozt7iMGtwcHBwocO8RGpra7MicrHDyKOam5tHO8wjSgwOABRbIvJmh3EdQ6+z0S4KguDXAPodxZkgCE50lEWUKBwAKLZU9U2uskSE9/6HyeLFi58H0OEqT1V9nBFBVPI4AFAsZTKZvQBMdhS3vqam5mZHWeXiWldBInK8qyyiJOEAQLE09OnfyeE/ItLZ3t4+4CKrXPT39y+Gu5MCj3SUQ5QoHAAolowxR7vKstY6W64uF93d3X0AbnMUt+/MmTPHOsoiSgwOABRL1lpXy/9Q1byrrHKiqt2usgYHBw93lUWUFBwAKJZE5CBHUY93dnaudpRVVowxf3SVZa119eeFKDE4AFBcOfmGLiJ/c5FTjmpqav4KoM9R3IGOcogSgwMAxU5ra2slgIkuslT1Thc55WjowcoVLrKMMRwAiHYQBwCKnRdeeGF/AIGLLBF5yEVOGXvERYiq1rvIIUoSDgAUO6lUam9XWara4yqrHImIqwHA2Z8ZoqTgAECxE0VRjaMoVdXHHWWVJVV1MgCICF8DJNpBHAAodkSk1lHUep7+N7JExNX5Cns5yiFKDA4AFEfOBgBHOWVLVTc4iqpqa2vj9zOiHcC/MBRHHAASwlrragBAd3d3passoiTgAECxIyJOvpGrqqu96stWKpVyNgAAqHaYRVTyOABQ7KjqoIscEXHyqmGZ63cVFAQBfz+JdgAHAIojJwMAHO01UM6KxeIoV1lRFDkbNoiSgAMAxZGro3l5z3iEBUHgbAAYN24cj3Qm2gEcACh2RMTVCgA3jxl5uzvK0fb2dld/bogSgQMAxZGrpdxxfHVsxO3rKGcDAHWURZQI/OZHcfSMo5zU8uXLuYHMCFLVSY6i1jnKIUoMDgAUO8VicbWrrP7+/smussqUqwHgWUc5RInBAYDiyNkAYIx5g6usMnWIixBVXesihyhJOABQ7HR1da0H4GSPflXlADCyjnURIiL/cpFDlCQcACiunnKU0+Aop+zkcrlxAOocxT3uKIcoMTgAUFytcJTz5sbGxpSjrLISRdGbXGWJyGOusoiSggMAxZKq3ucoavfq6upjHGWVFRFpcpWlqo+4yiJKCg4AFEsi4moAAIBmh1nlxNWv66Ax5iFHWUSJwQGAYsla62wAUNV3uMoqF+l0ehKAwxzFPdzR0cFzAIh2EAcAiqVUKvUPAEVHccfncrmJjrLKxXsBiKOsvzvKIUoUDgAUS0Of6B5wFCdRFLU6yioLIvI+h3HLHGYRJQYHAIqzW1wFichZrrKSLpfLvRGO3v8HAGvtX1xlESUJBwCKLRFxNgAAeGM2mz3ZYV5iWWvPcRjXO2bMGJcPjBIlBgcAiq1isfhHuHsOAKrq8sKVSI2NjWMAnOkwsru9vT1ymEeUGBwAKLaGtgRe7jDyPdls1sne9UlVVVU1G8AervJUNe8qiyhpOABQ3HU5zAoAfM5hXqLkcrlaABc4juUAQLSTOABQrBljfuMyT1Xf39zczAOCdkIURZ8GMNZh5IOFQoFbABPtJA4AFGsdHR13A3C5zWtFEATfd5iXCNOnT99HRM5zmSki7S7ziJKGAwCVgusd52XT6fRpjjNLWhRF3wdQ6zJTRH7tMo8oaTgAUClwPQBARH40a9asGte5pSiTyTQDcLnxDwD8vaOj40HHmUSJwgGAYi8Mwwccng74kgP7+/u/5ziz5DQ3N48GcKWH6Ks9ZBIlCgcAKgnGmMs9xJ6VzWane8gtGUEQLARwoOPY/mKxeK3jTKLE4QBAJaGvr+9nANY7jhVV/Vk6nXZ9gSsJmUzmo3C/9A8Av126dOk6D7lEicIBgEpCd3f3RgA/8RC9t4j8Pp1O7+4hO7ZaWlqOA3Cpj2xjzI985BIlDQcAKiWXAbAeco8UkZ+0tbXx7wuA6dOn72+MuRnAbh7i/9LR0XG7h1yixOE3NCoZYRiuEJHFnuJbb7vttgWesmMjl8uNi6JoMYAJPvJF5Ds+comSiAMAlRRr7VcAqI9sETk7nU5/3Ud2HGQymb2stZ0ADvNU4d43v/nNN3vKJkqcwHcBoh3R09Pz1JQpU44A8EYf+SLylilTptT09PR0+sj3ZebMmWOttXkAx3qsMefHP/7xQx7ziRJFfBcg2lHZbPYQVb0fQMpjjZ/39/d/rLu729lxxb5ks9kDhk7d83lS4vIwDI+Hp9UfoiTiLQAqOfl8/mER+YXnGmdWVVXdNGPGjD099xhRLS0tx6nqMvi9+ENVLwQv/kTDigMAlao2Vd3suUOuWCz+NZ1OH+65x4jIZDJzjDF/AbCPzx6q+rtCofAHnx2IkojPAFBJWrFixQtTpkxRAE2eq+wlIh+aPHnyup6enrs8dxkWzc3Now8++OAfA/gc/N5mAYB+a+3bH3300ec99yBKHD4DQCWrsbExVVVV9TcAR/nuAgAiUhCRj3d0dKz03WVnZTKZLLbs7T/Jd5chXw7D8H98lyBKIg4AVNJaWlpOMsb8CfG5nbUewFdra2svaW9vH/BdZnuddtpp9QMDA98UkQ/67rKVB2pra48tpV9HolLCAYBKXjabvUJVZ/vu8SqPiMgF+Xx+EWL88NqsWbNq+vr6LhSR8+BnZ7/XYkXk5Hw+v8x3EaKk4gBAJa+5uXl0EAR3w/2pdNvjHlX92rRp037b1tbmYxvj/6ipqWnvVCo1H8A5AMb57vNqIvLNfD7/Od89iJKMAwAlQiaTOQHAXwBU+O7yGv4J4CpVvaZQKDzjq0RLS8vRxpiPA/gogFgecCQif1u7du205cuXD/ruQpRkHAAoMdLp9PklsFf8gKouNsb8NgiCxYsXLx7xp9tbWlqmisjbAXxIRI4Y6bxdtCEIguOWLFnyiO8iREnHAYCSRNLp9M0iMt13ke00COBPQ//8ubKy8o5FixZt2tUv2tzcvF8QBMer6luHfi2m7OrXdERV9fRCoXCD7yJE5YADACVKLpcbZ629E8D+vrvshCKAR1X1AQAPicgqAE8DeEZVN4lIMYqiDalUqkJVRwOoVdWxxphJqnqQiBykqkfB00l9u0pVv1MoFC703YOoXHAAoMTJZDKHAbgVwGjfXWj7iEihr69vRjmcrUAUFxwAKJGy2WyjqoYAKn13oW16oL+//+Tu7u4XfBchKifcCpgSacWKFY9PmTJlFYC3++5Cr2u1qp6ydOlSb29GEJUrDgCUWD09PfdMnTpVADT67kL/0bMAmgqFwgrfRYjKEQcASrQVK1Z0T5kyxQB4m+8u9Aq91tp0oVC413cRonLFAYASr6enh0NAvKxX1emdnZ13+C5CVM44AFBZGBoC+gA0++5S5p5X1WyhULjddxGicscBgMpGT0/PrUNDQBP4BoxzqrpKRE4tFAp3++5CRBwAqMz09PTcOnny5AdE5DTE99yAJLrfWtvU2dnJB/6IYiIuZ6gTOTO01ewpAJ7y3aVMhMaYk7q6up7wXYSIXsZlUCpbp512Wv3g4OCNABp8d0koVdVL1q1bdz5P9iOKHw4AVNay2ezJqvpn3z0SaAOAj4Zh+BvfRYjoP0v5LkDkk6rO890hge601n6gs7Pzn76LENFr4woAla2hY3N7wEF4uEQAvvXss8+2ccmfKP74jY/KVhAEnwT/DgyX+40xn+jo6OD7/UQlgisAVJaam5tHB0HwBIBa311KXJ+IfG3t2rXf4qd+otLCTz9UllKp1GxV5cV/19wcRdEnu7q6HvVdhIh2HAcAKjsNDQ0Vqnqu7x4l7A5jzEUdHR1/9F2EiHYeBwAqO+PGjXuvqk7y3aPUqOp9xpiv5vP5GwCo7z5EtGs4AFDZUdXzfHcoMd0AvlsoFJaAF36ixOAAQGUlnU6fCuAY3z3iTlU3i8gN1tofdXZ2/s13HyIafhwAqNx8xneBmFsO4CcDAwO/6O7ufsF3GSIaOXwNkMpGLpd7o7X2fvDP/avdq6rtqvpr7t5HVD64AkBlI4qi80TE5cU/EpEzrbVvNMacoqonIB5HED+HLff186qaLxQKT3ruQ0Qe8JMQlYXp06fvE0XR4wCqHMb+NgzDd7/0H9Lp9O4ApgGYJiJHAjgSwEEY2WO5+wE8AODvqrpMRG4Nw/BB8GE+orLHFQAqC8Vicb6IuLz4Q1W/t/V/LhQKLwLoHPoHwJahQEQOA3AogIkA9gUwCUCdiOytqmMABABG/4eIIoDnAawTkXWquk5VHxeRxwA8Zoz55+bNmx/p7u4ujsi/IBGVNK4AUOLNnDlzt4GBgScA7O0wdlkYhtOG8ws2Njamdt9995rddtutt729PRrOr01E5YcrAJR4AwMDH4Pbiz9E5LvD/TWHPsk/P9xfl4jK00jeeyTyrq2tzQD4pOPYx2pqam50nElEtEMC3wWIRlJVVdW7AMxxHPvfN9100x2OM4mIdghXACjpXG/881x/f/9PHWcSEe0wDgCUWJlM5gQAJzqOXdjd3b3RcSYR0Q7jAEBJdpHjvH4AlznOJCLaKRwAKJHS6fSBAN7uOPYXYRg+5TiTiGincACgRBKRz8DtQ64qIhc7zCMi2iXcCIgSJ5PJ7AXgXwD2cBjbEYbhdId5RES7hCsAlDiqOhduL/4Qke9t+0cREcUHVwAoUXK5XJW19jFs2VPflb+HYXg0eMAOEZUQrgBQokRR9AG4vfhDRL4DXvyJqMRwAKAkERFxuu2vqq6qqan5tctMIqLhwAGAEiOdTmcBHOky0xhzcXt7+4DLTCKi4cABgBJj6NU/lzb09fX9n+NMIqJhwQGAEiGbzR4J4FSXmSJyVXd39wsuM4mIhgsHAEoEa+0FcPtWS1QsFi91mEdENKw4AFDJO+200+pF5HSXmara3tXV9ajLTCKi4cQBgErewMDAJwFUOo79oeM8IqJhxY2AqKTNmjWrpr+//wkAY1xlquofC4VCo6s8IqKRwBUAKmkDAwOfgMOL/xBu+0tEJS/luwDRzmpsbEyp6n85jn142rRpiwuFguNYSqpZs2bV9PX1HWyMOVhVJ2HLORa7iUiNqo4GsLuIqKr2AegTkc2qukZEngawMoqi1YODgw91d3dv9PovQiWHtwCoZKXT6TNE5JcuM0VkTj6fv8JlJiVHJpPZF8ApAE4GcCiAQwDUDcOXVgCPA3hAVe8xxvylsrLytptuumnDMHxtSiiuAFDJMsZ8RtXpFvxra2pqfuYykEpbY2PjmKqqqjSARmy58B86QlEC4EAAB4rIaaqK/v7+KJPJ3AMgBHBjGIZ3gmdW0Fa4AkAlKZfLvc1a2+0yU0S+ks/n21xmUulpaGio2HvvvbPGmA+p6mkAqn13GrJaVX8vIj8Nw/CvvsuQfxwAqCRls9mbVHWmw8g+Vd2/UCg84zCTSsjQbpRnqeoZAMb57rMN94vIT4Ig+MnixYuf912G/OAAQCUnm80eoqoPwuFbLKp6RaFQmOMqj0pHJpM5FsBnAbwHpfc9daOIXBdF0Xc7Ozv/6bsMucVnAKgUnQe3r7AquPEPvUomk2kG8HlsubdfqvZQ1dnGmI9ls9lfGGO+vGTJkn/5LkVulNq0SmUunU6PB/C4iIxyGHtzGIYubzdQjKXT6cNF5DIAb/XdZQT0A7isWCx+fenSpet8l6GRxY2AqKQYY+Y5vvhDRLjxD2HWrFk1mUzmeyJyN5J58QeAKgDnpVKpf2YymU+AHxITjb+5VDJaW1tH9fb2/gtuH7BaHobhcQ7zKIbS6fR7AXxPROp9d3HsLwDmhGH4gO8iNPy4AkAlY/369R+B46erVfW7LvMoXnK5XG06nf6liPyqDC/+wJYNi+7OZrNtbW1tvF4kDH9DqVSIiLje9nflunXrfuM4k2Iik8kca61dLiJn+O7iWYWqfnnZsmWFlpaW4di1kGKCAwCVhEwmMwsjt4vafyQiP1i+fPmgy0yKBclms/8F4DYAU3yXiZEmY8xdLS0tJ/kuQsODAwCVis84zlsvIlc5ziTPcrlcVTqdvk5VL8aWB+LolSYYY5ZmMpmP+i5Cu44DAMVeJpM5AcBbXGaKyP91dHT0uswkv2bNmlVjrV3MJf9tqgJwdTab/Q74IHlJ4wBApeB8x3mDxWLxEseZ5FFTU9OE/v7+bgBNvruUClU9P51O/6yxsZEbypUoDgAUa9ls9gAA73SZKSK/7urqesJlJvnT3Nx8UCqV+guAY313KTUi8sGqqqpftba2VvruQjuOAwDFmqp+Co63rObGP+XjtNNOqw+C4A/gw3674t29vb3tXAkoPRwAKLZmzJixJ4CPO45d2tHRcbfjTPKgubl59ODg4GIA+/vukgCzqqurr+FeAaWFv1kUW8VicTaAPVxmisj3XeaRHzNnztwtCIIlAI7y3SUpVPUDt99+Ow/NKiGB7wJE/0lra2tlX1/fdSJS6zD2wTAMz3OYRx40NDRUVFVV/QZ84G8kvGnq1KnPr1ix4g7fRWjbuAJAsbR+/fr3ud56VVW/hy1H/1KCjR079hsAZvjukVSq+v1MJpP13YO2jQMAxZGIiOtP4muCIPiF40xyLJvNzgLAVZ6RFQC4Np1OH+i7CL0+DgAUOy0tLS0AjnSZqaqXdHR09LvMJLfS6fQkVb0a3LzGhb2NMb9uaGio8F2EXhsHAIqdIAhcb/u7qaqq6grHmeRQQ0NDhYj8CsDevruUC1U9buzYsV/03YNeGwcAipXp06cfoaotLjNV9ZpFixY96zKT3Bo7dmwbgGm+e5ShL/DwoPjixg0UK1EUnQe3S7RWVfnqUoI1Nze/Ae63k95ZLwB4UFWfEJHVqrpJRDYCqASwh4iMUdUJAN4A4EAAcV9iD4wxV+VyuaN5iy1+OABQbAydNf5+l5mqemNnZ+c/XWaSUxIEwQJsuYDG0WoAeRHpArAsn88/vr0/saGhoWLs2LFHADhFVU8FcIqIjBqhnrvi0CiKzgfwNd9F6JX4MAzFRjab/YaqftZlprX25M7OzltdZpI72Wz2g6r6c989XmUTgOuMMde+6U1v+nNbW5sdji+ay+Vqoyh6D4APichbEaPv76q62Vp7eFdX16O+u9DLYvMHhMpbY2PjHlVVVU8A2NNVpqreXigUTnSVR241NjaOqaqqegjABN9dhjynqt8XkYVhGD43kkG5XO4YVf28qr4LMXnWS1V/VygU3uW7B70sFn8wiKqrqz8Ghxf/ITz0J8EqKysvRDwu/gMi8s3+/v7JhULhayN98QeAjo6Ou/P5fKuqHgWge6TztoeIvCOTyZzguwe9jCsAb/Vs8wAAIABJREFU5F1ra2vQ29v7T2x5qMkJEXm0pqbm4Pb29shVJrkz9On/XwBcbiX9b0Tk1mKx+Imurq5/+KyRTqffLyI/ADDOYw8A6AzDMO25Aw3hCgB5t2HDhnfB4cUfAKy1P+TFP7mqqqrOhd+LfxHAl2pqat7m+eIPAFooFH5hrT1aVf/ouUtLLpd7m+cONIQDAHmnqq43/nl+YGDgJ44zyZHGxsY9AHzSY4XnRSQbhuFX4zRkdnZ2rh49enQTgG/57GGtLZVXMhOPtwBoZLWp2W8NRvcrKqrk5aN9Bw2iCoveQ1aefqQZ6O12WUlVv1EoFD7vMpPcyWazF6jqtz3F/0tEMvl8/mFP+dslk8nMB/Aj+PkQaEXkjXH/NSoHHABol0w5V6s2WRyGKDpaRKYAmAjofoBM3PL/o2pbX8PYF5GKXkBFtA6Vg8+gorgGVYNPonrgcVQOroLosH6IGrDWHtjZ2bl6OL8oxUNbW5tZtmzZowD29xDfEwRB05IlS/7lIXuHpdPpM0TkWvg5Fn5hGIbzPOTSVjgA0A6pm637wUTNIvI2AEdjy45kI7YbmegARg08it36/oHd+h7AbpvvR8r27sqXvCYMw48OVz+Kl3Q6faqILPUQ/VQQBCeWysX/Jel0eraI+DgHY6Oq7lMoFF70kE1DuBMgva6G2VqxRqIWGJmuQDNgD3E5N6pUYlPVodhUdSgw+p0QKKr7H0HNpuWo2XQHRvXv0CZ+GgTB90eqK/lnjPmQqrqO3WitnR6GYUld/AGgUChcmclk9gHwFcfRexhj3gngWse5tBWuANC/a1Mz8eniW1XM+wC8GzE+Qa2y+BRGb/wzRm/4A6oHn9jWDw/DMMy66EXupdPp3UXkaeDlZ00c+VAYhnHbbXBHSCaT+R2AtzvO5d9Hz7gCQP/fPufquCCys7HGzlUx9b77bI+B1L5YO+Z0rB1zOnbrewB7bQgxeuMfITr4bz/WWstP/wkmIu+G+4v/whK/+AOAFovFj6dSqWMA7OcwtzmTyewbhuFTDjNpK3wNkFA/T4+unxtdERTt41D8L4CSuPi/2qbqw7By3Hl4eL+f4pk9PwBrdt/6f/57Z2dnp69u5MTpjvMe7+/vv9Bx5ohYunTpOlU9y3FsAGCG40zaCgeAMrbffD2sfq79NdTeBWA2gN18dxoOxWAMntnzA3h40o/xzJ4fQGRqoKrfB+D85jC50dDQUAHgrS4zVXVed3f3RpeZI6lQKHQCuN5lpqpOd5lHr8RnAMpQ3Vw9RGC/AqAVZTAEBnazqqn4RhRVfm31lbLJdx8aful0epqIODvVUUQK+Xw+4yrPlZaWljpjzCMAdt/mDx4eG4wx4zo6Ovod5dFWEv/Nn1429mNaUz8n+qHA3g/gvSiT3//IjBKL1OclsA/WzS+6ftCJHDDGnOowTkXE6bHVrgztj+HytcAaAG92mEdbKYsLAAF184ozq6rs/RB8EuX78Of+YuX39XNsV91sPdR3GRo+qtrkMC7s6Oi422GeU0EQfEdVN7vKs9ZyAPCEA0DCTTpH6+rn2ptF5Sa4fcI3vkSbJLB31c+Nvog2LddhKDEaGxur4fBTpLX2B66yfFiyZMnTAK5zGMkBwBMOAAk2ac5gJorsckD5pO2/GwXgq3VPR0snztGSfOuBtqiurj4YQLWjuCdOOumkLkdZ3ojITx3GcQDwhANAAh3wEa2umxddbMV0CLCP7z5xJiJvVbH3TDy7yKeRS5Sq09s5P29ra7MO87wIw/AvAHocxe2TTqfHO8qirXAASJh95+v+g6Ps7aL4L/Atj+01Vo3cXDc3+iZvCZSkQ1wFWWt/7yrLMxWR37kKExFnv4f0Mg4ACVJ/tp5o1N4B4CjfXUqQCHBR/Zqo64BP6RjfZWiHuFoBWHPSSSfd5SjLO1V1eagSH8r1gANAQtTPKZ4OY5dCMcF3l9Imbxvot3+pP1cn+m5C283Vp8c/lcPy/0tU9c8ABhxlTXWRQ6/EASAB6uZFF0LkV9jyYBvtIgEOQ9H+pW6uclmyNExxESIid7rIiYuho3ofcBS3r6Mc2goHgBI3cW50kSi+Bd7vH277C+xtdfN0mu8i9NpyuVwVgNEusqIoutdFTsz8w0WIiHDl0gMOACWsfm70NQW+6btHgu0lagt18/Rk30XoNY1zFZRKpVw9FR8nDznK4QDgAQeAElU/N/o6gM/77lEGdhe1iyaeo0f4LkL/zlrr5NM/AN1jjz2edJQVGyLi6t95T0c5tBUOACWofk50NoDP+e5RRsZoZPMTztEDfRehV1JVVxsAvdje3u7kgbg4sda+4Ciq0lEObYUDQImpm1ecCcFlvnuUobpUZDvHn6VcqowRY4yrC0evo5xYEZH1jqKqHOXQVjgAlJC6eTpNVK4HEPjuUqYmpyqjm8fN0z18F6EtrLUVrqIc5cSKqro6ppcrAB5wACgR48/SCaL2BvBVP69E5bhKtVf57kHOlevQ7eoWS+Qoh7bCAaAUtGpQUaHXgu/KxsV7J84tnuW7RDlra2sz6XS6QUROdxRZ6ygnbnZzlPOioxzaCvc9LwF1Y+3XADT77kEvU8gldXN0+erLJbHnwsfN9OnT94miKA0gs2zZshYRcfYKIIDd0+n07kOb45QNEXF1mFhZ/brGBQeAmJt4dnG6Ahf67rEDVgByN1QfEdGH1AY9avAcBJtSio22Gn2mD9UaYJQo9rRanASViQp5AyBHA3oMSuOVoGoR+8tx8/S4tQtko+8ySdTa2lrZ29t7EoAMgEwURUfB44ZXxpiJAB72le+DqtaLOPkl598hDzgAxNhBs3V0v7FXIt67/K0HcCNElyqCW1Yv2K73hjcDeB7AavzbVqMqdXNwNMQ2C3QGIG9BfG9VHVKpdiGAM30XSYrm5uaDjDHNItLc29ubhqNd/raHtfYNKLMBQETe6CjqaUc5tBUOADHWF9jvClDvu8d/UAQkD7U/r+gLbnr8Gukbvi8tuvpy3A3gbgDfmThH69XY0wHMhsbyxLAP1s0b/PnqBRUF30VK0axZs2r6+/tPBZARkYyqHuS702sRkSMAlMtxwC9xtQHWKkc5tBUOADFVP3+wCRYf993jVfohuCZQ8+0nFsqjLgJXXi6rAPwA0B9OmlNMWwQXQLTJRfb2EjWXHvARPXJ4B6FkamtrM7fddtsxxpi0tTbT398/DUAFAKiq53bbdKLvAi7NmDFjz2KxeLCjOA4AHnAAiKEDPqLVgzZWS/+RAJdLYL7+5KWy2k8F0ScvRwggnDhnsFGNfB0qcfmGPHVglL0QwP/4LhJHTU1NE1KpVFpEXnp4b7yqwtG95eE0rbGxMdXd3V30XcSFwcHBt4mIk9cfReRfLnLolTgAxFBxlP0kgFgshQqwHGrmrbxc/uq7y0tWXl7RDWBa/dxiKyCXAhjvuRIE+Hz9fP3VqsvkEd9dfHvp4T0RSatqBsDRAKQEPuFvy+iqqqq3ALjFdxEXRCTjMMvVscO0FQ4AMVM3W8cq7Gd99wDQp8D5qyaYhWiTWO6Ctmphqr1+vv4BVhcC2uq5ThWs/hDAdM89vMhkMlMwdB+/t7f3FAB7JOCC/29E5J0ogwGgsbExBeDdjuJ08+bN9zvKoq2U3Bpc0tXNiy4WxX95rvEwxJyxaoHc47nHdps4t3iWQi6Gu41L/jNjm1ddVrHUawcHtn54D0AawGTPlVxZW1tbOzHpBwOl0+mciCxxFPdYGIaxWPEsN1wBiJH95upBkdo5flvIbwdEPlxq77avXJi6qm6+3iWRvRGCid6KqHwVQBIHAMlkMseISObVD++VmXHr169/J4DrfRcZSSIyz2Hc3xxm0VY4AMRIBHs+fB6KIbhi1VqZj3YpyX25V18md006R99kI3szgGO8lFA5ceLcYm7lwlSHl/xh1NTUNKGioqIFQFZVWwCU6sN7w0pEzkOCB4CWlpapcHsr608Os2grHABiYp9zdRyK9iO+8gX4n5ULgi/7yh8uT14qqw/4lJ462B/lAXmTjw4KXASg5AaA1tbWYP369UcbY2aq6mkAjlHVuG7C5NMJ2Ww2k8/nQ99FRoKIfAkON98SEQ4AnpT3KB8jdXOiL4ugzUe2Cr65ekHwOR/ZI2Wvc7V2VDEq+BoCjJgTnlwgd/rI3hG5XG6yqmaGntY/FQCPOt4+d9fW1h7f3t5ekqtlryWdTh8uIvfA3emHz5144onj2traYvmgcdJxBSAGJn5aR2mfne8jW4GrVi8wn/eRPZKeu0R662braRLY2wBMdZ2v1n4awPtd525LY2PjHtXV1adaazND9/PL5eG94XbM+vXrPw7gSt9FhpEAuBQOjz5W1SW8+PvDFYAYqJ9X/BBUfuo8WGTJqrUyq1Tv+W+PSbN1sg3sHQD2dhzdr5GZuPpKedZx7qtJJpM5RlXTQ+91n4TyfHhvJDxfUVFxxM0335yIXeyy2exHVPUnjmPfE4bhbxxn0hCuAMSBmg8Dzt+ZflKL8uEkX/wB4Mkrpad+/uB7YU0Ih59sAFSJsR8G8D2HmQCAdDo9/qWtdkWkBcCEcn9wb4TsOTg4+GMAOXj4CzycmpubD1LVix3H9vX39yfyOYpSwe8KntXN1v0ksI/B7Yl3g7DmbauukGUOM72qnxt9DYDrWx33r1oYjPhhKg0NDRXjxo07yVr70qf8Y8C/286IyH/n8/n/9d1jZ7W2to7asGHDn1T1OMfRvw3D0NVmQ/QfcAXAMwnsh+D+uNv/KaeLPwDsE5m2pwN7GoAjHcYePmmOHv7k5TLsu5xt9fBeGsCpqlrDT/l+qOpXstns3/P5/E2+u+wE6e3tvQqA64s/AFztIZO2wgHAN8EHnC4eCh4as9Z8OxE3LXfA8itlcN+5+jEDezsc/rm3W44y3uUBYObMmbsNDAxMA9AMoNla27DL5Wi4GGvtr9LpdLZQKJTUK22ZTOYb8PCwqqquGj16dN51Lr0SPzJ4NPSA2gqHkQqxTasWVCR+L/PXUj8nugwCZ7ucKfDA6oXB4TvxUyWXyx0dRVFGRNLY8vCev02iaHusF5FcPp8vidW1dDr9VRH5oqf4r4dh+AVP2TSEA4BHdXOic0RwibNAlRtWXW58H5rj1YQ5Oj4ldgWAGleZGpn9V18pT2zrx6XT6fEAWobu46cBTBjxcjTcXhSRd8d5k6C2tjazbNmyHwHw8uoxgP6KiorJSXl7opRxAPCofp5dDFVXW24qrDlm1RVyr6O82Jo4L2pThbtdDxVzVl0eXPHq/7qhoaFi/Pjx04Y+5b90bC533it9RQDnh2Ho+qn6bWpsbBxTXV39M1Wd6auDqv64UCic5SufXsYBwJOhzX/WARjlJlFuWrXQvN1NVrzVz9e9Ye2/AOzuJHCrlZfm5uaDjDEvXfBPhcOVCHLu+lQqNXfx4sXP+y4CAJlM5gQA18HvyY1WRN6Yz+cf9tiBhnAA8GTSfH2rtfaPzgKtmVZuT/6/nrq50Y8EONdFlujg84c99vbrsOXo3CkuMik2VgOYF4bhjb4KDL3m9yVVPR/+H/y+PgzDMzx3oCFcbvQkUnuCqywBHuTF/5VUzEJ3WRV7DlTUzQcv/i4pgCd9lwBQB+D32Ww2TKfTO/Mw6K6QTCbz/t7e3odU9bPwf/EfMMbwwb8Y8f0HomyJunvv1grcbzMcc08tkH/Uzy3eCcjxLvI2VR2CysHVLqLK2VoAnQDCIAgKqvq8tfZ+xGDwGtqK+d5MJvN7AN8Kw/CvI5XV0NBQMXbs2DOw5VTKw0YqZycs7Ojo6PFdgl7GAcATAU5w9Pp/FBhzrZuo0iIq16rAyQDQX3UQsLFs374cKYOqepuIFFQ1nDZt2t2vPlgmk8l8CsDNnvq9mgHwLgDvymQydwO4uqKi4nfD9DS8pNPpY40xH1DV9yN+b5A8X1lZWbK7JSYVnwHwYOLHdS+ttOvcpOntqxamTnSTVVomnKMHpiL7qIusPTbdhQOe9vXKdXKIyKOqGgIIq6qq/nDTTTdt2NbPyWQyNwOYMfLtdooC+JuqdgP4s7X23q6urm2+Mtra2lr54osvHmKtPUFVpwHIYsvthlgSkbPy+fyPffegV+IKgA/VmApXB2CqLHWUVHLWXCqP1c+LHoLi0JHO6q/af6QjkmqjiNzy0kU/n8/v8MZZInKOqr4V8XzjQgAcLyLHA7ggCAJkMpkXATwOYK2IPKuqLy0WjgIwBkB9b2/vfnB7uNVOE5E/5PN5bvsbQxwAPLBRdKCzfduN5QDwOkSxVDHyA0Ax2AsqlRAdGOmoUqcA7gFQABDW1tbe2t7evku/aPl8/vFMJnMegP8bjoIO7I6he/cvX/tL1iZVPRslflpiUnEA8EBEDnQUNVixKcWn/1+Hiv4VKiO+I5pCMJCagKrBODyYHjvPArhFVbsqKysXj8QOcWEYXpXJZN6B+N4KSKpPhmHocrtz2gEcADxQxYGOFgBWPH6N9DlJKlFRFPwtMG7uxwymxnEA2GJQVW8zxoSqGp544on3vPrhvZEQBMFZURQtR4zvlSfML8MwvMp3CXptHAA8ECP1cLK0J/9wEFLSnt4Xj9SvwSCAipHOKgZjRjoiznpUNRSRwqsf3gtDN9vmL1my5OmWlpbTjTG3wMHvd5lbYYyZ47sEvT4OAD6oHePkBQxVDgDb0iZFmRutVGDEb8tEqdEjHREnmwDcBqBLVbsKhcJy34UAoLOz89ah5wHcHcJVfnqDIHjXkiVLen0XodfHAcALqXUUxPXm7aCQxwAd8QGgKHF8CH3YKIB7RCQEENbU1Ny2qw/vjZQwDC/NZrNHqOps310SqGitbQ3D8D7fRWjbOAD44eSjoELXu8hJACd7MlipchHj0jOqWjDGhIODg51Lly5d47vQ9qqpqZnX29s7AQAPyBpe53Z2dhZ8l6DtwwHADycrAEbBJbjtINBeF09kqCn5AWAQwK0v3csPw/BulOjrXe3t7VFra+v7ent7uwBM890nCUTk8/l8/nLfPWj7cQDww8khTJEJtrlLGgFW8KI4uIypVI58yDATkUcBdAHoKhaLha6ursSsKrW3t29ubm6eHgRBBwDulrlr/iefz3/DdwnaMRwA/IhchIg622+wpBlF4OZjbEn8dmwE8AcRCUUkTPrhLV1dXetzuVzWWrsYwMm++5QiVf1GoVD4su8etOM4APhRdBEiKJb8mrML6mhLVRPPXQAVwN2qGhpjCmvXrr11+fLlg75LudTR0dHb2NiYq6qq+j2AJt99SogF8JlCofBD30Vo53AA8MPNN1iRUU5ySt/uLkJitA3wWgDdI7nzXqnp7u7e2NjYmK2qqvoRgLm++5SAARH5SD6f/6XvIrTzOAD40e8iRDV2R4LGkkAmqINn2TyuABQB3CsiN1trF/2nY3MJ6O7uLgKYl8lkHgbwfTh6VqcErQXw3nw+z/OtSxwHAC90LSAHjHSKQOpHOiMJFLqPixyx7nZlfr2H9woFvqX1esIwvDiTyTwA4FqAQ/SrLI+i6F3bc2QxxR8HAC/MMy7enlLBfiMeUvJUAHuQi6RU9MJIfvkNAP6gqmEQBIWkP7w30sIw7MrlcsdZa38JPhwIAFZELq6pqflsXDd4oh3HAcADEV3j4igAgR4x8imlbd/52A8We7jIqiiuHc4vZ7Hl4b1CEAThM888c1u5Pbw30jo6OlY2NjaeUlVV9TkAXwRQeu9xDo8nAHyES/7JwwHAAws84+YwQDkcbWrQJrzf+xqMjQ53ci4DgFRxlzccXAOgoKohgM5CofDMrrei1zP0XMBXM5nMbwFcDeAEz5VcsgB+HEXRBUna/4FexgHAA7F43NE1Z/dJT+ONTwL3O0krSXKSq6SK6Nkd/SkDAG4FEBpjCh0dHfegRHfeK3VhGD7Q2to6rbe3dy6ALwMY67vTCFuuqvMLhcIdvovQyOEA4IEV86BxtCmMGtsEDgCvQ9/qYgUgsBsQ2E3b80P/iaFP+QMDA7d0d3dvHOFqtJ3a29sjAJc2NjZeW11d/QVVPRdA0vbaeBLAV2tra68e+velBOMA4IExeNDVpnCqciqAi92klZYDPqVjBvvt8S6yqgcee63/aQOApapasNaGXV1dj7roQzuvu7v7BQAXTJ8+/dJisXihiHwMQLXvXrvoKVX9RhAEV3Z0dDh5TZn8c7MQTf+mfm60BsB4B1F9m1NmwnOXCA8GepWJc4sfVMjPXWTt/cLvsO9z/wcMPbwHIFTVcN26dcv48F5py2Qy+4rIeap6FoAxvvvsCFW9zxhzcV9f3y+6u7vdvadKscAVAG/kfkBPdRBUvVsxOu054DoHWSVFYd7p6pZ6oBtvBbDAGNPZ0dExrK8DkF9hGD4F4ILW1tYvrV+//nQRORsxPlxIVTeLyCJVvaJQKPzBdx/yhysAntTPjb6KLa8WjTyRJasWmBlOskrEhDk6PiX2STh6tUvVHLv6crnbRRb519zc/IYgCN4D4D0AjvTdB1u2H/8TgF8YY37T0dHBFUHiAODLpDmDGSsm7yhOYcyhqy6TRxzlxd7EudFFCnzTUdyGfSKz9/IrhUv9ZWj69OkHW2uzqnoKgLcB2NNR9BPYshvkkqGVJ1706RU4AHgy9mNaU1Vln4ejk+gAfH/VwuAzjrJirWG2Vjwd2EcAHOAmUW5etdDMdJNFcdbW1maWLVt2hKo2GGOOVtWjABwGYO9d+LJFAI8BeERE7rPW3iEidwzdmiB6TRwAPKqfEy2H4FhHcRuLaiavuVzKfvOYurnFjwrkaoeRn161MOCRqfSaZs6cuVuxWDzAWrsfgHEiUqOqNSIyRlVf+j79IoABVe01xqxR1bVBEKxZs2bNY3yQlHYGHwL0SA0Kos4GgD1Sxl4I4HxHebHUMFsrnob9nMtMgeGDVvS6Fi1atAnAg0P/EDnB4y49Mtb8zmmgYt6+83V/p5kx83Rg5wOY6jDyqZULcZ/DPCKi7cIBwKOVl+NObNl5y5VRgdWyXYqeMEfHY8s2ru4ofg0It+8lotjhAOCVqAhudJmo0HfUzS3OcpkZFymxP4LjjVrUmF+7zCMi2l4cAHxTc4PrSIH83/izdILrXJ/q5hTPAPBex7H/Wr0AyxxnEhFtFw4Anq1ciD9hywEwLo2vqNSrAS2Lt0AmnKMHishlrnNFcT2X/4korjgAeCeqgqucx6pOnzjXtjnPdWzip3VUqmhvALCX42i1Yly+akhEtEM4AMRAZM012HL2u1MK/PfQ0ngytanRzfozh3stbEXyqxfKw+5ziYi2DweAGFhzuTwDwe89RIuIXDNpzmDGQ/YIU6l/xi6A6Ht8pAvsJT5yiYi2FweAmLBqvg1XR9O9UpUV87uJcwYbPWSPEJWJc+23oTjbU4FHVi4MXJ3zQES0UzgAxMRTC2U5RDo8xY9SMUvq5hbf4Sl/+LRqUDfXXqkedzwU0e/y4T8iijsOAHESyf96TB8lkBvq5kXzPHbYJWM/pjX1Y/W3ApzlscaKCcXgGo/5RETbpSxeAysl9XNsF0SbvJZQXCOjzLyVP5DNXnvsgLq5eojA/g7AG3z2EOiZKxemrvXZgYhoe3AFIGasyEUArNcSgo9on729/mw9ymuP7aIycV7xEwJ7Jzxf/BV4YOWzwS99diAi2l5cAYihiXOjqxT4uO8eAAZF8PXqwHxjxSXS77vMq+0zRw8wogsFmvXdZQs9bdXC1GLfLYiItgcHgBiaMEfHp8Q+AmC07y5DnoDof69aEPw8Dg+31c3W3UzKXqiKiwBU++4DAAL5/cqF5p2+exARbS8OADFVPyf6DATf9d3jlfSvovjmyn2CG9Emzm9THDRbR/dvOc73kwDGu85/HS9qZN64+kp5wncRIqLtxQEgrto0Vb8mug2Q431X+TeCh8RiobXmutVXyrMjHVd/th4lgT1LFWciPqsi/58An125MPiW7x5ERDuCA0CM7TtP32DULgcwyneX1zAgkCVW7aJKEyx5fIE8PVxfuP5sPQpiZ0HwTgDHDNfXHW4q+rd9i8G05VfKoO8uREQ7ggNAzNXPjT4F4Ae+e2wHBXCfAn810DvUBg9ElVjx9CWy9nV/VpuaCc9i/8pi8WALczhEpkH0JChK4bjijWLNsSuvENenORIR7TIOAHHXpqZ+jXYBeorvKjvpRQGeUeAFQNdjy4ZDKVVUqmCcAGMBpHyX3CmiH121IHWN7xpERDuDA0AJOGCe7jOo9m8A6n13of/vV6sWBu/zXYKIaGdxI6AS8PgCeVqMeTeA2L2LX44EeHBzyvg6aIiIaFhwACgRKy+TOyA623cPwrMGZuZzl0iv7yJERLuCA0AJWbUg9TMFeM68P/2q5h1PLJRHfRchItpVHABKzOoJ5lMKXOe7Rxmyovrx1ZfLrb6LEBENBw4ApaZN7L6R+Qgg3HPeHQUwf+XlqV/4LkJENFz4FkCJmvhpHaV9UQcgb/PdJelUcMHqBUHMtmUmIto1HABK2Lh5ukel1d9DtMl3l6TixZ+Ikoq3AErY2gWyccw6mQ5Iu+8uCRRBMYcXfyJKKq4AJEGrBnV724Ui+ITvKgnRB9EzVy1I3eC7CBHRSOEAkBgq9XPsFyFoA1d2dsU6WDNz1RWyzHcRIqKRxAEgYSbOLeYU8gsAe/ruUnIUdxVT5j1rLpXHfFchIhpp/KSYMCsXpjpEzAlQ3Oe7S4n5uYwyJ/PiT0TlgisACTVunu5RCftdKGaDv8+vSYBeqM7jO/5EVG54YUi4urMHW8SYHwOY5LtL3CgkRCSzV18pT/juQkTkGgeAMnDAp3TMYL+9GMCZ4O85ALyg0PNWL0z9xHcRIiJfeDEoI3Xz9GSx9mIIjvXdxRML4OcmMJ9/8lJZ7bsMEZFPHADKjkr9vOhMVfmWAPv4buOO3KJGzl99mdzluwkRURxwAChTYz+mNdWVdr4KPg1gvO8+I0YhOpNsAAACFElEQVRxlxptW70gtch3FSKiOOEAUOamnKtVfUX7YQW+iEQ9KKi3quBbqxcENwOivtsQEcUNBwACABzWqpXPj4veLWrOAvQUlOafjU0AfmthfvjUQlnuuwwRUZyV4jd5GmET5+kUq/Ys2fLWQJ3vPtugqvpnAD/tqwhueO4S6fVdiIioFHAAoNfWpmbiWhxv1b5DgHdAcajvSkP6AfkzoIuLgbmRu/cREe04DgC03ern68FibaMCJwtwsgIHOooeFODvqrhDoF39Juhcu0A2OsomIkokDgC00ybO0Xor0fFG5VAVHAroGwA5BMDonfySRQGeVEgPoI+K4EGNzF8r+nH349dI33B2JyIqdxwAaNjVzdbdtALjAmAfjaJxAPYUkVFb/xgLHTSC9Sq63trUC6pYV2+xavmVMuipNhEREREREREREREREREREREREREREREREREREf2/9uCQAAAAAEDQ/9feMAAAAAAAAAAAAAAAAAAAAAAAAAAAAAAAAAAAAAAAAAAAAAAAAAAAAAAAAAAAAAAAAAAAAAAAAAAAAAAAAAAAAAAAAAAAAAAAAAAAAAAAAAAAAAAAAAAAAAAAAAAAAAAAAAAAAAAAAAAAAAAAAAAAAAAAAAAAAAAAAAAAAAAAAAAAAAAAAAAAAAAAAAAAAAAAAAAAAAAAAAAAAAAAAAAAAAAAAAAAAAAAAAAAAAAABwFsGtQ4QXkUvwAAAABJRU5ErkJggg==;" vertex="1" parent="ybDbiMb5vyXETm1qi4Vq-44">
          <mxGeometry x="160" y="76.5" width="37" height="37" as="geometry" />
        </mxCell>
        <mxCell id="ybDbiMb5vyXETm1qi4Vq-31" value="Azure Function&lt;br&gt;Proxy" style="image;aspect=fixed;html=1;points=[];align=center;fontSize=12;image=img/lib/azure2/iot/Function_Apps.svg;" vertex="1" parent="ybDbiMb5vyXETm1qi4Vq-44">
          <mxGeometry x="61" y="50" width="68" height="60" as="geometry" />
        </mxCell>
      </root>
    </mxGraphModel>
  </diagram>
</mxfile>
